<?xml version="1.0" encoding="UTF-8"?>
<svg id="Layer_1" xmlns="http://www.w3.org/2000/svg" version="1.1" viewBox="0 0 837.15 418.95">
  <!-- Generator: Adobe Illustrator 30.0.0, SVG Export Plug-In . SVG Version: 2.1.1 Build 123)  -->
  <defs>
    <style>
      .st0 {
        stroke-width: .75px;
      }

      .st0, .st1 {
        fill: none;
        stroke: #1d1d1b;
        stroke-miterlimit: 10;
      }

      .st2 {
        fill: #056873;
      }

      .st3 {
        fill: #1d1d1b;
      }

      .st4 {
        fill: #fff;
      }

      .st5 {
        fill: #006872;
      }
    </style>
  </defs>
  <rect class="st5" x="-912.33" y="-11.63" width="836.4" height="418.2"/>
  <rect class="st1" x=".38" y=".38" width="836.4" height="418.2"/>
  <rect class="st0" x=".38" y=".38" width="836.4" height="418.2"/>
  <g>
    <g>
      <g>
        <path class="st5" d="M229.52,169.89c2.73-1.32,10.61-4.96,14.12-6.54-.39,1.71-.79,3.43-1.2,5.13-.99,4.1-2.1,8.78-3.25,13.62-2.05,8.64-4.17,17.57-5.99,24.8-2.84,11.28-6.1,22.81-8.72,30.85-2.95,9.08-9.4,14.83-18.64,16.64-5.92,1.16-13.63,1.2-21.62,1.2,5.6-5.21,11.33-12.12,12.37-12.95.45-.03.91-.05,1.36-.08,3.05-.16,6.2-.33,9.11-2.02,2.85-1.66,5.24-4.72,6.05-8.04,2.06-8.49,4.94-19,7.52-29.16,2.44-9.61,4.96-19.55,6.93-27.62l1.35-5.55.62-.3"/>
        <path class="st5" d="M488.29,172.41c-6.25-.26-14.37-.02-18.42.78-9.61,1.88-16.3,7.86-19.37,17.29-2.72,8.36-7.5,28.19-8.54,32.45-.43,1.77-.56,2.91-.97,4.69h13.64s5.32-22.88,7.46-31.7c.84-3.46,2.77-6.08,5.73-7.8,1.76-1.02,5.61-1.51,7.47-1.77l13-13.94Z"/>
        <path class="st5" d="M332.07,174.42c-5.2-2.48-11.05-2.44-17.37.09-14.28,5.73-23.65,22.05-21.81,37.95.95,8.2,6.48,13.97,14.09,14.7,2.59.24,5.07.2,7.95.23l1.28-.06c.16-.06.25-.64.56-1.93.27-1.13,2.23-9.44,2.87-12.18l.41-1.78h-.02c-1.02.27-1.97.51-2.92.71-2.76.57-5.46.07-7.38-1.37-1.64-1.22-2.65-3.06-2.84-5.18-.62-6.82,1.82-12.3,7.05-15.87,3.47-2.36,7.44-2.51,10.89-.4,4.72,2.88,3.08,9,2.09,13.35-.77,3.37-1.54,6.73-2.34,10.1-.97,4.13-2.36,8.78-3.71,13.28-1.31,4.4-2.67,8.95-3.62,12.95l-3.17,13.33s14.5-8.6,15.2-9.03l.39-1.6c1.3-5.42,2.97-11.32,4.59-17.04,1.91-6.73,3.88-13.7,5.29-20.04.99-4.46,2.05-9.65,2.08-14.67.04-7.18-3.26-12.56-9.56-15.56"/>
        <path class="st5" d="M288.92,189.09c-.46-5.12-2.26-9.03-5.51-11.92-.22-.19-.44-.38-.67-.56-3.41-2.72-7.15-4.08-11.32-4.08-2.94,0-6.08.67-9.46,2.02-13.51,5.37-22.59,19.94-22.08,35.42.19,5.64,2.16,10.28,5.71,13.43,3.15,2.79,7.03,3.97,12.02,4.11,0,0,0,0,0,.01,1.42.03,2.88.03,4.45.05l1.36-.06c.07-.03,3.87-16.06,3.87-16.06-.99.24-1.92.47-2.85.67-2.8.6-5.54.1-7.5-1.37-1.7-1.28-2.73-3.21-2.9-5.45-.46-6.24,1.7-11.38,6.24-14.85,1.59-1.21,3.77-2.07,5.98-2.36,2.61-.34,4.83.21,6.42,1.59,1.62,1.41,2.5,3.58,2.53,6.29.01,1.02-.08,2.11-.25,3.26-.11.71-.23,1.44-.41,2.2-.89,3.86-1.81,7.71-2.73,11.55-.38,1.57-.75,3.14-1.13,4.72l-1.85,8.51c-.09.38-.16.78-.23,1.19h12.93l5.47-23.66c.07-.3.14-.6.22-.9.93-3.89,1.83-7.88,1.78-11.91,0-.62-.04-1.24-.09-1.86"/>
        <path class="st5" d="M442.38,189.09c-.46-5.12-2.26-9.03-5.51-11.92-.22-.19-.44-.38-.67-.56-3.4-2.72-7.15-4.08-11.32-4.08-2.94,0-6.08.67-9.46,2.02-13.51,5.37-22.59,19.94-22.08,35.42.19,5.64,2.16,10.28,5.71,13.43,3.15,2.79,7.03,3.97,12.02,4.11,0,0,0,0,0,.01,1.42.03,2.88.03,4.45.05l1.36-.06c.07-.03,3.87-16.06,3.87-16.06-.99.24-1.92.47-2.85.67-2.8.6-5.54.1-7.5-1.37-1.7-1.28-2.73-3.21-2.9-5.45-.46-6.24,1.7-11.38,6.24-14.85,1.59-1.21,3.77-2.07,5.98-2.36,2.61-.34,4.83.21,6.42,1.59,1.62,1.41,2.5,3.58,2.53,6.29.01,1.02-.08,2.11-.25,3.26-.11.71-.23,1.44-.41,2.2-.89,3.86-1.81,7.71-2.73,11.55-.38,1.57-.75,3.14-1.13,4.72l-1.85,8.51c-.09.38-.16.78-.23,1.19h12.93l5.47-23.66c.07-.3.14-.6.22-.9.93-3.89,1.83-7.88,1.78-11.91,0-.62-.04-1.24-.09-1.86"/>
        <path class="st5" d="M392.44,173.07c-3.19,0-6.27.07-9.35.02h-.03s0,0,0,0c-.96-.01-1.01-.05-1.06.11-.03.11.02-.05-.21.92-2.38,10.03-4.82,20.94-6.98,29.78-1.06,4.33-3.43,7.27-7.07,8.74-2.75,1.12-5.55.83-7.49-.77-1.89-1.56-2.66-4.06-2.11-6.85,1.03-5.25,7.21-31.87,7.21-31.87h-13s-4.42,19.4-5.85,25.27c-1.2,4.93-2.3,9.44-1.94,14.21.34,4.5,1.95,8.11,4.79,10.74,5.38,4.99,11.89,5.84,19.89,2.59,3.29-1.33,6.19-3.16,8.71-5.46.28-.25.54-.52.81-.79.14-.14.28-.26.41-.4,3.19-3.29,5.68-7.43,7.46-12.4.22-.62.43-1.26.63-1.9,1.7-5.49,3.04-11.21,4.34-16.74.56-2.38,2.91-12.37,3.37-14.35l.22-.81-2.77-.03Z"/>
      </g>
      <g>
        <path class="st5" d="M152.58,149.17c6.49-5.18,10.04-9.63,16.96-16.36-1.36,4.7-2.93,10.54-4.9,18.72-1.42,5.88-2.82,11.76-4.24,17.64-6.26,26.08-11.67,53.06-21.8,77.07-16.33,38.68-64.3,39.88-64.3,39.88,30.77-12.07,50.04-34.84,56.61-57.09,7.74-26.23,14.52-52.99,21.6-79.55l.07-.31"/>
        <path class="st5" d="M143.24,155.92c-1.17,3.81-2.5,9.93-4.26,16.56-1.27,4.77-2.24,8.29-3.49,13.06-5.59,21.15-10.66,43.01-18.75,62.5-13.04,31.38-43.02,38.11-43.02,38.11,21.44-11.58,32.39-33.05,37.98-51.09,6.6-21.27,12.16-44.86,18.33-66.4l.06-.25c4.64-4.22,8.14-7,13.15-12.47Z"/>
      </g>
    </g>
    <g>
      <path class="st3" d="M556.89,197.07c.53,0,1.11,0,1.72.02.61.01,1.22.05,1.83.1.6.06,1.16.15,1.68.26.52.12.97.29,1.34.52.81.49,1.5,1.16,2.07,2.02.57.86.85,1.91.85,3.16,0,1.32-.32,2.46-.96,3.42-.64.96-1.55,1.68-2.73,2.14v.07c1.53.32,2.7,1.02,3.51,2.08s1.22,2.36,1.22,3.89c0,.9-.16,1.79-.49,2.64-.32.86-.8,1.62-1.44,2.28-.64.66-1.43,1.19-2.37,1.6-.94.4-2.02.61-3.25.61h-11.99v-24.82h9ZM557.79,207.74c1.88,0,3.23-.33,4.05-.99.82-.66,1.24-1.65,1.24-2.97,0-.88-.14-1.58-.42-2.08-.28-.51-.66-.91-1.15-1.18s-1.05-.45-1.69-.54c-.63-.08-1.31-.12-2.03-.12h-6.6v7.89h6.6ZM559.46,219.11c1.46,0,2.6-.39,3.43-1.18.82-.79,1.23-1.88,1.23-3.27,0-.81-.15-1.48-.45-2.02s-.7-.95-1.2-1.27c-.5-.31-1.07-.53-1.72-.66-.65-.13-1.32-.19-2.02-.19h-7.54v8.59h8.27Z"/>
      <path class="st3" d="M582.09,197.07l9.7,24.82h-3.65l-2.71-7.48h-10.5l-2.78,7.48h-3.37l9.67-24.82h3.65ZM584.39,211.63l-4.13-11.58h-.07l-4.21,11.58h8.41Z"/>
      <path class="st3" d="M588.39,199.85v-2.78h19.85v2.78h-8.27v22.04h-3.3v-22.04h-8.27Z"/>
      <path class="st3" d="M614.28,197.07v10.67h13.07v-10.67h3.3v24.82h-3.3v-11.37h-13.07v11.37h-3.3v-24.82h3.3Z"/>
      <path class="st3" d="M657.29,208.3v2.36h-7.58v7.61h-2.36v-7.61h-7.58v-2.36h7.58v-7.61h2.36v7.61h7.58Z"/>
      <path class="st3" d="M669.71,197.07v22.04h13.14v2.78h-16.44v-24.82h3.3Z"/>
      <path class="st3" d="M689.18,197.07v24.82h-3.3v-24.82h3.3Z"/>
      <path class="st3" d="M709.69,221.59c-1.44.57-2.89.85-4.35.85-1.85,0-3.51-.34-4.97-1.03-1.46-.69-2.7-1.61-3.72-2.76-1.02-1.16-1.8-2.49-2.33-4s-.8-3.07-.8-4.69c0-1.81.25-3.53.75-5.16.5-1.63,1.24-3.07,2.23-4.29.98-1.23,2.21-2.21,3.68-2.94,1.47-.73,3.19-1.09,5.16-1.09,1.34,0,2.61.16,3.81.47,1.19.31,2.26.8,3.2,1.48.94.67,1.73,1.52,2.37,2.56.63,1.03,1.07,2.27,1.3,3.73h-3.3c-.16-.95-.47-1.77-.9-2.45-.44-.69-.99-1.25-1.64-1.69-.65-.44-1.39-.77-2.21-.99s-1.7-.33-2.62-.33c-1.51,0-2.8.3-3.88.9-1.08.6-1.96,1.4-2.64,2.38-.69.99-1.19,2.11-1.51,3.37-.32,1.26-.49,2.55-.49,3.87s.19,2.55.56,3.74c.37,1.19.92,2.25,1.63,3.16.72.92,1.61,1.65,2.66,2.19,1.05.55,2.27.82,3.67.82,1.3,0,2.44-.21,3.44-.62.99-.42,1.84-.99,2.52-1.72s1.2-1.59,1.55-2.57c.35-.98.5-2.04.45-3.18h-7.93v-2.78h10.88v13.07h-2.08l-.87-3.09c-.97,1.3-2.18,2.23-3.62,2.8Z"/>
      <path class="st3" d="M724.43,197.07v10.67h13.07v-10.67h3.3v24.82h-3.3v-11.37h-13.07v11.37h-3.3v-24.82h3.3Z"/>
      <path class="st3" d="M743.58,199.85v-2.78h19.85v2.78h-8.28v22.04h-3.3v-22.04h-8.28Z"/>
    </g>
    <rect class="st3" x="517.53" y="163.35" width=".9" height="92.22"/>
  </g>
  <g>
    <g>
      <g>
        <path class="st4" d="M-683.19,157.89c2.73-1.32,10.61-4.96,14.12-6.54-.39,1.71-.79,3.43-1.2,5.13-.99,4.1-2.1,8.78-3.25,13.62-2.05,8.64-4.17,17.57-5.99,24.8-2.84,11.28-6.1,22.81-8.72,30.85-2.95,9.08-9.4,14.83-18.64,16.64-5.92,1.16-13.63,1.2-21.62,1.2,5.6-5.21,11.33-12.12,12.37-12.95.45-.03.91-.05,1.36-.08,3.05-.16,6.2-.33,9.11-2.02,2.85-1.66,5.24-4.72,6.05-8.04,2.06-8.49,4.94-19,7.52-29.16,2.44-9.61,4.96-19.55,6.93-27.62l1.35-5.55.62-.3"/>
        <path class="st4" d="M-424.41,160.41c-6.25-.26-14.37-.02-18.42.78-9.61,1.88-16.3,7.86-19.37,17.29-2.72,8.36-7.5,28.19-8.54,32.45-.43,1.77-.56,2.91-.97,4.69h13.64s5.32-22.88,7.46-31.7c.84-3.46,2.77-6.08,5.73-7.8,1.76-1.02,5.61-1.51,7.47-1.77l13-13.94Z"/>
        <path class="st4" d="M-580.64,162.42c-5.2-2.48-11.05-2.44-17.37.09-14.28,5.73-23.65,22.05-21.81,37.95.95,8.2,6.48,13.97,14.09,14.7,2.59.24,5.07.2,7.95.23l1.28-.06c.16-.06.25-.64.56-1.93.27-1.13,2.23-9.44,2.87-12.18l.41-1.78h-.02c-1.02.27-1.97.51-2.92.71-2.76.57-5.46.07-7.38-1.37-1.64-1.22-2.65-3.06-2.84-5.18-.62-6.82,1.82-12.3,7.05-15.87,3.47-2.36,7.44-2.51,10.89-.4,4.72,2.88,3.08,9,2.09,13.35-.77,3.37-1.54,6.73-2.34,10.1-.97,4.13-2.36,8.78-3.71,13.28-1.31,4.4-2.67,8.95-3.62,12.95l-3.17,13.33s14.5-8.6,15.2-9.03l.39-1.6c1.3-5.42,2.97-11.32,4.59-17.04,1.91-6.73,3.88-13.7,5.29-20.04.99-4.46,2.05-9.65,2.08-14.67.04-7.18-3.26-12.56-9.56-15.56"/>
        <path class="st4" d="M-623.78,177.09c-.46-5.12-2.26-9.03-5.51-11.92-.22-.19-.44-.38-.67-.56-3.41-2.72-7.15-4.08-11.32-4.08-2.94,0-6.08.67-9.46,2.02-13.51,5.37-22.59,19.94-22.08,35.42.19,5.64,2.16,10.28,5.71,13.43,3.15,2.79,7.03,3.97,12.02,4.11,0,0,0,0,0,.01,1.42.03,2.88.03,4.45.05l1.36-.06c.07-.03,3.87-16.06,3.87-16.06-.99.24-1.92.47-2.85.67-2.8.6-5.54.1-7.5-1.37-1.7-1.28-2.73-3.21-2.9-5.45-.46-6.24,1.7-11.38,6.24-14.85,1.59-1.21,3.77-2.07,5.98-2.36,2.61-.34,4.83.21,6.42,1.59,1.62,1.41,2.5,3.58,2.53,6.29.01,1.02-.08,2.11-.25,3.26-.11.71-.23,1.44-.41,2.2-.89,3.86-1.81,7.71-2.73,11.55-.38,1.57-.75,3.14-1.13,4.72l-1.85,8.51c-.09.38-.16.78-.23,1.19h12.93l5.47-23.66c.07-.3.14-.6.22-.9.93-3.89,1.83-7.88,1.78-11.91,0-.62-.04-1.24-.09-1.86"/>
        <path class="st4" d="M-470.33,177.09c-.46-5.12-2.26-9.03-5.51-11.92-.22-.19-.44-.38-.67-.56-3.4-2.72-7.15-4.08-11.32-4.08-2.94,0-6.08.67-9.46,2.02-13.51,5.37-22.59,19.94-22.08,35.42.19,5.64,2.16,10.28,5.71,13.43,3.15,2.79,7.03,3.97,12.02,4.11,0,0,0,0,0,.01,1.42.03,2.88.03,4.45.05l1.36-.06c.07-.03,3.87-16.06,3.87-16.06-.99.24-1.92.47-2.85.67-2.8.6-5.54.1-7.5-1.37-1.7-1.28-2.73-3.21-2.9-5.45-.46-6.24,1.7-11.38,6.24-14.85,1.59-1.21,3.77-2.07,5.98-2.36,2.61-.34,4.83.21,6.42,1.59,1.62,1.41,2.5,3.58,2.53,6.29.01,1.02-.08,2.11-.25,3.26-.11.71-.23,1.44-.41,2.2-.89,3.86-1.81,7.71-2.73,11.55-.38,1.57-.75,3.14-1.13,4.72l-1.85,8.51c-.09.38-.16.78-.23,1.19h12.93l5.47-23.66c.07-.3.14-.6.22-.9.93-3.89,1.83-7.88,1.78-11.91,0-.62-.04-1.24-.09-1.86"/>
        <path class="st4" d="M-520.26,161.07c-3.19,0-6.27.07-9.35.02h-.03s0,0,0,0c-.96-.01-1.01-.05-1.06.11-.03.11.02-.05-.21.92-2.38,10.03-4.82,20.94-6.98,29.78-1.06,4.33-3.43,7.27-7.07,8.74-2.75,1.12-5.55.83-7.49-.77-1.89-1.56-2.66-4.06-2.11-6.85,1.03-5.25,7.21-31.87,7.21-31.87h-13s-4.42,19.4-5.85,25.27c-1.2,4.93-2.3,9.44-1.94,14.21.34,4.5,1.95,8.11,4.79,10.74,5.38,4.99,11.89,5.84,19.89,2.59,3.29-1.33,6.19-3.16,8.71-5.46.28-.25.54-.52.81-.79.14-.14.28-.26.41-.4,3.19-3.29,5.68-7.43,7.46-12.4.22-.62.43-1.26.63-1.9,1.7-5.49,3.04-11.21,4.34-16.74.56-2.38,2.91-12.37,3.37-14.35l.22-.81-2.77-.03Z"/>
      </g>
      <g>
        <path class="st4" d="M-760.13,137.17c6.49-5.18,10.04-9.63,16.96-16.36-1.36,4.7-2.93,10.54-4.9,18.72-1.42,5.88-2.82,11.76-4.24,17.64-6.26,26.08-11.67,53.06-21.8,77.07-16.33,38.68-64.3,39.88-64.3,39.88,30.77-12.07,50.04-34.84,56.61-57.09,7.74-26.23,14.52-52.99,21.6-79.55l.07-.31"/>
        <path class="st4" d="M-769.46,143.92c-1.17,3.81-2.5,9.93-4.26,16.56-1.27,4.77-2.24,8.29-3.49,13.06-5.59,21.15-10.66,43.01-18.75,62.5-13.04,31.38-43.02,38.11-43.02,38.11,21.44-11.58,32.39-33.05,37.98-51.09,6.6-21.27,12.16-44.86,18.33-66.4l.06-.25c4.64-4.22,8.14-7,13.15-12.47Z"/>
      </g>
    </g>
    <g>
      <path class="st4" d="M-355.82,185.07c.53,0,1.11,0,1.72.02.61.01,1.22.05,1.83.1.6.06,1.16.15,1.68.26.52.12.97.29,1.34.52.81.49,1.5,1.16,2.07,2.02.57.86.85,1.91.85,3.16,0,1.32-.32,2.46-.96,3.42-.64.96-1.55,1.68-2.73,2.14v.07c1.53.32,2.7,1.02,3.51,2.08s1.22,2.36,1.22,3.89c0,.9-.16,1.79-.49,2.64-.32.86-.8,1.62-1.44,2.28-.64.66-1.43,1.19-2.37,1.6-.94.4-2.02.61-3.25.61h-11.99v-24.82h9ZM-354.91,195.74c1.88,0,3.23-.33,4.05-.99.82-.66,1.24-1.65,1.24-2.97,0-.88-.14-1.58-.42-2.08-.28-.51-.66-.91-1.15-1.18s-1.05-.45-1.69-.54c-.63-.08-1.31-.12-2.03-.12h-6.6v7.89h6.6ZM-353.24,207.11c1.46,0,2.6-.39,3.43-1.18.82-.79,1.23-1.88,1.23-3.27,0-.81-.15-1.48-.45-2.02s-.7-.95-1.2-1.27c-.5-.31-1.07-.53-1.72-.66-.65-.13-1.32-.19-2.02-.19h-7.54v8.59h8.27Z"/>
      <path class="st4" d="M-330.61,185.07l9.7,24.82h-3.65l-2.71-7.48h-10.5l-2.78,7.48h-3.37l9.67-24.82h3.65ZM-328.32,199.63l-4.13-11.58h-.07l-4.21,11.58h8.41Z"/>
      <path class="st4" d="M-324.32,187.85v-2.78h19.85v2.78h-8.27v22.04h-3.3v-22.04h-8.27Z"/>
      <path class="st4" d="M-298.42,185.07v10.67h13.07v-10.67h3.3v24.82h-3.3v-11.37h-13.07v11.37h-3.3v-24.82h3.3Z"/>
      <path class="st4" d="M-255.41,196.3v2.36h-7.58v7.61h-2.36v-7.61h-7.58v-2.36h7.58v-7.61h2.36v7.61h7.58Z"/>
      <path class="st4" d="M-242.99,185.07v22.04h13.14v2.78h-16.44v-24.82h3.3Z"/>
      <path class="st4" d="M-223.53,185.07v24.82h-3.3v-24.82h3.3Z"/>
      <path class="st4" d="M-203.02,209.59c-1.44.57-2.89.85-4.35.85-1.85,0-3.51-.34-4.97-1.03-1.46-.69-2.7-1.61-3.72-2.76-1.02-1.16-1.8-2.49-2.33-4s-.8-3.07-.8-4.69c0-1.81.25-3.53.75-5.16.5-1.63,1.24-3.07,2.23-4.29.98-1.23,2.21-2.21,3.68-2.94,1.47-.73,3.19-1.09,5.16-1.09,1.34,0,2.61.16,3.81.47,1.19.31,2.26.8,3.2,1.48.94.67,1.73,1.52,2.37,2.56.63,1.03,1.07,2.27,1.3,3.73h-3.3c-.16-.95-.47-1.77-.9-2.45-.44-.69-.99-1.25-1.64-1.69-.65-.44-1.39-.77-2.21-.99-.82-.22-1.7-.33-2.62-.33-1.51,0-2.8.3-3.88.9-1.08.6-1.96,1.4-2.64,2.38-.69.99-1.19,2.11-1.51,3.37-.32,1.26-.49,2.55-.49,3.87s.19,2.55.56,3.74c.37,1.19.92,2.25,1.63,3.16.72.92,1.61,1.65,2.66,2.19,1.05.55,2.27.82,3.67.82,1.3,0,2.44-.21,3.44-.62.99-.42,1.84-.99,2.52-1.72s1.2-1.59,1.55-2.57c.35-.98.5-2.04.45-3.18h-7.93v-2.78h10.88v13.07h-2.08l-.87-3.09c-.97,1.3-2.18,2.23-3.62,2.8Z"/>
      <path class="st4" d="M-188.27,185.07v10.67h13.07v-10.67h3.3v24.82h-3.3v-11.37h-13.07v11.37h-3.3v-24.82h3.3Z"/>
      <path class="st4" d="M-169.12,187.85v-2.78h19.85v2.78h-8.28v22.04h-3.3v-22.04h-8.28Z"/>
    </g>
    <rect class="st4" x="-395.18" y="151.35" width=".9" height="92.22"/>
  </g>
  <rect class="st5" x="-873.79" y="604.73" width="720" height="576"/>
  <g>
    <path class="st5" d="M-1583.18,1161.91c.05.33-.11.5-.43.52,0,0,.06.05.06.05-.02-.31.15-.46.43-.52,0,0-.06-.06-.06-.06Z"/>
    <path class="st5" d="M-1583.92,1163.21c.06-.27.07-.57.37-.72,0,0-.06-.05-.06-.06-.13.27-.27.55-.4.82l.09-.05Z"/>
    <path class="st5" d="M-1584.02,1163.26c0-.06.02-.11.03-.17-.17.06-.15.09.07.11,0,0-.09.06-.09.06Z"/>
  </g>
  <g>
    <g>
      <g>
        <path class="st5" d="M291.97,941.42c3.36-1.62,13.05-6.11,17.37-8.05-.49,2.11-.97,4.22-1.48,6.32-1.22,5.05-2.59,10.81-4,16.76-2.52,10.63-5.13,21.62-7.38,30.52-3.5,13.88-7.51,28.07-10.73,37.97-3.63,11.17-11.56,18.26-22.94,20.48-7.29,1.43-16.77,1.48-26.6,1.48,6.9-6.41,13.94-14.92,15.22-15.93.56-.03,1.12-.07,1.67-.1,3.75-.2,7.63-.4,11.21-2.48,3.51-2.04,6.45-5.8,7.44-9.89,2.54-10.44,6.08-23.38,9.25-35.89,3-11.83,6.11-24.06,8.53-33.99l1.66-6.83.77-.37"/>
        <path class="st5" d="M610.43,944.52c-7.7-.32-17.68-.02-22.67.96-11.82,2.31-20.06,9.67-23.84,21.28-3.34,10.28-9.23,34.69-10.5,39.94-.53,2.18-.69,3.58-1.2,5.77h16.79s6.55-28.16,9.18-39.01c1.03-4.25,3.4-7.48,7.05-9.6,2.16-1.26,6.9-1.85,9.19-2.17l16-17.15Z"/>
        <path class="st5" d="M418.18,947c-6.4-3.05-13.6-3.01-21.37.12-17.57,7.05-29.11,27.13-26.84,46.7,1.17,10.1,7.97,17.19,17.34,18.09,3.19.3,6.24.24,9.79.29l1.57-.08c.19-.07.3-.79.69-2.37.33-1.39,2.75-11.62,3.53-14.98l.51-2.19h-.03c-1.26.33-2.42.63-3.59.87-3.4.7-6.71.08-9.09-1.68-2.02-1.5-3.26-3.76-3.5-6.37-.76-8.39,2.24-15.14,8.68-19.53,4.27-2.91,9.15-3.08,13.4-.49,5.8,3.54,3.8,11.07,2.57,16.43-.95,4.14-1.9,8.29-2.87,12.43-1.2,5.08-2.91,10.8-4.56,16.34-1.62,5.41-3.29,11.01-4.46,15.94l-3.9,16.41s17.84-10.58,18.71-11.11l.47-1.97c1.59-6.67,3.65-13.94,5.65-20.96,2.35-8.29,4.78-16.86,6.51-24.66,1.22-5.49,2.53-11.87,2.56-18.05.05-8.84-4.02-15.46-11.76-19.15"/>
        <path class="st5" d="M365.08,965.05c-.56-6.3-2.78-11.11-6.78-14.67-.27-.24-.54-.47-.82-.69-4.19-3.35-8.8-5.02-13.93-5.02-3.61,0-7.48.83-11.64,2.49-16.62,6.61-27.8,24.54-27.18,43.59.23,6.94,2.66,12.65,7.02,16.53,3.87,3.44,8.65,4.89,14.79,5.06,0,0,0,.01,0,.02,1.75.04,3.54.04,5.48.06l1.67-.08c.09-.03,4.77-19.76,4.77-19.76-1.22.3-2.36.58-3.51.83-3.45.74-6.82.13-9.23-1.68-2.1-1.57-3.36-3.95-3.57-6.7-.57-7.68,2.09-14,7.68-18.27,1.95-1.49,4.63-2.55,7.36-2.91,3.21-.42,5.94.25,7.91,1.95,2,1.73,3.08,4.41,3.12,7.74.02,1.25-.1,2.6-.3,4.01-.13.88-.29,1.78-.5,2.71-1.1,4.75-2.23,9.48-3.36,14.22-.46,1.93-.92,3.87-1.39,5.8l-2.28,10.48c-.11.47-.2.96-.28,1.46h15.91l6.73-29.12c.09-.37.18-.73.27-1.1,1.15-4.78,2.25-9.69,2.19-14.65,0-.76-.05-1.53-.11-2.29"/>
        <path class="st5" d="M553.93,965.05c-.56-6.3-2.78-11.11-6.78-14.67-.27-.24-.54-.47-.82-.69-4.19-3.35-8.8-5.02-13.93-5.02-3.61,0-7.48.83-11.65,2.49-16.62,6.61-27.8,24.54-27.17,43.59.23,6.94,2.66,12.65,7.02,16.53,3.87,3.44,8.65,4.89,14.79,5.06,0,0,0,.01-.01.02,1.75.04,3.54.04,5.48.06l1.67-.08c.09-.03,4.77-19.76,4.77-19.76-1.22.3-2.36.58-3.51.83-3.45.74-6.81.13-9.23-1.68-2.1-1.57-3.36-3.95-3.57-6.7-.57-7.68,2.09-14,7.68-18.27,1.95-1.49,4.63-2.55,7.36-2.91,3.21-.42,5.94.25,7.91,1.95,2,1.73,3.08,4.41,3.12,7.74.02,1.25-.09,2.6-.3,4.01-.13.88-.29,1.78-.5,2.71-1.1,4.75-2.23,9.48-3.36,14.22-.46,1.93-.93,3.87-1.39,5.8l-2.28,10.48c-.11.47-.2.96-.28,1.46h15.91l6.73-29.12c.09-.37.18-.73.27-1.1,1.15-4.78,2.25-9.69,2.19-14.65,0-.76-.05-1.53-.11-2.29"/>
        <path class="st5" d="M492.47,945.34c-3.92.01-7.72.09-11.51.03h-.04s0,0,0,0c-1.18-.02-1.25-.07-1.3.14-.04.13.03-.06-.26,1.13-2.93,12.34-5.93,25.77-8.59,36.65-1.3,5.33-4.23,8.95-8.7,10.76-3.38,1.37-6.83,1.02-9.21-.95-2.33-1.92-3.27-4.99-2.6-8.43,1.27-6.47,8.87-39.22,8.87-39.22h-16s-5.44,23.88-7.2,31.1c-1.48,6.07-2.83,11.62-2.38,17.49.42,5.53,2.4,9.98,5.9,13.22,6.62,6.15,14.63,7.19,24.47,3.19,4.04-1.64,7.62-3.89,10.72-6.72.34-.31.67-.65,1-.97.17-.17.35-.32.51-.5,3.92-4.05,6.99-9.15,9.18-15.26.27-.76.53-1.54.78-2.34,2.09-6.76,3.74-13.8,5.34-20.61.69-2.93,3.58-15.23,4.15-17.66l.27-1-3.41-.03Z"/>
      </g>
      <g>
        <path class="st5" d="M461.41,708.38c7.98-6.37,12.36-11.85,20.87-20.13-1.68,5.78-3.61,12.98-6.03,23.04-1.75,7.23-3.47,14.47-5.21,21.71-7.7,32.1-14.36,65.3-26.83,94.84-20.09,47.6-79.13,49.08-79.13,49.08,37.87-14.86,61.58-42.88,69.66-70.25,9.53-32.28,17.87-65.21,26.58-97.9l.09-.38"/>
        <path class="st5" d="M449.93,716.7c-1.44,4.69-3.07,12.22-5.24,20.38-1.56,5.87-2.75,10.2-4.3,16.07-6.88,26.02-13.12,52.94-23.08,76.91-16.04,38.62-52.95,46.89-52.95,46.89,26.38-14.25,39.86-40.67,46.74-62.87,8.12-26.18,14.97-55.21,22.56-81.72l.08-.31c5.71-5.19,10.02-8.62,16.18-15.35Z"/>
      </g>
    </g>
    <g>
      <path class="st3" d="M324.14,1071.73c.54,0,1.11,0,1.73.02.62.01,1.23.05,1.83.1.6.06,1.17.15,1.69.26.52.12.97.29,1.34.52.81.49,1.51,1.16,2.08,2.02.57.86.86,1.92.86,3.18,0,1.33-.32,2.47-.96,3.44-.64.97-1.55,1.68-2.74,2.15v.07c1.54.32,2.71,1.02,3.52,2.09.81,1.07,1.22,2.37,1.22,3.91,0,.91-.16,1.79-.49,2.65-.32.86-.81,1.62-1.45,2.29-.64.66-1.43,1.2-2.38,1.61-.94.41-2.03.61-3.26.61h-12.04v-24.92h9.04ZM325.05,1082.45c1.89,0,3.24-.33,4.07-1,.83-.66,1.24-1.66,1.24-2.98,0-.88-.14-1.58-.42-2.09-.28-.51-.66-.91-1.15-1.19s-1.05-.46-1.69-.54c-.64-.08-1.32-.12-2.04-.12h-6.63v7.92h6.63ZM326.73,1093.86c1.47,0,2.61-.4,3.44-1.19.82-.79,1.24-1.89,1.24-3.28,0-.81-.15-1.49-.45-2.02-.3-.54-.71-.96-1.2-1.27-.5-.31-1.08-.54-1.73-.66-.65-.13-1.33-.19-2.02-.19h-7.57v8.62h8.31Z"/>
      <path class="st3" d="M349.45,1071.73l9.74,24.92h-3.66l-2.72-7.51h-10.54l-2.79,7.51h-3.39l9.7-24.92h3.66ZM351.76,1086.36l-4.15-11.62h-.07l-4.22,11.62h8.45Z"/>
      <path class="st3" d="M355.77,1074.52v-2.79h19.93v2.79h-8.31v22.13h-3.32v-22.13h-8.31Z"/>
      <path class="st3" d="M381.77,1071.73v10.71h13.13v-10.71h3.31v24.92h-3.31v-11.41h-13.13v11.41h-3.32v-24.92h3.32Z"/>
      <path class="st3" d="M424.96,1083.01v2.37h-7.61v7.65h-2.37v-7.65h-7.61v-2.37h7.61v-7.64h2.37v7.64h7.61Z"/>
      <path class="st3" d="M437.43,1071.73v22.13h13.19v2.79h-16.51v-24.92h3.32Z"/>
      <path class="st3" d="M456.97,1071.73v24.92h-3.31v-24.92h3.31Z"/>
      <path class="st3" d="M477.57,1096.36c-1.44.57-2.9.86-4.36.86-1.86,0-3.52-.34-4.99-1.03-1.47-.69-2.71-1.61-3.74-2.77-1.03-1.17-1.8-2.5-2.34-4.02-.54-1.51-.8-3.08-.8-4.71,0-1.82.25-3.55.75-5.18.5-1.64,1.25-3.08,2.24-4.31.99-1.23,2.22-2.22,3.7-2.95,1.48-.73,3.21-1.1,5.18-1.1,1.35,0,2.62.16,3.82.47,1.2.31,2.27.81,3.21,1.48.94.67,1.74,1.53,2.38,2.57.64,1.03,1.07,2.28,1.31,3.75h-3.32c-.16-.95-.47-1.77-.91-2.46-.44-.69-.99-1.25-1.64-1.69-.65-.44-1.39-.77-2.22-1s-1.7-.33-2.63-.33c-1.51,0-2.81.3-3.89.91-1.08.61-1.97,1.4-2.65,2.39-.69.99-1.19,2.12-1.52,3.39-.32,1.27-.49,2.56-.49,3.89s.19,2.56.56,3.75c.37,1.2.92,2.26,1.64,3.18.72.92,1.61,1.65,2.67,2.2,1.06.55,2.28.82,3.68.82,1.3,0,2.45-.21,3.46-.63,1-.42,1.84-1,2.53-1.73.69-.73,1.2-1.6,1.55-2.58.35-.99.5-2.05.45-3.19h-7.96v-2.79h10.93v13.12h-2.09l-.87-3.11c-.98,1.3-2.19,2.24-3.63,2.81Z"/>
      <path class="st3" d="M492.37,1071.73v10.71h13.12v-10.71h3.32v24.92h-3.32v-11.41h-13.12v11.41h-3.32v-24.92h3.32Z"/>
      <path class="st3" d="M511.6,1074.52v-2.79h19.93v2.79h-8.31v22.13h-3.31v-22.13h-8.31Z"/>
    </g>
  </g>
  <g>
    <g>
      <g>
        <path class="st4" d="M-645.13,941.42c3.36-1.62,13.05-6.11,17.37-8.05-.49,2.11-.97,4.22-1.48,6.32-1.22,5.05-2.59,10.81-4,16.76-2.52,10.63-5.13,21.62-7.38,30.52-3.5,13.88-7.51,28.07-10.73,37.97-3.63,11.17-11.56,18.26-22.94,20.48-7.29,1.43-16.77,1.48-26.6,1.48,6.9-6.41,13.94-14.92,15.22-15.93.56-.03,1.12-.07,1.67-.1,3.75-.2,7.63-.4,11.21-2.48,3.51-2.04,6.45-5.8,7.44-9.89,2.54-10.44,6.08-23.38,9.25-35.89,3-11.83,6.11-24.06,8.53-33.99l1.66-6.83.77-.37"/>
        <path class="st4" d="M-326.67,944.52c-7.7-.32-17.68-.02-22.67.96-11.82,2.31-20.06,9.67-23.84,21.28-3.34,10.28-9.23,34.69-10.5,39.94-.53,2.18-.69,3.58-1.2,5.77h16.79s6.55-28.16,9.18-39.01c1.03-4.25,3.4-7.48,7.05-9.6,2.16-1.26,6.9-1.85,9.19-2.17l16-17.15Z"/>
        <path class="st4" d="M-518.93,947c-6.4-3.05-13.6-3.01-21.37.12-17.57,7.05-29.11,27.13-26.84,46.7,1.17,10.1,7.97,17.19,17.34,18.09,3.19.3,6.24.24,9.79.29l1.57-.08c.19-.07.3-.79.69-2.37.33-1.39,2.75-11.62,3.53-14.98l.51-2.19h-.03c-1.26.33-2.42.63-3.59.87-3.4.7-6.71.08-9.09-1.68-2.02-1.5-3.26-3.76-3.5-6.37-.76-8.39,2.24-15.14,8.68-19.53,4.27-2.91,9.15-3.08,13.4-.49,5.8,3.54,3.8,11.07,2.57,16.43-.95,4.14-1.9,8.29-2.87,12.43-1.2,5.08-2.91,10.8-4.56,16.34-1.62,5.41-3.29,11.01-4.46,15.94l-3.9,16.41s17.84-10.58,18.71-11.11l.47-1.97c1.59-6.67,3.65-13.94,5.65-20.96,2.35-8.29,4.78-16.86,6.51-24.66,1.22-5.49,2.53-11.87,2.56-18.05.05-8.84-4.02-15.46-11.76-19.15"/>
        <path class="st4" d="M-572.02,965.05c-.56-6.3-2.78-11.11-6.78-14.67-.27-.24-.54-.47-.82-.69-4.19-3.35-8.8-5.02-13.93-5.02-3.61,0-7.48.83-11.64,2.49-16.62,6.61-27.8,24.54-27.18,43.59.23,6.94,2.66,12.65,7.02,16.53,3.87,3.44,8.65,4.89,14.79,5.06,0,0,0,.01,0,.02,1.75.04,3.54.04,5.48.06l1.67-.08c.09-.03,4.77-19.76,4.77-19.76-1.22.3-2.36.58-3.51.83-3.45.74-6.82.13-9.23-1.68-2.1-1.57-3.36-3.95-3.57-6.7-.57-7.68,2.09-14,7.68-18.27,1.95-1.49,4.63-2.55,7.36-2.91,3.21-.42,5.94.25,7.91,1.95,2,1.73,3.08,4.41,3.12,7.74.02,1.25-.1,2.6-.3,4.01-.13.88-.29,1.78-.5,2.71-1.1,4.75-2.23,9.48-3.36,14.22-.46,1.93-.92,3.87-1.39,5.8l-2.28,10.48c-.11.47-.2.96-.28,1.46h15.91l6.73-29.12c.09-.37.18-.73.27-1.1,1.15-4.78,2.25-9.69,2.19-14.65,0-.76-.05-1.53-.11-2.29"/>
        <path class="st4" d="M-383.18,965.05c-.56-6.3-2.78-11.11-6.78-14.67-.27-.24-.54-.47-.82-.69-4.19-3.35-8.8-5.02-13.93-5.02-3.61,0-7.48.83-11.65,2.49-16.62,6.61-27.8,24.54-27.17,43.59.23,6.94,2.66,12.65,7.02,16.53,3.87,3.44,8.65,4.89,14.79,5.06,0,0,0,.01-.01.02,1.75.04,3.54.04,5.48.06l1.67-.08c.09-.03,4.77-19.76,4.77-19.76-1.22.3-2.36.58-3.51.83-3.45.74-6.81.13-9.23-1.68-2.1-1.57-3.36-3.95-3.57-6.7-.57-7.68,2.09-14,7.68-18.27,1.95-1.49,4.63-2.55,7.36-2.91,3.21-.42,5.94.25,7.91,1.95,2,1.73,3.08,4.41,3.12,7.74.02,1.25-.09,2.6-.3,4.01-.13.88-.29,1.78-.5,2.71-1.1,4.75-2.23,9.48-3.36,14.22-.46,1.93-.93,3.87-1.39,5.8l-2.28,10.48c-.11.47-.2.96-.28,1.46h15.91l6.73-29.12c.09-.37.18-.73.27-1.1,1.15-4.78,2.25-9.69,2.19-14.65,0-.76-.05-1.53-.11-2.29"/>
        <path class="st4" d="M-444.63,945.34c-3.92.01-7.72.09-11.51.03h-.04s0,0,0,0c-1.18-.02-1.25-.07-1.3.14-.04.13.03-.06-.26,1.13-2.93,12.34-5.93,25.77-8.59,36.65-1.3,5.33-4.23,8.95-8.7,10.76-3.38,1.37-6.83,1.02-9.21-.95-2.33-1.92-3.27-4.99-2.6-8.43,1.27-6.47,8.87-39.22,8.87-39.22h-16s-5.44,23.88-7.2,31.1c-1.48,6.07-2.83,11.62-2.38,17.49.42,5.53,2.4,9.98,5.9,13.22,6.62,6.15,14.63,7.19,24.47,3.19,4.04-1.64,7.62-3.89,10.72-6.72.34-.31.67-.65,1-.97.17-.17.35-.32.51-.5,3.92-4.05,6.99-9.15,9.18-15.26.27-.76.53-1.54.78-2.34,2.09-6.76,3.74-13.8,5.34-20.61.69-2.93,3.58-15.23,4.15-17.66l.27-1-3.41-.03Z"/>
      </g>
      <g>
        <path class="st4" d="M-475.69,708.38c7.98-6.37,12.36-11.85,20.87-20.13-1.68,5.78-3.61,12.98-6.03,23.04-1.75,7.23-3.47,14.47-5.21,21.71-7.7,32.1-14.36,65.3-26.83,94.84-20.09,47.6-79.13,49.08-79.13,49.08,37.87-14.86,61.58-42.88,69.66-70.25,9.53-32.28,17.87-65.21,26.58-97.9l.09-.38"/>
        <path class="st4" d="M-487.18,716.7c-1.44,4.69-3.07,12.22-5.24,20.38-1.56,5.87-2.75,10.2-4.3,16.07-6.88,26.02-13.12,52.94-23.08,76.91-16.04,38.62-52.95,46.89-52.95,46.89,26.38-14.25,39.86-40.67,46.74-62.87,8.12-26.18,14.97-55.21,22.56-81.72l.08-.31c5.71-5.19,10.02-8.62,16.18-15.35Z"/>
      </g>
    </g>
    <g>
      <path class="st4" d="M-612.96,1071.73c.54,0,1.11,0,1.73.02.62.01,1.23.05,1.83.1.6.06,1.17.15,1.69.26.52.12.97.29,1.34.52.81.49,1.51,1.16,2.08,2.02.57.86.86,1.92.86,3.18,0,1.33-.32,2.47-.96,3.44-.64.97-1.55,1.68-2.74,2.15v.07c1.54.32,2.71,1.02,3.52,2.09.81,1.07,1.22,2.37,1.22,3.91,0,.91-.16,1.79-.49,2.65-.32.86-.81,1.62-1.45,2.29-.64.66-1.43,1.2-2.38,1.61-.94.41-2.03.61-3.26.61h-12.04v-24.92h9.04ZM-612.06,1082.45c1.89,0,3.24-.33,4.07-1,.83-.66,1.24-1.66,1.24-2.98,0-.88-.14-1.58-.42-2.09-.28-.51-.66-.91-1.15-1.19s-1.05-.46-1.69-.54c-.64-.08-1.32-.12-2.04-.12h-6.63v7.92h6.63ZM-610.38,1093.86c1.47,0,2.61-.4,3.44-1.19.82-.79,1.24-1.89,1.24-3.28,0-.81-.15-1.49-.45-2.02-.3-.54-.71-.96-1.2-1.27-.5-.31-1.08-.54-1.73-.66-.65-.13-1.33-.19-2.02-.19h-7.57v8.62h8.31Z"/>
      <path class="st4" d="M-587.66,1071.73l9.74,24.92h-3.66l-2.72-7.51h-10.54l-2.79,7.51h-3.39l9.7-24.92h3.66ZM-585.35,1086.36l-4.15-11.62h-.07l-4.22,11.62h8.45Z"/>
      <path class="st4" d="M-581.34,1074.52v-2.79h19.93v2.79h-8.31v22.13h-3.32v-22.13h-8.31Z"/>
      <path class="st4" d="M-555.33,1071.73v10.71h13.13v-10.71h3.31v24.92h-3.31v-11.41h-13.13v11.41h-3.32v-24.92h3.32Z"/>
      <path class="st4" d="M-512.15,1083.01v2.37h-7.61v7.65h-2.37v-7.65h-7.61v-2.37h7.61v-7.64h2.37v7.64h7.61Z"/>
      <path class="st4" d="M-499.67,1071.73v22.13h13.19v2.79h-16.51v-24.92h3.32Z"/>
      <path class="st4" d="M-480.13,1071.73v24.92h-3.31v-24.92h3.31Z"/>
      <path class="st4" d="M-459.54,1096.36c-1.44.57-2.9.86-4.36.86-1.86,0-3.52-.34-4.99-1.03-1.47-.69-2.71-1.61-3.74-2.77-1.03-1.17-1.8-2.5-2.34-4.02-.54-1.51-.8-3.08-.8-4.71,0-1.82.25-3.55.75-5.18.5-1.64,1.25-3.08,2.24-4.31.99-1.23,2.22-2.22,3.7-2.95,1.48-.73,3.21-1.1,5.18-1.1,1.35,0,2.62.16,3.82.47,1.2.31,2.27.81,3.21,1.48.94.67,1.74,1.53,2.38,2.57.64,1.03,1.07,2.28,1.31,3.75h-3.32c-.16-.95-.47-1.77-.91-2.46-.44-.69-.99-1.25-1.64-1.69-.65-.44-1.39-.77-2.22-1s-1.7-.33-2.63-.33c-1.51,0-2.81.3-3.89.91-1.08.61-1.97,1.4-2.65,2.39-.69.99-1.19,2.12-1.52,3.39-.32,1.27-.49,2.56-.49,3.89s.19,2.56.56,3.75c.37,1.2.92,2.26,1.64,3.18.72.92,1.61,1.65,2.67,2.2,1.06.55,2.28.82,3.68.82,1.3,0,2.45-.21,3.46-.63,1-.42,1.84-1,2.53-1.73.69-.73,1.2-1.6,1.55-2.58.35-.99.5-2.05.45-3.19h-7.96v-2.79h10.93v13.12h-2.09l-.87-3.11c-.98,1.3-2.19,2.24-3.63,2.81Z"/>
      <path class="st4" d="M-444.74,1071.73v10.71h13.12v-10.71h3.32v24.92h-3.32v-11.41h-13.12v11.41h-3.32v-24.92h3.32Z"/>
      <path class="st4" d="M-425.5,1074.52v-2.79h19.93v2.79h-8.31v22.13h-3.31v-22.13h-8.31Z"/>
    </g>
  </g>
  <path class="st2" d="M-521.76-221.26c3.22,0,3.22-5,0-5s-3.22,5,0,5h0Z"/>
</svg>