<svg width="35" height="35" viewBox="0 0 35 35" fill="none" xmlns="http://www.w3.org/2000/svg">
<circle cx="17.2062" cy="17.2052" r="15" transform="rotate(90.7996 17.2062 17.2052)" fill="#54DED3"/>
<path d="M22.7806 22.9408L23.7805 22.9548L23.7665 23.9547L22.7666 23.9407L22.7806 22.9408ZM11.6061 12.8844C11.2211 12.4885 11.2299 11.8554 11.6259 11.4703C12.0218 11.0853 12.6549 11.0941 13.04 11.4901L11.6061 12.8844ZM23.8989 14.4703L23.7805 22.9548L21.7807 22.9269L21.8991 14.4424L23.8989 14.4703ZM22.7666 23.9407L14.2822 23.8223L14.3101 21.8225L22.7945 21.9409L22.7666 23.9407ZM22.0637 23.638L11.6061 12.8844L13.04 11.4901L23.4975 22.2437L22.0637 23.638Z" fill="black"/>
</svg>
