<svg width="52" height="58" viewBox="0 0 52 58" fill="none" xmlns="http://www.w3.org/2000/svg">
<path d="M51.1747 30.2613C48.5361 30.8049 47.4944 31.4821 46.562 33.8808C46.2004 34.8111 46.0747 35.8136 46.0747 36.8117C46.0747 37.8046 46.0747 39.101 46.0747 40.0991M46.0747 40.0991C46.7395 38.2739 42.852 35.3299 40.9747 35.3063H10.3747C7.92088 35.5883 6.76153 36.1192 5.27474 38.3333M46.0747 40.0991C46.0747 42.7461 43.9289 44.8919 41.282 44.8919H25.6747M5.27474 38.3333V37.4061C5.27474 36.0213 5.0225 34.6351 4.42837 33.3842C3.61436 31.6704 2.77934 30.7235 0.174744 30.2613M5.27474 38.3333C5.27474 41.9555 8.21111 44.8919 11.8333 44.8919H25.6747M25.6747 44.8919V57M25.6747 57H38.1414M25.6747 57H13.2081M10.9414 30.2613C12.936 30.2663 34.1103 30.2627 40.0184 30.2616C41.0378 30.2614 42.3365 30.2725 42.658 29.3051C42.8287 28.7915 42.8294 28.0037 42.6747 26.7297L38.2981 3.83752C38.1938 3.29213 38.0723 2.74099 37.7974 2.25849C37.2873 1.36273 36.6059 1.09326 35.3081 1H16.1895C15.7136 1 15.2322 1.01206 14.7739 1.14044C13.8483 1.39973 13.5427 1.89277 13.2081 3.01802L8.67474 26.7297C8.08237 29.0689 8.6209 30.2554 10.9414 30.2613Z" stroke="black" stroke-width="2"/>
</svg>
