<svg width="150" height="150" viewBox="0 0 150 150" fill="none" xmlns="http://www.w3.org/2000/svg">
<path d="M27.4416 37.934C27.0119 38.1293 26.426 38.5394 26.133 38.8519C24.9612 40.1019 25.0002 39.4769 25.0002 55.8831C25.0002 72.9728 24.9416 72.3478 26.6604 75.7658C28.4768 79.3791 32.2854 82.5431 35.9572 83.4806C36.4846 83.6173 36.9142 83.8126 36.9142 83.9103C36.9142 84.0275 35.4689 89.5548 33.6916 96.2149C31.9143 102.875 30.469 108.695 30.469 109.145C30.469 109.77 30.5861 110.063 31.0158 110.473L31.5627 111H74.9805H118.398L118.965 110.434C119.375 110.023 119.531 109.672 119.531 109.203C119.531 108.832 118.086 103.09 116.308 96.4102C114.531 89.7306 113.086 84.1642 113.086 84.0079C113.086 83.8322 113.457 83.6369 114.043 83.4806C117.715 82.5431 121.504 79.3986 123.32 75.8049C125.058 72.3283 125 72.9924 125 55.8831C125 39.4769 125.039 40.1019 123.867 38.8519C122.226 37.1136 118.965 37.1332 117.324 38.8714C116.972 39.2425 115.937 41.4691 114.453 45.0628C111.172 52.9729 110.683 53.7737 108.398 55.3167C106.621 56.4885 105.39 56.8792 102.246 57.1917C98.2421 57.5823 96.0155 58.4417 93.5155 60.512C91.8359 61.8791 90.8202 63.2659 88.4374 67.5041C86.1523 71.5275 85 72.8947 82.7148 74.2228C80.4883 75.5314 79.6875 76.7424 79.6875 78.7931C79.6875 80.59 80.0195 81.4689 81.1523 82.5822C82.4023 83.8517 83.1054 84.047 86.2109 84.047C88.0468 84.047 88.6718 84.1056 88.6523 84.2814C88.6523 84.4181 87.3046 89.5353 85.6835 95.668L82.7148 106.801L79.8242 106.859L76.9531 106.918V104.633C76.9531 102.406 76.9531 102.367 76.3867 101.801C75.2344 100.668 73.2813 101.234 72.9688 102.816C72.9102 103.168 72.8516 104.203 72.8516 105.16V106.898H70.0586H67.2657L64.2383 95.4727L61.211 84.047H63.7305C66.6602 84.047 67.461 83.8517 68.5742 82.8947C70.7031 81.0978 70.9375 77.5236 69.0625 75.4924C68.8477 75.2385 68.0469 74.6721 67.2852 74.2228C65 72.8947 63.8477 71.5275 61.5626 67.5041C59.1798 63.2659 58.1641 61.8791 56.4845 60.512C53.9845 58.4417 51.7579 57.5823 47.754 57.1917C44.6095 56.8792 43.3791 56.4885 41.6017 55.3167C39.3166 53.7737 38.7892 52.9143 35.5275 45.0238C34.0432 41.43 33.0275 39.2621 32.676 38.8714C31.8752 38.0121 30.7619 37.5629 29.3947 37.5629C28.6721 37.5629 27.9299 37.6996 27.4416 37.934ZM30.2346 43.0706C34.9025 54.3401 34.7072 53.9104 36.0744 55.7268C38.3986 58.8128 42.8517 61.1565 46.4845 61.1956C50.2931 61.2346 53.6134 62.8362 55.5274 65.5315C55.9962 66.2151 57.0313 67.8947 57.8126 69.301C60.6055 74.2619 62.0704 75.9806 64.9024 77.6213C66.0157 78.2853 66.211 78.4806 66.211 78.9298C66.211 79.2423 66.1133 79.5744 65.9766 79.7111C65.8008 79.8869 62.461 79.9455 52.129 79.9455H38.4963L36.9728 79.4572C33.3596 78.3048 30.4885 75.3361 29.3557 71.5471C29.0823 70.6096 29.0237 68.7736 28.9651 56.5276C28.9065 48.8519 28.926 42.3675 29.0041 42.1136C29.1994 41.2933 29.6291 41.6253 30.2346 43.0706ZM120.996 42.1136C121.074 42.3675 121.094 48.8519 121.035 56.5276C120.976 68.7736 120.918 70.6096 120.644 71.5471C119.512 75.3361 116.64 78.3048 113.027 79.4572L111.504 79.9455H97.871C87.539 79.9455 84.1992 79.8869 84.0234 79.7111C83.8867 79.5744 83.789 79.2423 83.789 78.9298C83.789 78.4806 83.9843 78.2853 85 77.6994C85.664 77.3088 86.4257 76.8205 86.6796 76.6056C87.1288 76.2541 87.5781 76.2345 94.4335 76.2345H101.699L102.226 75.7267C102.637 75.3166 102.734 75.0236 102.734 74.2814C102.734 73.5392 102.637 73.2463 102.226 72.8361L101.699 72.3283H96.0741H90.4491L92.2069 69.2424C93.1835 67.5627 94.3163 65.7268 94.7265 65.1799C96.5624 62.7385 99.9022 61.2346 103.515 61.1956C107.148 61.1565 111.601 58.8128 113.926 55.7268C115.293 53.9104 115.097 54.3401 119.765 43.0706C120.371 41.6253 120.801 41.2933 120.996 42.1136ZM43.5353 86.1368C43.2228 87.3087 41.8556 92.4454 40.4884 97.5626L38.0275 106.898H36.5822C35.2932 106.898 35.1369 106.859 35.2346 106.547C35.2736 106.371 36.5627 101.508 38.0861 95.7657C39.6095 90.0235 40.9377 85.0236 41.0353 84.672L41.2502 84.047H42.6759H44.1017L43.5353 86.1368ZM49.9611 84.7697C50.0782 85.1798 51.4064 90.1993 52.9298 95.9415C54.4532 101.684 55.7423 106.488 55.8009 106.645C55.879 106.859 54.6876 106.898 49.1407 106.898C45.4298 106.898 42.383 106.84 42.383 106.742C42.383 106.664 43.7111 101.527 45.3517 95.336L48.34 84.047H49.0431C49.6876 84.047 49.7657 84.1056 49.9611 84.7697ZM59.9219 95.336C61.5626 101.527 62.9102 106.684 62.8907 106.762C62.8907 106.84 62.2657 106.898 61.4844 106.859L60.0782 106.801L57.0899 95.5704C55.4493 89.3985 54.1017 84.2814 54.1017 84.1837C54.1017 84.1056 54.7462 84.047 55.5274 84.047H56.9337L59.9219 95.336ZM95.8983 84.0861C95.8788 84.3595 89.8632 106.742 89.7851 106.82C89.746 106.879 89.082 106.898 88.3398 106.859L86.9726 106.801L89.1796 98.5001C90.3905 93.9298 91.7577 88.8126 92.2069 87.1134L93.0273 84.047H94.453C95.2538 84.047 95.8983 84.0665 95.8983 84.0861ZM104.609 95.3751C106.25 101.547 107.598 106.664 107.617 106.742C107.617 106.84 104.57 106.898 100.859 106.898C94.5312 106.898 94.121 106.879 94.2187 106.547C94.2577 106.371 95.5468 101.508 97.0702 95.7657C98.5936 90.0235 99.9218 85.0236 100.019 84.672C100.215 84.0861 100.293 84.0275 100.918 84.0861L101.621 84.1447L104.609 95.3751ZM108.945 84.7697C109.062 85.1798 110.39 90.1993 111.914 95.9415C113.437 101.684 114.726 106.508 114.785 106.645C114.863 106.84 114.551 106.898 113.398 106.898H111.933L111.738 106.156C110.215 100.414 106.015 84.6525 105.937 84.379C105.84 84.0861 105.996 84.047 107.285 84.047H108.73L108.945 84.7697Z" fill="#334A78"/>
<path d="M106.426 72.8945C105.156 74.1836 106.035 76.2344 107.871 76.2344C109.219 76.2344 110.078 75.1602 109.805 73.793C109.531 72.3281 107.539 71.8008 106.426 72.8945Z" fill="#334A78"/>
<path d="M61.504 51.2336C59.6095 51.5657 57.9298 52.8547 57.1095 54.6321C56.465 56.0383 56.465 58.1477 57.1095 59.5539C57.6954 60.8234 58.7696 61.8976 60.0392 62.4836C61.0157 62.9328 61.1329 62.9523 66.9532 62.9523H72.8516V76.1163C72.8516 83.3429 72.9102 89.5342 72.9688 89.8858C73.2813 91.4678 75.2344 92.0342 76.3867 90.9014L76.9531 90.335V76.6437V62.9523H82.9687C88.8672 62.9523 88.9843 62.9328 89.9609 62.4836C92.1484 61.468 93.3593 59.5344 93.3593 57.093C93.3593 54.6125 92.1484 52.718 89.8632 51.6438L88.7695 51.136L75.586 51.0969C68.3399 51.0969 61.9923 51.136 61.504 51.2336ZM87.6758 55.2571C89.1797 55.5696 89.7851 57.2883 88.75 58.343L88.2226 58.8508H75H61.7774L61.2501 58.343C60.2735 57.3664 60.8204 55.5305 62.1681 55.2766C62.8517 55.1399 87.0117 55.1203 87.6758 55.2571Z" fill="#334A78"/>
<path d="M73.8477 94.5167C72.5977 95.3956 72.7149 97.3096 74.0626 97.9737C75.5079 98.6768 76.9532 97.7979 76.9532 96.2159C76.9532 95.4933 76.8555 95.2393 76.3477 94.7706C75.6446 94.1065 74.5899 94.0089 73.8477 94.5167Z" fill="#334A78"/>
</svg>
