<svg width="150" height="150" viewBox="0 0 150 150" fill="none" xmlns="http://www.w3.org/2000/svg">
<path d="M69.9609 35.8156C69.7266 35.9133 69.4336 36.2258 69.3359 36.4992C69.2188 36.8312 69.1406 45.8937 69.1406 61.5187V86.0109H66.8555C64.8828 86.0109 64.4531 86.0695 63.9062 86.4015C62.9883 86.9679 62.6953 87.8273 62.6953 89.8976V91.6359L61.25 92.3195C58.125 93.8039 55.5469 95.9914 53.7305 98.7258C51.9531 101.362 51.2305 103.609 51.0352 106.948L50.918 109.058H58.1836H65.4297V109.605C65.4297 110.366 66.3281 112.085 67.0312 112.671C68.2422 113.687 69.1406 114.019 70.7031 113.999C72.3828 113.999 73.2812 113.667 74.375 112.671C75.0977 112.027 75.8398 110.679 76.0742 109.605L76.1719 109.058H83.3398H90.4883L90.3711 106.851C90.1562 102.378 88.5156 98.8625 85.1562 95.6984C83.5547 94.1945 82.0703 93.1789 80.0977 92.2609L78.75 91.6164L78.6719 89.507C78.6133 87.3976 78.6133 87.3781 77.9688 86.7531L77.3438 86.1086L74.8047 86.05L72.2656 85.9719V61.2844V36.5773L71.7773 36.1086C71.2891 35.6008 70.7227 35.5226 69.9609 35.8156ZM75.5859 89.9367C75.5859 90.6789 75.5469 90.7375 75.1562 90.6203C73.8281 90.2687 70.7227 90.1125 68.7695 90.3078C67.6367 90.4054 66.5039 90.5617 66.2695 90.6203C65.8594 90.7375 65.8203 90.6789 65.8203 89.9367V89.1359H70.7031H75.5859V89.9367ZM74.6094 93.7258C80.4297 94.9562 85.0586 98.7843 86.6992 103.726C86.9336 104.39 87.1094 105.171 87.1094 105.445V105.933H70.7031C54.9805 105.933 54.2969 105.913 54.2969 105.581C54.2969 104.878 54.9414 103.081 55.7031 101.616C57.9102 97.3195 62.9102 94.1359 68.5352 93.4328C70.1172 93.2375 72.8906 93.3742 74.6094 93.7258ZM72.8516 109.331C72.8516 109.8 72.0703 110.581 71.3867 110.816C70.8789 110.991 70.5273 110.991 70.0195 110.816C69.375 110.601 68.5547 109.741 68.5547 109.273C68.5547 109.136 69.2773 109.058 70.7031 109.058C72.3828 109.058 72.8516 109.116 72.8516 109.331Z" fill="#334A78"/>
<path d="M43.5352 36.5771L43.0664 36.9482L43.0078 46.7334L42.9492 56.5185H40.8008C37.2266 56.5185 36.7188 56.9873 36.7188 60.1904V62.124L35.5078 62.6514C33.7305 63.4326 31.2305 65.1514 29.7852 66.5967C26.6211 69.7607 25 73.5107 25 77.6514V79.5654H32.1094H39.1992L39.3359 80.2881C39.6484 82.1631 41.3086 83.9404 43.2617 84.4678C46.1719 85.2685 49.3555 83.2568 49.9023 80.2881L50.0391 79.5654H57.168H64.3164L64.2188 77.1631C64.1016 74.3701 63.4961 72.3193 62.1094 69.956C60.4297 67.1435 57.1094 64.2334 53.9062 62.749L52.5391 62.1045V60.1709C52.5391 56.9873 52.0117 56.5185 48.3594 56.5185H46.0938V46.7529C46.0938 37.2412 46.0742 36.9678 45.7031 36.5967C45.1953 36.0889 44.1406 36.0889 43.5352 36.5771ZM49.4141 60.4248V61.206L48.5938 61.0693C48.125 60.9717 46.3477 60.9131 44.6289 60.9131C42.9102 60.9131 41.1328 60.9717 40.6836 61.0693L39.8438 61.206V60.4248V59.6435H44.6289H49.4141V60.4248ZM49.8633 64.624C54.2188 65.874 57.8711 68.7256 59.7266 72.2803C60.4297 73.667 60.6445 74.2529 61.0156 75.8935L61.1328 76.4404H44.6289H28.1055L28.2422 75.6982C28.6133 73.6084 30.1172 70.8349 31.8359 69.0576C36.2305 64.5459 43.457 62.7685 49.8633 64.624ZM46.875 79.6826C46.875 79.7412 46.7188 80.0537 46.543 80.3662C46.2109 80.9326 45.2344 81.5185 44.6289 81.5185C44.0234 81.5185 43.0469 80.9326 42.7148 80.3662C42.5391 80.0537 42.3828 79.7412 42.3828 79.6826C42.3828 79.624 43.3984 79.5654 44.6289 79.5654C45.8594 79.5654 46.875 79.624 46.875 79.6826Z" fill="#334A78"/>
<path d="M104.258 36.8701C103.926 37.1045 103.906 38.1592 103.906 53.8428V70.542L101.426 70.6201C98.75 70.6982 98.3398 70.8154 97.7734 71.7724C97.5391 72.1631 97.4609 72.8076 97.4609 74.2334V76.167L95.7617 77.0068C93.4375 78.1396 91.9922 79.2139 90.2148 81.0693C88.4375 82.9248 87.2656 84.8193 86.4648 87.1435C85.9766 88.5693 85.8594 89.2334 85.7812 91.2256L85.6836 93.6279H92.832H99.9609L100.098 94.3506C100.645 97.3193 103.828 99.331 106.738 98.5303C108.691 98.0029 110.352 96.2256 110.664 94.3506L110.801 93.6279H117.891H125V91.7139C125 85.5224 120.977 79.7412 114.648 76.8115L113.281 76.167V74.2724C113.281 71.0498 112.93 70.7178 109.434 70.6201L107.031 70.542V53.8037V37.0849L106.504 36.831C105.82 36.5185 104.688 36.5381 104.258 36.8701ZM110.156 74.4873V75.2685L109.238 75.1123C108.711 75.0342 106.992 74.9756 105.371 74.9756C103.77 74.9756 102.031 75.0342 101.523 75.1123L100.586 75.2685V74.4873V73.706H105.371H110.156V74.4873ZM110.605 78.667C115.254 80.0537 118.77 82.8857 120.703 86.7529C121.152 87.6709 121.875 89.8974 121.875 90.3857C121.875 90.4443 114.453 90.5029 105.371 90.5029C96.2891 90.5029 88.8672 90.4443 88.8672 90.3857C88.8672 90.3271 89.0039 89.7217 89.1797 89.0576C90.3125 84.6631 94.4727 80.5029 99.3359 78.9014C101.621 78.1592 102.773 78.0029 105.859 78.081C108.438 78.1396 109.141 78.2178 110.605 78.667ZM107.617 93.7646C107.578 94.4873 106.289 95.581 105.508 95.581C104.785 95.581 103.828 95.0342 103.457 94.4287C103.281 94.1162 103.125 93.8037 103.125 93.7451C103.125 93.6865 104.141 93.6279 105.371 93.6279C106.602 93.6279 107.617 93.6865 107.617 93.7646Z" fill="#334A78"/>
</svg>
