<svg width="150" height="150" viewBox="0 0 150 150" fill="none" xmlns="http://www.w3.org/2000/svg">
<path d="M28.0907 25.2364C27.1727 25.4708 25.8837 26.5844 25.3955 27.5613C24.8682 28.5772 24.8682 30.609 25.3955 31.625C25.8837 32.6018 27.1337 33.6763 28.1102 33.9499C28.618 34.1062 31.2741 34.1843 36.5082 34.1843C40.7073 34.1843 44.1446 34.2234 44.1446 34.2624C44.1446 34.3015 43.9493 34.7509 43.7149 35.2784C43.3243 36.138 43.2853 36.5678 43.2657 39.3616C43.2657 42.8196 43.3829 43.2495 44.5352 44.2263C45.5312 45.0469 46.2734 45.1641 50.492 45.0859C54.1637 45.0273 54.4371 45.0078 55.1206 44.578C55.5112 44.324 56.0386 43.7965 56.2925 43.4057C56.7221 42.722 56.7417 42.4875 56.7417 39.3616C56.7417 36.3529 56.7026 35.9622 56.312 35.1025L55.8823 34.1843H62.5226H69.1629L68.87 34.7118C68.4013 35.6496 68.1669 37.2516 68.1669 39.5179C68.1669 42.1358 68.3622 42.9564 69.2411 43.9332C70.198 44.9882 70.9011 45.125 75.0025 45.125C79.1039 45.125 79.807 44.9882 80.7639 43.9332C81.6428 42.9564 81.8381 42.1358 81.8381 39.5179C81.8381 37.2516 81.6038 35.6496 81.135 34.7118L80.8421 34.1843H87.4824H94.1227L93.693 35.1025C93.3219 35.9231 93.2634 36.4506 93.2048 39.1272C93.1266 41.9795 93.1657 42.2531 93.5563 43.0932C93.8297 43.6402 94.2985 44.1872 94.7867 44.4998C95.5679 45.0273 95.6265 45.0273 99.4935 45.0859C103.732 45.1641 104.474 45.0469 105.47 44.2263C106.622 43.2495 106.739 42.8196 106.739 39.3616C106.72 36.5678 106.681 36.138 106.29 35.2784C106.056 34.7509 105.86 34.3015 105.86 34.2624C105.86 34.2234 109.298 34.1843 113.497 34.1843C118.731 34.1843 121.387 34.1062 121.895 33.9499C122.871 33.6763 124.121 32.6018 124.61 31.625C125.117 30.6481 125.137 28.7139 124.629 27.6199C124.16 26.5844 122.852 25.4903 121.778 25.2168C121.172 25.0605 110.001 25.0019 82.9709 25.0019C48.4803 25.0019 44.9649 25.0215 44.5743 25.3145C44.3204 25.4903 44.0469 25.842 43.9493 26.096C43.7345 26.6626 44.0469 27.6785 44.5352 27.9325C44.7696 28.0692 58.4799 28.1278 82.8732 28.1278H120.84L121.367 28.5381C122.071 29.0851 122.071 30.1011 121.367 30.6481L120.84 31.0584H75.0025H29.1648L28.6375 30.6481C28.2664 30.3551 28.1297 30.062 28.1297 29.5931C28.1297 29.1242 28.2664 28.8312 28.6375 28.5381C29.1258 28.1474 29.3992 28.1278 33.774 28.1278C38.1683 28.1278 38.4222 28.1083 38.8323 27.7371C39.4769 27.1315 39.4183 25.9397 38.7542 25.4122C38.266 25.0215 38.0121 25.0019 33.5201 25.0215C30.9421 25.041 28.5008 25.1191 28.0907 25.2364ZM52.113 34.8095C53.3629 35.6496 53.7145 36.6069 53.7145 39.2834C53.7145 40.7683 53.6363 41.6083 53.4801 41.7646C53.3238 41.9209 52.2497 41.9991 49.9646 41.9991C46.8203 41.9991 46.6835 41.9795 46.4687 41.5693C46.1367 40.9636 46.332 36.9976 46.7226 36.2357C47.1132 35.5128 47.9921 34.6727 48.6366 34.3992C49.4959 34.028 51.2536 34.2429 52.113 34.8095ZM76.6626 34.575C77.5414 35.0049 78.1274 35.6886 78.4789 36.7046C78.7914 37.6033 78.7914 41.4521 78.4789 41.7646C78.1469 42.0968 71.8581 42.0968 71.5261 41.7646C71.2136 41.4521 71.2136 37.6033 71.5261 36.7046C72.2683 34.5555 74.6119 33.5787 76.6626 34.575ZM101.31 34.3992C101.993 34.6532 102.872 35.4737 103.282 36.2357C103.673 36.9976 103.868 40.9636 103.536 41.5693C103.321 41.9795 103.185 41.9991 100.021 41.9991C97.3842 41.9991 96.6812 41.9405 96.4859 41.706C96.3296 41.5107 96.271 40.6901 96.3296 39.0099C96.3882 36.7827 96.4273 36.5287 96.9155 35.8059C97.8139 34.4578 99.7865 33.8131 101.31 34.3992Z" fill="#334A78"/>
<path d="M48.1483 57.5089C46.4687 58.2904 45.4531 59.5993 45.2188 61.2795C45.1016 62.1196 44.1446 76.9872 44.1446 78.0422V78.726H35.8052C27.993 78.726 27.3876 78.7651 26.6259 79.1168C25.1807 79.7615 25.0049 80.289 25.0049 83.8056C25.0049 86.365 25.0635 86.912 25.3369 87.3223C25.8252 88.0256 26.3915 88.4554 26.997 88.5922L27.5438 88.729V105.863V123.016L27.993 123.681C28.7938 124.892 29.3797 125.048 32.8561 124.99C36.1958 124.931 36.4497 124.853 37.3871 123.583C37.7972 123.055 37.7972 122.88 37.8558 105.863L37.9144 88.6899H40.6487H43.4024L43.2657 91.2102C43.09 94.297 43.3634 95.3325 44.6329 96.6024C45.7656 97.7355 46.8398 98.0676 49.4568 98.0676H51.5661V99.9041V101.721L49.4764 101.819C47.6991 101.897 47.1718 101.995 46.1562 102.444C44.711 103.108 43.1681 104.632 42.5626 106.019C41.9377 107.406 41.84 109.497 42.3478 110.493C43.2657 112.291 43.9493 112.505 48.8905 112.525H52.7379V117.116V121.707H49.4178C45.2578 121.707 44.7305 121.903 44.7305 123.446C44.7305 123.759 44.9258 124.169 45.1797 124.403L45.6289 124.833H57.2885C68.6942 124.833 68.9481 124.833 69.3387 124.443C69.8465 123.935 69.8465 122.88 69.3582 122.274C68.9872 121.825 68.8895 121.805 65.4522 121.746L61.9172 121.688V117.097V112.525H65.7256C69.8074 112.525 70.4715 112.408 71.448 111.49C72.2097 110.786 72.4636 110.083 72.4636 108.735C72.4636 106.527 71.448 104.515 69.6903 103.225C68.3427 102.229 66.7607 101.78 64.6319 101.78H62.8937V99.9432V98.1067L65.3936 98.0286C68.1669 97.9504 69.0067 97.6574 70.0223 96.4656C71.1941 95.098 71.3699 94.3556 71.2136 91.386L71.0964 88.6899H75.7642H80.4515L80.3343 91.3274C80.1976 94.2775 80.4124 95.1957 81.5061 96.4461C82.5803 97.6769 83.381 97.9504 86.1934 98.0286L88.6737 98.1067V99.9432V101.78H86.9551C83.4396 101.78 81.096 103.069 79.7484 105.785C79.2406 106.781 79.0843 107.543 79.0843 108.891C79.0843 110.513 79.807 111.587 81.2913 112.232C81.8576 112.466 82.8342 112.525 85.8418 112.525H89.6502V117.097V121.688L86.1543 121.746C83.049 121.805 82.6193 121.844 82.2483 122.176C81.7014 122.684 81.6819 123.896 82.2287 124.443C82.6193 124.833 82.8732 124.833 94.318 124.833H106.036L106.427 124.325C106.876 123.739 106.954 122.938 106.583 122.469C106.075 121.805 105.528 121.707 102.169 121.707H98.8295V117.116V112.525H102.599C106.622 112.525 107.481 112.388 108.38 111.626C110.235 110.063 109.766 106.136 107.462 103.87C106.017 102.444 104.63 101.916 102.111 101.819L100.001 101.721V99.9041V98.0676H102.111C104.65 98.0676 105.724 97.755 106.798 96.7196C108.145 95.3911 108.302 94.844 108.243 91.5618L108.204 88.6899H110.157H112.091L112.149 105.863C112.208 122.88 112.208 123.055 112.618 123.583C113.555 124.853 113.809 124.931 117.149 124.99C120.625 125.048 121.211 124.892 122.012 123.681L122.461 123.016V105.863V88.729L123.008 88.5922C123.613 88.4554 124.18 88.0256 124.668 87.3223C124.942 86.912 125 86.365 125 83.8056C125 80.289 124.824 79.7615 123.379 79.1168C122.617 78.7651 122.032 78.726 115.02 78.726H107.462L107.325 76.1862C107.149 73.158 106.915 72.6696 105.646 72.6696C104.63 72.6696 104.103 73.1971 104.103 74.213C104.103 74.6428 104.376 79.1168 104.689 84.1378C105.157 91.3078 105.235 93.3983 105.06 93.8281C104.591 94.9417 104.61 94.9417 94.1422 94.9417H84.5333L83.9669 94.3751C83.4982 93.8867 83.4005 93.6327 83.4005 92.8513C83.4005 90.5068 85.3731 61.4749 85.5489 61.1428C86.0567 60.205 86.4082 60.1659 94.4156 60.1659H101.954L102.579 60.7325L103.204 61.2991L103.38 63.9952C103.575 67.0625 103.732 67.6486 104.415 67.9612C105.118 68.2738 105.548 68.2347 106.134 67.7658C106.603 67.3946 106.642 67.2578 106.642 65.9684C106.622 63.5653 106.29 60.5957 105.939 59.9315C105.489 59.0328 104.532 58.0559 103.614 57.5675C102.853 57.1572 102.618 57.1377 94.65 57.0791C85.6465 57.0205 85.3536 57.04 83.9474 58.2122C83.5568 58.5443 83.0099 59.2672 82.7365 59.8338C82.2678 60.8106 82.2287 61.2209 81.7405 68.9576C81.467 73.412 81.1936 77.4366 81.135 77.8859L81.0374 78.726H75.7837H70.5105L70.4324 78.2767C70.3738 78.0422 70.1199 74.0958 69.827 69.5241C69.5535 64.9525 69.2411 60.8888 69.1239 60.498C68.8309 59.4235 67.7958 58.1927 66.7021 57.6457L65.7451 57.1377L57.4252 57.0791L49.1248 57.04L48.1483 57.5089ZM65.2178 60.4394C65.5108 60.5957 65.8623 60.9474 65.9795 61.2405C66.1943 61.6898 68.1669 90.5459 68.1669 93.0466C68.1669 93.6132 68.0302 93.9258 67.6005 94.3751L67.0341 94.9417H57.4252C46.9374 94.9417 46.9765 94.9417 46.5078 93.8086C46.3125 93.3592 46.4687 90.2724 47.2499 77.8273C47.7968 69.3483 48.246 62.1978 48.246 61.9438C48.246 61.6898 48.5389 61.2014 48.91 60.8302L49.574 60.1659H57.1127C63.2648 60.1659 64.7686 60.2245 65.2178 60.4394ZM43.7931 83.2586C43.7735 84.0401 43.6954 84.8802 43.6563 85.1146L43.5587 85.564H35.7466H27.9344V83.708V81.852H35.9028H43.8516L43.7931 83.2586ZM80.8616 82.6725C80.8616 83.1414 80.803 83.9815 80.7444 84.5285L80.6077 85.564H75.7837H70.9597L70.823 84.6653C70.7644 84.1573 70.7058 83.3172 70.7058 82.8093V81.852H75.7837H80.8616V82.6725ZM122.071 83.708V85.564H115.04C109.571 85.564 107.97 85.5054 107.911 85.31C107.872 85.1928 107.813 84.3527 107.755 83.454L107.677 81.852H114.883H122.071V83.708ZM34.77 105.296V121.903H32.7194H30.6687V105.296V88.6899H32.7194H34.77V105.296ZM119.336 105.296V121.903H117.286H115.235V105.296V88.6899H117.286H119.336V105.296ZM59.7689 99.9236V101.78H57.2299H54.691V99.9236V98.0676H57.2299H59.7689V99.9236ZM96.8765 99.9236V101.78H94.3375H91.7986V99.9236V98.0676H94.3375H96.8765V99.9236ZM67.1318 105.394C68.4403 106.058 69.2215 107.152 69.2215 108.383L69.2411 109.301H57.2299H45.2188L45.1602 108.852C44.9844 107.68 46.1758 105.902 47.5624 105.277C48.285 104.945 49.0662 104.906 57.2494 104.906H66.1357L67.1318 105.394ZM104.005 105.277C105.392 105.902 106.583 107.68 106.407 108.852L106.349 109.301H94.3375H82.3264L82.2678 108.52C82.1897 107.367 83.049 106.097 84.3966 105.414L85.4317 104.906H94.318C102.501 104.906 103.282 104.945 104.005 105.277ZM58.7923 117.116V121.707H57.3276H55.8628V117.116V112.525H57.3276H58.7923V117.116ZM95.7046 117.116V121.707H94.2399H92.7751V117.116V112.525H94.2399H95.7046V117.116Z" fill="#334A78"/>
</svg>
