<svg width="150" height="150" viewBox="0 0 150 150" fill="none" xmlns="http://www.w3.org/2000/svg">
<path d="M27.2087 24.6506C26.6211 24.9719 26.1145 25.4538 25.7092 26.0964L25.1013 27.0602L25.0405 65.0522L25 103.024L25.5471 104.129C25.9726 104.932 26.3576 105.353 27.1074 105.815L28.1003 106.418L56.1854 106.478C81.8186 106.518 84.2705 106.558 84.615 106.859C84.9595 107.161 84.9797 107.743 84.9797 115.494C84.9797 122.542 85.0203 123.908 85.2837 124.55C85.689 125.494 86.2969 126.137 87.2492 126.618C87.9382 126.98 88.5258 127 94.9088 127C101.535 127 101.819 126.98 102.204 126.598C102.751 126.056 102.751 124.932 102.204 124.39C101.819 124.008 101.535 123.988 95.5775 123.988C90.9574 123.988 89.2148 123.908 88.8298 123.727L88.3232 123.466L88.2219 114.851C88.1206 105.414 88.1408 105.695 86.8642 104.43C85.7497 103.305 85.7092 103.305 76.5704 103.305H68.1611V101.699V100.072L77.0365 100.133L85.8916 100.193L87.0871 100.775C88.6879 101.558 89.924 102.823 90.7143 104.47L91.3627 105.815L91.464 112.904C91.5653 119.631 91.5856 120.012 91.9504 120.293C92.2948 120.534 94.4225 120.574 105.061 120.574H117.786L118.191 120.052C118.617 119.51 118.617 119.45 118.617 98.3655V77.2008H120.238H121.859V100.133C121.859 112.763 121.778 123.185 121.697 123.305C121.272 123.948 120.623 123.988 112.457 123.988H104.25L103.845 124.51C103.298 125.193 103.298 125.795 103.845 126.478L104.25 127H113.126H122.001L122.893 126.538C123.48 126.217 123.987 125.735 124.392 125.092L125 124.129V75.5944V27.0602L124.392 26.0964C123.987 25.4538 123.48 24.9719 122.893 24.6506L122.001 24.1888H84.9797H47.9585L47.5937 24.5904C47.1074 25.1325 47.1074 26.257 47.5735 26.7791C47.9585 27.2008 47.999 27.2008 84.615 27.241C120.643 27.3012 121.292 27.3012 121.575 27.6827C121.819 28.0241 121.859 30.1124 121.859 40.5944V53.1044H120.238H118.617V42.3815C118.617 31.8594 118.617 31.6586 118.191 31.1365L117.786 30.6145H75.0507H32.3151L31.9098 31.1365L31.4843 31.6787V65.2731V98.8675L31.9706 99.4297L32.4569 99.992L38.151 100.052L43.845 100.112V101.719V103.325L36.3273 103.265C29.154 103.205 28.8095 103.185 28.5258 102.823C28.1003 102.221 28.1003 28.2851 28.5258 27.6827C28.8095 27.3213 29.1945 27.3012 36.2462 27.2008C43.2979 27.1004 43.6829 27.0803 43.9666 26.7189C44.3516 26.1968 44.3313 25.1928 43.926 24.6305L43.6221 24.1888H35.8612C28.1206 24.1888 28.1003 24.1888 27.2087 24.6506ZM40.4002 46.5181C40.4002 60.7751 40.3597 60.253 41.6768 61.2169C42.2442 61.6385 42.4671 61.6385 51.4438 61.6385C60.4205 61.6385 60.6434 61.6385 61.2107 61.2169C62.5279 60.253 62.4873 60.7751 62.4873 46.5181V33.6265H66.4387H70.3901V46.0763V58.5261H69.924C68.6272 58.5261 68.0395 60.494 69.0932 61.3173C69.5795 61.6988 69.9037 61.739 71.9909 61.739C73.8349 61.739 74.463 61.6586 74.8075 61.4177C76.0841 60.5341 75.5572 58.5261 74.0578 58.5261C73.6322 58.5261 73.6322 58.5261 73.6322 46.0763V33.6265H75.7396H77.847L77.9281 38.3855C78.0294 43.8072 78.1712 44.4096 79.5289 45.9558C80.7447 47.3012 82.2239 47.9639 84.1489 47.9639C87.2695 47.9438 89.5998 46.0763 90.228 43.1044C90.3495 42.5221 90.4509 40.1526 90.4509 37.8434V33.6265H92.2746H94.0983V34.992C94.0983 36.9398 94.5643 38.1245 95.8207 39.3695C97.4215 40.9558 98.0496 41.0964 103.257 41.0161C107.249 40.9558 107.634 40.9157 108.404 40.5141C109.701 39.8313 110.37 39.1687 111.018 38.004C111.484 37.1406 111.626 36.6385 111.687 35.2932L111.788 33.6265H113.571H115.375V59.7309V85.8353H111.991C110.106 85.8353 108.242 85.9357 107.817 86.0562C106.864 86.3173 105.75 87.261 105.223 88.2651C104.858 88.9879 104.838 89.5301 104.838 98.8474V108.667L105.304 109.55C105.567 110.032 106.175 110.695 106.641 111.036L107.513 111.639L111.444 111.699L115.375 111.759V114.671V117.562H105.041H94.7062V112.08C94.7062 108.104 94.6251 106.257 94.4022 105.253C93.5917 101.398 90.694 98.3253 86.8237 97.2008C86.0334 96.9799 84.8582 96.8795 82.7102 96.8795H79.7112V86.1365V75.3936H88.9311H98.151V75.8755C98.151 76.1365 98.3333 76.5783 98.5765 76.8795C99.1641 77.6225 100.38 77.6225 100.968 76.8795C101.353 76.3976 101.393 76.0763 101.393 73.6466C101.393 71.0562 101.373 70.9357 100.887 70.4739C99.8936 69.4699 98.151 70.1727 98.151 71.5582V72.1606L87.695 72.2209L77.2391 72.2811L76.8541 72.7631C76.4894 73.2048 76.4691 73.7068 76.4691 85.0522V96.8795H55.5978H34.7264V94.6707V92.4618L48.1003 92.4217L61.4742 92.3614L62.0821 91.739C62.4265 91.3976 62.7913 90.7751 62.8926 90.3333C63.1358 89.3092 63.1358 79.9518 62.8926 78.9277C62.7913 78.4859 62.4265 77.8635 62.0821 77.5221L61.4742 76.8996L48.1003 76.8394L34.7264 76.7992V74.992V73.1847H48.6069H62.4873V73.6867C62.4873 74.8514 64.1489 75.4137 65.1418 74.6104C65.6079 74.249 65.6282 74.1084 65.6282 71.6185C65.6282 68.5462 65.4458 68.1647 64.0476 68.1647C63.0547 68.1647 62.4873 68.6265 62.4873 69.4096V69.9719H48.6069H34.7264V51.7992V33.6265H37.5633H40.4002V46.5181ZM59.2452 35.4337V37.241H51.4438H43.6424V35.4337V33.6265H51.4438H59.2452V35.4337ZM108.485 34.6305C108.485 35.9759 108.06 36.9398 107.229 37.4418C106.621 37.8032 106.216 37.8434 102.953 37.8434C98.9412 37.8434 98.4346 37.7229 97.7457 36.5783C97.462 36.1365 97.3404 35.5743 97.3404 34.7711V33.6265H102.913H108.485V34.6305ZM87.2087 38.0843C87.2087 41.6185 87.1479 42.261 86.8237 42.9839C86.074 44.6104 84.4731 45.1928 82.9534 44.4297C81.3526 43.6064 81.231 43.2249 81.1702 38.2851L81.1094 34.0281H84.1489H87.2087V38.0843ZM59.2452 49.49V58.5261H51.4438H43.6424V49.49V40.4538H51.4438H59.2452V49.49ZM121.859 65.1526V73.9879H120.238H118.617V65.1526V56.3173H120.238H121.859V65.1526ZM38.1712 84.6305V89.249H36.4488H34.7264V84.6305V80.012H36.4488H38.1712V84.6305ZM59.8531 84.6305V89.249H50.6332H41.4134V84.6305V80.012H50.6332H59.8531V84.6305ZM115.375 98.7871V108.526H112.052C109.296 108.526 108.668 108.466 108.404 108.205C108.121 107.924 108.08 106.799 108.08 98.8474C108.08 90.6948 108.121 89.751 108.425 89.4096C108.708 89.0884 109.113 89.0482 112.072 89.0482H115.375V98.7871ZM64.9189 101.699V103.305H56.003H47.0871V101.699V100.092H56.003H64.9189V101.699Z" fill="#334A78"/>
<path d="M101.434 50.7565C101.069 50.8569 100.36 51.3188 99.8328 51.7806C97.4012 53.8891 97.2999 57.4835 99.5694 59.7525C102.102 62.2626 106.378 61.7003 108.222 58.5879C109.012 57.2224 109.113 55.1341 108.445 53.6883C107.452 51.5397 105.79 50.4754 103.501 50.5156C102.731 50.5357 101.798 50.6361 101.434 50.7565ZM104.959 54.3911C105.729 55.1541 105.851 55.9373 105.344 56.9212C105 57.5638 104.108 58.126 103.419 58.126C102.731 58.126 101.839 57.5638 101.494 56.9212C100.988 55.9373 101.109 55.1541 101.879 54.3911C102.447 53.8288 102.731 53.7084 103.419 53.7084C104.108 53.7084 104.392 53.8288 104.959 54.3911Z" fill="#334A78"/>
</svg>
