<?xml version="1.0" encoding="UTF-8"?>
<!DOCTYPE svg PUBLIC "-//W3C//DTD SVG 1.1//EN" "http://www.w3.org/Graphics/SVG/1.1/DTD/svg11.dtd">
<!-- Creator: CorelDRAW 2019 (64-Bit) -->
<svg xmlns="http://www.w3.org/2000/svg" xml:space="preserve" width="161.942mm" height="46.1163mm" version="1.1" style="shape-rendering:geometricPrecision; text-rendering:geometricPrecision; image-rendering:optimizeQuality; fill-rule:evenodd; clip-rule:evenodd"
viewBox="0 0 174.2739 49.6282"
 xmlns:xlink="http://www.w3.org/1999/xlink"
 xmlns:xodm="http://www.corel.com/coreldraw/odm/2003">
 <defs>
  <style type="text/css">
   <![CDATA[
    .fil2 {fill:#FEFEFE}
    .fil1 {fill:#E42526}
    .fil4 {fill:#A8AAC7}
    .fil3 {fill:#8693BB}
    .fil0 {fill:#244791}
   ]]>
  </style>
 </defs>
 <g id="Layer_x0020_1">
  <metadata id="CorelCorpID_0Corel-Layer"/>
  <g id="_960097072">
   <path class="fil0" d="M24.2185 9.0176c0.497,-0.2069 1.1639,-0.4017 1.6833,-0.5364 3.7822,-0.9799 7.6901,-0.2286 10.8659,1.6929 0.7679,0.4647 1.9442,1.3597 2.5498,1.9533 2.4991,2.4498 3.9399,5.2489 4.2817,9.0997 0.205,2.3099 -0.4197,5.9736 -0.9945,7.9281 -0.4763,1.6192 -1.5852,5.5466 -1.8606,7.0805 -0.1062,0.5917 -0.1869,1.5322 -0.1115,2.17 0.2755,2.3318 0.8833,2.247 -1.7557,2.247l-28.9969 0c-0.7906,0 -1.4669,0.084 -1.6903,-0.619 -0.1349,-0.4242 -0.0476,-27.4806 -0.0476,-31.2071 0,-1.2399 -0.2997,-2.3102 1.035,-2.3301 3.9093,-0.0582 8.2758,-0.0032 12.2219,-0.0001 1.552,0.0013 1.1933,0.8484 1.203,3.2333l1.6164 -0.7122zm-21.5828 34.1158l0 0c-0.0386,1.6806 1.3511,3.1235 2.6088,3.5917 1.2561,0.4675 4.318,0.2815 5.9216,0.2815 12.3264,0 24.7612,0.0573 37.0646,-0.0005l0.0576 -39.2315c0,-1.0853 0.0704,-1.7567 -0.3149,-2.6636 -0.5071,-1.1939 -1.8853,-2.5075 -3.5113,-2.488l-41.82 0.0028 -0.0065 40.5076z"/>
   <path class="fil1" d="M20.8821 9.9926l-11.0119 -0.0032 -0.0128 28.9377 11.0576 -0.0108c-0.0719,-0.8314 -0.0121,-1.9115 -0.0123,-2.7329 -0.0004,-0.8867 -0.0018,-1.716 -0.002,-2.6314 -0.0009,-1.7705 -0.0031,-3.5028 -0.0003,-5.3224 0.0026,-1.5697 -0.1902,-3.9463 0.4875,-5.3844 0.195,-0.4136 0.7156,-1.1911 1.0638,-1.4495 0.1133,-0.0842 0.1247,-0.0726 0.2394,-0.1659 1.9189,-1.5626 4.5169,-1.4946 6.1127,0.4735 0.5212,0.6428 1.1951,2.1973 1.1951,3.2569 0,2.1008 -0.0878,2.7143 -0.7586,4.9195 -0.7462,2.453 -2.147,5.3948 -3.4461,7.6591 -0.1436,0.2499 -0.2412,0.452 -0.396,0.716 -0.0959,0.1636 -0.3256,0.5309 -0.3801,0.6693l13.9606 -0.004c-0.1704,-2.215 -0.0408,-2.6522 0.5506,-5.0703 0.2905,-1.1888 0.6517,-2.3517 0.9795,-3.5123 0.3451,-1.2228 0.6426,-2.3569 0.9111,-3.5937 0.7178,-3.3085 0.8403,-6.5148 -0.5935,-9.6374 -0.3438,-0.7489 -0.7152,-1.3129 -1.0899,-1.8892 -0.2041,-0.3141 -0.4583,-0.5732 -0.6658,-0.8554 -0.1889,-0.257 -0.4831,-0.5502 -0.6972,-0.7641 -3.178,-3.1753 -7.7318,-4.5761 -12.1742,-3.4095 -1.9718,0.5178 -3.0112,1.1586 -4.586,2.3022 -0.1694,0.123 -0.5471,0.5489 -0.7105,0.5738l-0.0204 -3.0716z"/>
   <path class="fil2" d="M44.4622 2.623c1.626,-0.0196 3.0042,1.2941 3.5113,2.488 0.3853,0.9069 0.3149,1.5783 0.3149,2.6636l-0.0576 39.2315c-12.3034,0.0578 -24.7383,0.0005 -37.0646,0.0005 -1.6037,0 -4.6656,0.186 -5.9216,-0.2815 -1.2577,-0.4681 -2.6474,-1.911 -2.6088,-3.5917 -0.1276,-0.2227 -0.0497,-9.8813 -0.0497,-10.0479l0 -20.3423c0,-3.3653 -0.0667,-6.7977 0.0029,-10.1546 0.6444,-0.1154 35.9052,-0.0032 41.1988,-0.0263 0.2323,-0.0011 0.4878,-0.035 0.6745,0.0607zm-44.2697 40.4968l0 0c-0.0645,0.9783 0.3385,2.0951 0.6983,2.8125 0.1827,0.3642 0.5154,0.8445 0.697,1.0567 0.9437,1.1029 1.8137,1.726 3.2113,2.1718 1.0307,0.3288 2.068,0.2966 3.2686,0.2966l35.5446 0c2.335,0 4.8093,0.0791 7.1269,-0.0058l0 -41.677c0,-1.8468 -0.0033,-2.7751 -0.8588,-4.3376 -0.9029,-1.6493 -3.0999,-3.3307 -5.4441,-3.2619l-44.2477 -0.0067 0.0039 42.9515z"/>
   <path class="fil2" d="M22.6791 39.1031c-0.1941,-0.4335 -0.0777,-10.0274 -0.0777,-11.3955 0,-2.0121 -0.2107,-3.6002 0.8677,-4.8842 0.998,-1.1882 2.8514,-1.3635 3.9013,-0.0949 2.5319,3.0596 -0.8894,9.6641 -2.5144,12.8207l-1.7682 3.2026c-0.1244,0.2114 -0.1523,0.3186 -0.4086,0.3513zm-1.7765 -26.0389l0 0 -0.0204 -3.0716 -11.0119 -0.0032 -0.0128 28.9377 11.0576 -0.0108c-0.0719,-0.8314 -0.0121,-1.9115 -0.0123,-2.7329 -0.0004,-0.8867 -0.0018,-1.716 -0.002,-2.6314 -0.0009,-1.7705 -0.0031,-3.5028 -0.0003,-5.3224 0.0026,-1.5697 -0.1902,-3.9463 0.4875,-5.3844 0.195,-0.4136 0.7156,-1.1911 1.0638,-1.4495 0.1133,-0.0842 0.1247,-0.0726 0.2394,-0.1659 1.9189,-1.5626 4.5169,-1.4946 6.1127,0.4735 0.5212,0.6428 1.1951,2.1973 1.1951,3.2569 0,2.1008 -0.0878,2.7143 -0.7586,4.9195 -0.7462,2.453 -2.147,5.3948 -3.4461,7.6591 -0.1436,0.2499 -0.2412,0.452 -0.396,0.716 -0.0959,0.1636 -0.3256,0.5309 -0.3801,0.6693l13.9606 -0.004c-0.1704,-2.215 -0.0408,-2.6522 0.5506,-5.0703 0.2905,-1.1888 0.6517,-2.3517 0.9795,-3.5123 0.3451,-1.2228 0.6426,-2.3569 0.9111,-3.5937 0.7178,-3.3085 0.8403,-6.5148 -0.5935,-9.6374 -0.3438,-0.7489 -0.7152,-1.3129 -1.0899,-1.8892 -0.2041,-0.3141 -0.4583,-0.5732 -0.6658,-0.8554 -0.1889,-0.257 -0.4831,-0.5502 -0.6972,-0.7641 -3.178,-3.1753 -7.7318,-4.5761 -12.1742,-3.4095 -1.9718,0.5178 -3.0112,1.1586 -4.586,2.3022 -0.1694,0.123 -0.5471,0.5489 -0.7105,0.5738zm1.6996 -3.3344l0 0c-0.0097,-2.3849 0.349,-3.232 -1.203,-3.2333 -3.946,-0.0031 -8.3125,-0.0581 -12.2219,0.0001 -1.3348,0.0199 -1.035,1.0901 -1.035,2.3301 0,3.7265 -0.0874,30.7829 0.0476,31.2071 0.2234,0.7031 0.8997,0.619 1.6903,0.619l28.9969 0c2.639,0 2.0312,0.0848 1.7557,-2.247 -0.0754,-0.6377 0.0053,-1.5783 0.1115,-2.17 0.2754,-1.5339 1.3843,-5.4614 1.8606,-7.0805 0.5748,-1.9545 1.1995,-5.6183 0.9945,-7.9281 -0.3418,-3.8508 -1.7825,-6.65 -4.2817,-9.0997 -0.6057,-0.5936 -1.7819,-1.4886 -2.5498,-1.9533 -3.1758,-1.9215 -7.0837,-2.6728 -10.8659,-1.6929 -0.5195,0.1346 -1.1864,0.3294 -1.6833,0.5364l-1.6164 0.7122z"/>
   <path class="fil0" d="M121.1323 44.2503c0,0.2769 0.2577,0.4676 0.5262,0.4676l5.0277 0c0.3982,0 0.6921,-0.2909 0.7538,-0.6489 0.0475,-0.2743 0.0917,-0.3374 0.1199,-0.5817l0.2285 -1.1744c0.1728,-1.2614 1.105,-6.0172 1.1192,-6.6555 0.0082,0.0116 0.0186,0.0169 0.0218,0.0367l1.1431 2.2473c0.1007,0.1982 0.1699,0.3934 0.2785,0.5984l2.0104 4.069c0.093,0.1834 0.1994,0.3739 0.2974,0.5794 0.1049,0.22 0.1868,0.3777 0.2843,0.5927 0.1441,0.3186 0.3853,0.9368 0.8168,0.9368l5.5539 0c0.9154,0 0.8624,-0.8949 1.0005,-1.5716l0.5943 -3.3222c0.034,-0.1848 0.0761,-0.2958 0.1011,-0.5418l1.0873 -6.1029c0.0872,-0.3903 0.1232,-0.7546 0.2107,-1.1338 0.1094,-0.476 0.7475,-4.1478 0.7475,-4.5134 0,-0.294 -0.342,-0.4092 -0.643,-0.4092l-4.6184 0c-0.4517,0 -0.8488,0.1066 -0.9958,0.4072 -0.016,0.0326 -0.2124,1.0966 -0.2231,1.18 -0.0341,0.2728 -0.034,0.3538 -0.0917,0.6097l-0.6628 3.6045c-0.0552,0.2231 -0.0674,0.4088 -0.1054,0.6546 -0.0404,0.2613 -0.1003,0.4106 -0.1275,0.5739 -0.0815,0.4887 -0.2492,1.4887 -0.2492,1.9136 -0.0541,-0.0623 0.0006,0.0192 -0.0745,-0.1007 -0.3968,-0.632 -1.0087,-2.0291 -1.3823,-2.7682l-2.5355 -5.1224c-0.0059,-0.0118 -0.0146,-0.0263 -0.0206,-0.038l-0.0621 -0.1132c-0.225,-0.4585 -0.317,-0.8011 -0.9527,-0.8011l-5.2031 0c-0.437,0 -0.7667,0.0779 -0.9374,0.3486 -0.225,0.3564 -0.3175,1.6457 -0.4314,2.199 -0.035,0.1693 -0.1126,0.3488 -0.1358,0.5073 -0.1184,0.8085 -0.2957,2.0516 -0.4825,2.8494l-0.6017 3.315c-0.019,0.1496 -0.0645,0.3711 -0.1083,0.5346l-1.2781 7.3734z"/>
   <path class="fil0" d="M152.3506 22.3297c0,0.1727 0.2022,0.3507 0.3508,0.3507l5.32 0c0.7542,0 0.7672,-1.319 0.8588,-1.8889 0.1037,-0.646 0.511,-2.4891 0.5467,-2.9606 0.042,-0.5563 0.6109,-3.1521 0.6371,-3.5716 0.0203,-0.3263 -0.0805,-0.4336 0.1205,-0.5809 0.0762,0.3262 2.1751,4.4737 2.5226,5.1354l1.5574 3.1776c0.1515,0.2909 0.2284,0.6891 0.6554,0.6891l5.8462 0c0.2921,0 0.5445,-0.3642 0.6088,-0.6189 0.0404,-0.1596 0.0551,-0.4447 0.075,-0.5681 0.0385,-0.2398 0.06,-0.3146 0.1102,-0.5328l0.3841 -2.1878c0.0962,-0.5883 0.237,-1.072 0.2877,-1.6415l1.0633 -5.9513c0.0288,-0.156 0.0998,-0.3379 0.1353,-0.5077 0.0381,-0.1834 0.0484,-0.4157 0.0739,-0.5691l0.3755 -2.1965c0.0234,-0.1585 0.1008,-0.3381 0.1358,-0.5073l0.2583 -1.7877c0,-0.2828 -0.185,-0.4677 -0.4678,-0.4677l-5.1447 0c-0.8539,0 -0.8306,1.4374 -1.0266,2.3638 -0.0433,0.204 -0.0505,0.4297 -0.0829,0.6188l-0.2015 1.2013c-0.0361,0.1718 -0.1118,0.3494 -0.1352,0.5078 -0.0372,0.2525 -0.0353,0.3886 -0.0803,0.6213 -0.0427,0.2211 -0.0838,0.2935 -0.1287,0.5727 -0.0245,0.1527 -0.0501,0.4622 -0.0853,0.6161 -0.0465,0.2031 -0.1007,0.3871 -0.121,0.5805 -0.0684,0.6537 -0.2432,1.1697 -0.2432,1.8614l-0.2929 -0.5255c-0.0966,-0.1982 -0.1784,-0.3888 -0.2815,-0.5952 -0.1014,-0.2024 -0.1716,-0.3252 -0.2739,-0.5445l-1.5772 -3.158c-0.0531,-0.1064 -0.0764,-0.1764 -0.1269,-0.2823l-0.8055 -1.5912c-0.0058,-0.0119 -0.0141,-0.0265 -0.02,-0.0385 -0.0058,-0.0121 -0.0136,-0.0269 -0.0193,-0.0392l-0.0354 -0.0816c-0.0259,-0.0608 -0.0214,-0.0625 -0.0499,-0.1254l-0.7159 -1.4471c-0.072,-0.1644 -0.1083,-0.2868 -0.2503,-0.3926 -0.0978,-0.0726 -0.1826,-0.1227 -0.3451,-0.1227l-5.7875 0c-0.1967,0 -0.4142,0.1213 -0.5244,0.2356l-0.1814 0.3449c-0.0413,0.1502 -0.0532,0.363 -0.0872,0.5557 -0.0386,0.2195 -0.0828,0.3255 -0.1186,0.5245l-0.3915 2.2389c-0.0297,0.1538 -0.0263,0.3844 -0.066,0.577l-1.7973 9.8939c-0.0992,0.9647 -0.4584,1.8161 -0.4584,2.8151z"/>
   <path class="fil0" d="M55.9478 22.3297c0,0.1408 0.21,0.3507 0.3508,0.3507l5.3199 0c0.7054,0 0.649,-0.8326 0.7679,-1.2783l0.2878 -1.7579c0.024,-0.256 0.0859,-0.3077 0.1393,-0.5624l0.4992 -2.9495c0.1735,-0.7258 0.352,-1.7128 0.352,-2.454 0.1931,0.0698 0.184,0.1425 0.3347,0.4837 0.0977,0.2214 0.1808,0.3716 0.2888,0.588 0.1106,0.2209 0.1835,0.3588 0.287,0.5899 0.1041,0.2326 0.1775,0.3585 0.2967,0.5802l2.7082 5.4756c0.0687,0.1817 0.0612,0.1552 0.1452,0.3225 0.1142,0.2271 0.1755,0.3571 0.2959,0.5809 0.1308,0.2423 0.254,0.3812 0.4958,0.3812l5.7878 0c0.7693,0 0.7361,-1.2351 0.8409,-1.6726 0.1732,-0.7211 0.4181,-2.5194 0.5936,-3.2645l0.7686 -4.3754c0.0406,-0.2528 0.0905,-0.359 0.1192,-0.5239 0.0995,-0.5727 0.0133,-0.4152 0.2007,-1.0854 0.056,-0.1998 0.0341,-0.3236 0.0722,-0.5708l0.1942 -1.0919c0.1763,-0.9233 0.7766,-3.9061 0.7766,-4.6013 0,-0.2209 -0.369,-0.3507 -0.4092,-0.3507l-5.2616 0c-0.2289,0 -0.003,-0.0119 -0.2076,0.0846 -0.1824,0.0861 -0.0695,0.0033 -0.2198,0.1312 -0.1941,0.1651 -0.3046,0.7509 -0.3289,1.0156 -0.0324,0.352 -0.0526,0.3502 -0.1043,0.5972 -0.2218,1.058 -0.6111,3.8724 -0.8287,4.6662l-0.3569 2.3905c-0.1753,-0.1284 -0.073,-0.0352 -0.1707,-0.2385l-0.7072 -1.3972c-0.097,-0.1896 -0.1789,-0.3883 -0.2747,-0.6022l-1.1469 -2.3021c-0.3866,-0.7731 -0.7288,-1.4936 -1.1201,-2.2704 -0.2016,-0.3999 -0.3726,-0.7338 -0.5652,-1.1302 -0.0438,-0.0904 -0.0888,-0.1764 -0.1369,-0.2723 -0.1536,-0.3064 -0.2326,-0.6724 -0.6723,-0.6724l-5.7877 0c-0.7691,0 -0.7288,0.8992 -0.7844,1.1446l-0.3914 2.1808c-0.0426,0.2211 -0.0837,0.2936 -0.1286,0.5728l-0.1925 1.0934c-0.038,0.2472 -0.0162,0.3711 -0.0722,0.5709l-1.9035 10.4307c-0.075,0.3452 -0.152,0.8163 -0.152,1.1925z"/>
   <path class="fil0" d="M139.9569 18.9979c-0.4335,0 -0.7614,-0.0858 -1.1075,-0.2956l-0.074 -0.0429c-0.0763,-0.0452 -0.0307,-0.0099 -0.1107,-0.0646l-0.3675 -0.3339c-0.2722,-0.3364 -0.3809,-0.7743 -0.5129,-1.1825 -0.1694,-0.5243 -0.1031,-2.2086 -0.0419,-2.8082 0.0365,-0.3557 0.5279,-2.1385 0.7128,-2.5023 0.3082,-0.6056 0.2583,-0.6001 0.6793,-1.3084l0.4028 -0.5325c0.4536,-0.5181 1.2232,-1.0418 1.9395,-1.0418 0.6131,0 1.036,-0.0528 1.5167,0.3541l0.1261 0.1077c0.0764,0.0646 0.1096,0.0849 0.1845,0.1664 0.7447,0.8101 0.843,2.8174 0.6229,3.8676 -0.1075,0.5128 -0.1494,0.9817 -0.3515,1.6361l-0.7843 1.9631c-0.0566,0.1061 -0.0805,0.1107 -0.1417,0.2092 -0.1191,0.1923 -0.0794,0.2049 -0.2676,0.4337l-0.1624 0.1885c-0.5427,0.6258 -1.2855,1.1864 -2.2626,1.1864zm-9.2954 -3.5073l0 0c0,0.7447 0.1215,1.4207 0.225,2.0548 0.0794,0.4862 0.2807,1.0091 0.4887,1.4404l0.3357 0.5995c0.2334,0.3867 0.4832,0.803 0.8059,1.1231 0.822,0.8151 1.8185,1.4155 2.9183,1.7584l0.434 0.1507c1.3067,0.3741 3.4515,0.5562 4.8253,0.3326l2.3283 -0.4778c0.2785,-0.0689 0.3053,-0.0736 0.5431,-0.1584 0.6717,-0.2397 1.3335,-0.5091 1.95,-0.856 1.091,-0.6137 1.97,-1.3027 2.7745,-2.2528 0.0297,-0.0349 0.0235,-0.0289 0.0533,-0.0637l0.8165 -1.1126c0.2775,-0.4558 0.56,-0.8862 0.7871,-1.3759l0.2156 -0.4858c0.5173,-1.3063 0.9019,-2.6128 0.9019,-4.067 0,-1.1321 -0.1973,-2.0546 -0.6357,-3.047 -0.4291,-0.9716 -1.1386,-1.9347 -2.019,-2.5407l-0.5495 -0.3859c-0.0921,-0.0554 -0.2035,-0.1256 -0.2949,-0.1728l-0.9636 -0.4395c-0.767,-0.331 -2.2401,-0.6625 -3.0791,-0.6625 -1.2873,0 -2.4004,-0.018 -3.6413,0.2172l-1.6279 0.4182c-0.963,0.3037 -1.9003,0.7234 -2.7477,1.2859l-0.7777 0.5668c-0.2916,0.2191 -0.4979,0.4025 -0.749,0.654 -0.1183,0.1183 -0.2106,0.2001 -0.3223,0.3207l-0.3428 0.4173c-0.0079,0.009 -0.0195,0.022 -0.0273,0.0311l-1.5346 2.3822c-0.6586,1.3126 -1.0908,2.8639 -1.0908,4.3455z"/>
   <path class="fil0" d="M98.8001 32.7932l0.0748 1.5619c0.124,0.9571 0.1484,2.2837 0.2585,3.1317 0.0286,0.2198 0.0619,0.4578 0.0758,0.6258l-2.923 0c0.0495,-0.2124 0.2054,-0.5468 0.3037,-0.7487 0.0711,-0.1462 0.0935,-0.1713 0.1656,-0.3604 0.0663,-0.1735 0.0077,-0.0359 0.0695,-0.1644 0.0373,-0.0778 0.0623,-0.1212 0.0956,-0.1966l1.9011 -4.4122c0.0045,-0.0111 0.0143,-0.0315 0.0182,-0.0404 0.0036,-0.0088 0.0109,-0.0274 0.0187,-0.0397 0,0.2964 -0.0584,0.3184 -0.0584,0.643zm-12.3355 11.3403l0 0c0,0.2528 -0.0416,0.5845 0.5846,0.5845l5.5539 0c0.6135,0 0.8356,-0.7347 1.0609,-1.1605l0.693 -1.5284 5.2614 0c0,0.797 0.043,0.9813 0.1514,1.7193 0.0861,0.5871 -0.0142,0.9696 0.6671,0.9696l5.4954 0c1.2029,0 0.6507,-1.3609 0.5883,-1.9327l-0.3755 -2.1381c-0.1366,-0.5523 -0.3993,-2.6471 -0.5526,-3.247l-0.9469 -5.4248c-0.0454,-0.4448 -0.1424,-0.6577 -0.1803,-1.1059 -0.0315,-0.3718 -0.1248,-0.6593 -0.1868,-1.0407l-0.2681 -1.661c-0.1701,-0.7969 -0.1033,-1.0447 -0.8844,-1.0447l-6.5477 0c-0.2643,0 -0.5162,0.0267 -0.6939,0.1244 -0.1729,0.0951 -0.4078,0.5454 -0.5221,0.7639 -0.0663,0.1264 -0.0664,0.1471 -0.1391,0.2701l-0.4676 0.8185c-0.0528,0.0997 -0.0792,0.1377 -0.1439,0.2654l-2.4175 4.3635c-0.074,0.1204 -0.0683,0.113 -0.1475,0.2618l-4.697 8.4559c-0.1113,0.2073 -0.2102,0.3363 -0.3208,0.556 -0.1115,0.2218 -0.1755,0.324 -0.2901,0.5283 -0.1351,0.2411 -0.2742,0.4014 -0.2742,0.6026z"/>
   <path class="fil0" d="M79.2154 34.839l0.6771 -3.8241c0.0804,-0.6351 -0.1787,-0.5237 1.3708,-0.445 0.8102,0.0411 1.5767,0.4294 1.5767,1.4048 0,0.8028 -0.1345,1.3919 -0.6658,2.0232 -0.1058,0.1256 -0.0594,0.0733 -0.1859,0.1649l-0.1359 0.098c-0.7811,0.6039 -1.6375,0.5782 -2.637,0.5782zm-8.5937 9.1774l0 0c0,0.4793 -0.078,0.4384 0.2185,0.6 0.1266,0.0688 0.2457,0.1015 0.4246,0.1015l5.4369 0c0.9914,0 0.8625,-1.0112 1.0967,-2.0599l0.315 -1.7895c0.0983,-0.6758 0.459,-2.2141 0.459,-2.7559 1.7656,0 2.7384,0.1018 4.3834,-0.1766l1.0001 -0.2275c0.5909,-0.1442 1.0274,-0.3368 1.5582,-0.6048 0.1258,-0.0635 0.1444,-0.0618 0.2748,-0.1345 0.5144,-0.2871 1.0695,-0.6706 1.4716,-1.1006l0.8996 -1.2048c0.3852,-0.7181 0.5368,-0.9703 0.7366,-1.7772 0.2162,-0.8732 0.2714,-2.1253 -0.1638,-2.9462 -0.3998,-0.7542 -0.4123,-0.8997 -1.2497,-1.5562l-0.6334 -0.4187c-0.875,-0.4895 -1.5611,-0.5397 -2.436,-0.7209 -0.925,-0.1916 -8.9806,-0.1216 -9.8167,-0.1216 -1.2138,0 -0.99,0.647 -1.1687,1.4035l-0.9939 5.4947c-0.071,0.6984 -0.5281,2.625 -0.5893,3.3271 -0.0303,0.3478 -0.1792,0.7316 -0.2208,1.0653l-1.0027 5.6028z"/>
   <path class="fil0" d="M120.1969 12.8016l-0.7014 0c0,-0.396 0.2573,-1.6813 0.364,-2.1495l0.2615 -1.6675c0.0463,-0.2387 0.0878,-0.309 0.1345,-0.5086 0.5344,0 1.4638,0.0401 1.9391,0.2237 0.4054,0.1567 0.6792,0.4082 0.8187,0.8182 0.123,0.3614 0.1665,0.5982 0.0835,1.0377 -0.0751,0.3973 -0.239,0.8275 -0.4523,1.1275 -0.4325,0.608 -0.9801,1.1184 -2.4476,1.1184zm-9.3539 9.4696l0 0c0,0.1415 0.2679,0.4093 0.4093,0.4093l5.8462 0c0.243,0 0.5228,-0.2071 0.6221,-0.3718l0.9598 -5.2948c0.0263,-0.2759 0.1453,-0.5595 0.172,-0.8803 0.8462,0 2.3196,0.0337 3.1077,-0.0492 0.179,-0.0187 0.3126,-0.0053 0.494,-0.0321l0.9223 -0.13c0.156,-0.0385 0.2286,-0.0796 0.4114,-0.1147 0.21,-0.0404 0.2609,-0.0325 0.4381,-0.0881 0.1198,-0.0376 0.246,-0.0977 0.3831,-0.143 0.3035,-0.1005 0.505,-0.1468 0.7714,-0.2808 0.1748,-0.0879 0.1486,-0.0917 0.3461,-0.18 0.1744,-0.078 0.1922,-0.0952 0.3415,-0.1848 0.3616,-0.2172 0.2065,-0.0633 0.6518,-0.4004 0.2062,-0.1561 0.4165,-0.2903 0.5958,-0.4566 0.0955,-0.0887 0.1728,-0.1682 0.2614,-0.2646 0.0526,-0.0573 0.0632,-0.0717 0.1087,-0.1252 0.0079,-0.0091 0.0189,-0.0224 0.0269,-0.0316 0.0079,-0.0093 0.0187,-0.0226 0.0265,-0.0319 0.2834,-0.3337 0.2942,-0.4348 0.5098,-0.718l0.7175 -1.3869c0.3053,-0.7595 0.4367,-1.8134 0.2682,-2.6062 -0.1202,-0.5649 0.0338,-0.4597 -0.3723,-1.206 -0.0568,-0.1045 -0.0603,-0.1281 -0.1139,-0.237 -0.6344,-1.2917 -2.7447,-2.1509 -4.1078,-2.2058 -0.4324,-0.0174 -0.689,-0.1165 -1.1697,-0.1165l-8.9444 0c-0.1596,0 -0.3689,0.1089 -0.4624,0.1808 -0.3369,0.2591 -0.312,0.712 -0.4387,1.4903l-0.3106 1.6184c-0.0517,0.2382 -0.0518,0.3675 -0.0833,0.6181 -0.048,0.38 -0.3304,1.5113 -0.3993,2.173l-0.411 2.2195c-0.0676,0.6611 -0.1697,0.7691 -0.2181,1.0679l-1.0546 6.077c-0.0428,0.1868 -0.0754,0.3236 -0.1057,0.5372l-0.1995 1.145z"/>
   <path class="fil0" d="M100.9045 12.8016l-0.7014 0 0.4494 -2.7072c0.0402,-0.2509 0.0932,-0.3632 0.1198,-0.5231l0.1908 -1.0953c0.9897,0 1.9562,-0.002 2.4981,0.6004l0.109 0.1246c0.4601,0.5666 0.3301,1.4433 0.0452,2.0438 -0.297,0.626 -0.6142,0.9584 -1.1852,1.2701 -0.3677,0.2008 -1.0203,0.2867 -1.5257,0.2867zm-8.8277 9.8789l0 0 5.8462 0c0.0864,0 0.2302,-0.1047 0.3079,-0.1598 0.3941,-0.2788 0.277,-0.6153 0.3972,-1.1812l0.3387 -1.7071c0.0201,-0.1817 0.005,-0.2482 0.0416,-0.426 0.1411,-0.6811 0.5048,-2.8534 0.61,-3.0727 0.594,0 3.0393,0.0117 3.6022,-0.0808 1.7644,-0.2903 2.8354,-0.5422 4.3824,-1.6391 0.5923,-0.42 1.311,-1.2933 1.6369,-1.9289 0.242,-0.4719 0.6642,-1.4356 0.7191,-1.9116 0.1492,-1.2968 0.0512,-2.498 -0.734,-3.4606 -0.114,-0.1399 -0.1654,-0.2248 -0.2944,-0.3485 -0.4618,-0.4421 -0.9662,-0.7508 -1.5559,-1.0163 -0.1978,-0.089 -0.2604,-0.0932 -0.4788,-0.1643 -0.2013,-0.0658 -0.2924,-0.0984 -0.5009,-0.1421 -0.2269,-0.0476 -0.2889,-0.0812 -0.5136,-0.1296 -0.194,-0.0416 -0.3343,-0.0364 -0.5878,-0.0553 -0.4016,-0.03 -0.6933,-0.1126 -1.1735,-0.1126l-8.8861 0c-0.3944,0 -0.6356,0.3035 -0.6954,0.649l-0.4083 2.2808c-0.0518,0.2479 -0.088,0.2958 -0.1342,0.5673 -0.0288,0.171 -0.032,0.4309 -0.0732,0.6282l-0.6291 3.4044c-0.0408,0.1685 -0.0816,0.3682 -0.1223,0.5793 -0.0296,0.1546 -0.0537,0.4649 -0.0834,0.618 -0.0463,0.2385 -0.0983,0.3195 -0.1256,0.5173l-0.2942 1.7519c-0.041,0.2007 -0.0917,0.3458 -0.1146,0.5283 -0.0319,0.2518 -0.0323,0.3787 -0.0833,0.6182 -0.0395,0.1848 -0.0865,0.3032 -0.1276,0.5738 -0.0363,0.2382 -0.0361,0.4171 -0.0882,0.6133 -0.1748,0.6568 -0.0881,0.6023 -0.2131,1.1314l-0.4088 2.283c-0.0923,0.3854 -0.0479,0.7923 0.4443,0.7923z"/>
   <path class="fil0" d="M146.7385 31.3318l3.8 0c0,0.4307 -0.5257,2.9277 -0.5802,3.4535l-1.2972 7.2957c-0.0766,0.3929 -0.3969,1.9279 -0.3841,2.1676 0.0157,0.2965 0.3404,0.4694 0.5661,0.4694l5.7875 0c0.3002,0 0.5544,-0.1248 0.6881,-0.3057 0.19,-0.2574 0.2853,-1.234 0.379,-1.667 0.0265,-0.1225 0.0752,-0.2894 0.0933,-0.4328l1.464 -8.2981c0.0606,-0.3005 0.1362,-0.5737 0.1714,-0.8807l0.3026 -1.8018 3.8585 0c0.9548,0 0.8963,-0.7754 0.955,-0.974 0.057,-0.1927 0.0989,-0.3549 0.1323,-0.5694l0.1819 -1.1041c0.0877,-0.6213 0.4079,-1.2166 -0.0695,-1.4747 -0.1064,-0.0576 -0.3452,-0.0865 -0.498,-0.0865l-14.6739 0c-0.9431,0 -1.0099,0.3884 -1.1192,1.2776l-0.403 2.0537c-0.0326,0.2826 -0.1835,0.8774 0.6454,0.8774z"/>
   <path class="fil0" d="M109.9076 44.7179l5.7878 0c0.1679,0 0.3572,-0.1072 0.4633,-0.1798 0.0101,-0.007 0.0242,-0.0169 0.0341,-0.0242 0.2841,-0.21 0.2139,-0.264 0.2796,-0.5974 0.0161,-0.082 0.0462,-0.1615 0.0735,-0.2772l0.229 -1.3494c0.0264,-0.1144 0.06,-0.1982 0.0737,-0.2769l0.3664 -2.2057c0.0386,-0.3861 0.1484,-0.68 0.2105,-1.0754l0.195 -1.0912c0.0546,-0.6311 0.3021,-1.5416 0.3976,-2.1743l0.2648 -1.6643c0.0234,-0.1585 0.1008,-0.3381 0.1356,-0.5073l0.9598 -5.7627c0,-0.1202 -0.0252,-0.115 -0.0865,-0.2058 -0.1428,-0.2109 -0.4631,-0.2034 -0.732,-0.2034l-5.3784 0c-0.437,0 -0.7569,0.1249 -0.9165,0.4281 -0.114,0.2167 -0.0626,0.3185 -0.1097,0.5918l-0.3141 1.7319c-0.0491,0.4673 -0.1634,0.7882 -0.2219,1.1811l-2.0181 11.1344c-0.0424,0.1833 -0.0315,0.4014 -0.0778,0.6236 -0.2021,0.9723 -0.5431,1.904 0.3842,1.904z"/>
   <path class="fil0" d="M79.7416 22.2712c0,0.229 0.2175,0.4093 0.4676,0.4093l6.1384 0c0.1387,0 0.5097,-0.2397 0.6014,-0.6263 0.028,-0.1185 0.0463,-0.39 0.0736,-0.5694l2.4389 -13.6365c0.0509,-0.3461 0.3939,-1.6355 0.3939,-2.1781 0,-0.294 -0.1092,-0.5261 -0.526,-0.5261l-5.9046 0c-0.331,0 -0.6136,0.1967 -0.7255,0.5607l-0.5941 3.3224c-0.1435,0.4858 -0.2503,1.6186 -0.3868,2.1853l-1.1137 6.0177c-0.0423,0.1821 -0.0355,0.3956 -0.0759,0.6256 -0.0397,0.2257 -0.1042,0.3656 -0.1287,0.5144 -0.0372,0.2273 -0.0243,0.3804 -0.0663,0.5767 -0.1191,0.5584 -0.592,2.977 -0.592,3.3243z"/>
   <path class="fil0" d="M22.6791 39.1031c0.2563,-0.0326 0.2842,-0.1399 0.4086,-0.3513l1.7682 -3.2026c1.625,-3.1567 5.0463,-9.7611 2.5144,-12.8207 -1.0499,-1.2686 -2.9032,-1.0933 -3.9013,0.0949 -1.0784,1.2841 -0.8677,2.8721 -0.8677,4.8842 0,1.3681 -0.1164,10.962 0.0777,11.3955z"/>
   <path class="fil0" d="M44.4364 0.175c2.3443,-0.0688 4.5413,1.6126 5.4441,3.2619 0.8554,1.5626 0.8588,2.4909 0.8588,4.3376l0 41.677c-2.3176,0.0849 -4.7919,0.0058 -7.1269,0.0058l-35.5446 0c-1.2006,0 -2.2379,0.0322 -3.2686,-0.2966 -1.3976,-0.4457 -2.2677,-1.0688 -3.2113,-2.1718 -0.1817,-0.2122 -0.5143,-0.6925 -0.697,-1.0567 -0.3599,-0.7175 -0.7628,-1.8342 -0.6983,-2.8125 -0.1428,-0.1994 -0.0668,-4.6935 -0.0668,-5.2995l0 -32.267c0,-1.7568 -0.0752,-3.6851 0.007,-5.4206 0.6251,-0.1033 31.4949,-0.0244 33.2489,-0.0244l10.4063 -0.0004c0.2371,-0.0012 0.4683,-0.0305 0.6485,0.0672zm-44.4364 43.3155l0 0c0,0.6068 0.2289,1.3106 0.4219,1.8579 0.0512,0.1453 0.0604,0.1359 0.1318,0.2774 0.3782,0.7495 0.4906,1.0382 1.0613,1.6863l0.6744 0.67c0.0548,0.0452 0.0686,0.0515 0.1326,0.1013l1.4214 0.9171c0.603,0.2861 1.6728,0.6277 2.5291,0.6277l44.5477 0 0 -43.3735c0,-1.0099 -0.6011,-2.6499 -1.1926,-3.4256 -0.7351,-0.9646 -1.4221,-1.602 -2.515,-2.1616 -0.1737,-0.0889 -0.3446,-0.1605 -0.5205,-0.2394 -0.4588,-0.2062 -1.4194,-0.4281 -1.9103,-0.4281l-44.7817 0 0 43.4904z"/>
   <path class="fil3" d="M0.1925 43.1198l-0.0039 -42.9515 44.2477 0.0067c-0.1801,-0.0976 -0.4114,-0.0683 -0.6485,-0.0672l-10.4063 0.0004c-1.754,0 -32.6238,-0.0789 -33.2489,0.0244 -0.0822,1.7355 -0.007,3.6638 -0.007,5.4206l0 32.267c0,0.606 -0.076,5.1001 0.0668,5.2995z"/>
   <path class="fil4" d="M2.6357 43.1334l0.0065 -40.5076 41.82 -0.0028c-0.1867,-0.0957 -0.4422,-0.0618 -0.6745,-0.0607 -5.2936,0.023 -40.5544,-0.0891 -41.1988,0.0263 -0.0696,3.3568 -0.0029,6.7892 -0.0029,10.1546l0 20.3423c0,0.1666 -0.0779,9.8253 0.0497,10.0479z"/>
  </g>
 </g>
</svg>
