<svg width="298" height="38" viewBox="0 0 298 38" fill="none" xmlns="http://www.w3.org/2000/svg">
<path d="M2.51005 18.0898C2.61271 17.7445 3.08405 17.5718 3.92405 17.5718H7.07405L8.04005 14.6738V14.6598C8.21738 14.1372 8.42271 13.7872 8.65605 13.6098C8.88938 13.4325 9.11805 13.4325 9.34205 13.6098C9.56605 13.7872 9.76671 14.1372 9.94405 14.6598L9.95805 14.6738L10.91 17.5718H14.074C14.6154 17.5718 15.012 17.6512 15.264 17.8098C15.516 17.9685 15.5814 18.1878 15.46 18.4678C15.3387 18.7478 15.0634 19.0418 14.634 19.3498L14.564 19.4058L12.1 21.1698L13.038 24.0678L13.066 24.0958C13.318 24.8892 13.2994 25.3978 13.01 25.6218C12.7207 25.8458 12.2307 25.7105 11.54 25.2158L11.47 25.1738L8.99205 23.3958L6.48605 25.1878L6.45805 25.2158C5.77671 25.7012 5.28671 25.8365 4.98805 25.6218C4.68938 25.4072 4.67071 24.8985 4.93205 24.0958L4.94605 24.0818V24.0538L5.89805 21.1698L3.42005 19.4058L3.36405 19.3498C2.68271 18.8645 2.39805 18.4445 2.51005 18.0898Z" fill="#F3C903"/>
<path d="M19.7093 18.0898C19.8119 17.7445 20.2833 17.5718 21.1233 17.5718H24.2733L25.2393 14.6738V14.6598C25.4166 14.1372 25.6219 13.7872 25.8553 13.6098C26.0886 13.4325 26.3173 13.4325 26.5413 13.6098C26.7653 13.7872 26.9659 14.1372 27.1433 14.6598L27.1573 14.6738L28.1093 17.5718H31.2733C31.8146 17.5718 32.2113 17.6512 32.4633 17.8098C32.7153 17.9685 32.7806 18.1878 32.6593 18.4678C32.5379 18.7478 32.2626 19.0418 31.8333 19.3498L31.7633 19.4058L29.2993 21.1698L30.2373 24.0678L30.2653 24.0958C30.5173 24.8892 30.4986 25.3978 30.2093 25.6218C29.9199 25.8458 29.4299 25.7105 28.7393 25.2158L28.6693 25.1738L26.1913 23.3958L23.6853 25.1878L23.6573 25.2158C22.9759 25.7012 22.4859 25.8365 22.1873 25.6218C21.8886 25.4072 21.8699 24.8985 22.1313 24.0958L22.1453 24.0818V24.0538L23.0973 21.1698L20.6193 19.4058L20.5633 19.3498C19.8819 18.8645 19.5973 18.4445 19.7093 18.0898Z" fill="#F3C903"/>
<path d="M36.9202 18.0898C37.0229 17.7445 37.4942 17.5718 38.3342 17.5718H41.4842L42.4502 14.6738V14.6598C42.6275 14.1372 42.8329 13.7872 43.0662 13.6098C43.2995 13.4325 43.5282 13.4325 43.7522 13.6098C43.9762 13.7872 44.1769 14.1372 44.3542 14.6598L44.3682 14.6738L45.3202 17.5718H48.4842C49.0255 17.5718 49.4222 17.6512 49.6742 17.8098C49.9262 17.9685 49.9915 18.1878 49.8702 18.4678C49.7489 18.7478 49.4735 19.0418 49.0442 19.3498L48.9742 19.4058L46.5102 21.1698L47.4482 24.0678L47.4762 24.0958C47.7282 24.8892 47.7095 25.3978 47.4202 25.6218C47.1309 25.8458 46.6409 25.7105 45.9502 25.2158L45.8802 25.1738L43.4022 23.3958L40.8962 25.1878L40.8682 25.2158C40.1869 25.7012 39.6969 25.8365 39.3982 25.6218C39.0995 25.4072 39.0809 24.8985 39.3422 24.0958L39.3562 24.0818V24.0538L40.3082 21.1698L37.8302 19.4058L37.7742 19.3498C37.0929 18.8645 36.8082 18.4445 36.9202 18.0898Z" fill="#F3C903"/>
<path d="M54.1194 18.0898C54.2221 17.7445 54.6934 17.5718 55.5334 17.5718H58.6834L59.6494 14.6738V14.6598C59.8268 14.1372 60.0321 13.7872 60.2654 13.6098C60.4988 13.4325 60.7274 13.4325 60.9514 13.6098C61.1754 13.7872 61.3761 14.1372 61.5534 14.6598L61.5674 14.6738L62.5194 17.5718H65.6834C66.2248 17.5718 66.6214 17.6512 66.8734 17.8098C67.1254 17.9685 67.1908 18.1878 67.0694 18.4678C66.9481 18.7478 66.6728 19.0418 66.2434 19.3498L66.1734 19.4058L63.7094 21.1698L64.6474 24.0678L64.6754 24.0958C64.9274 24.8892 64.9088 25.3978 64.6194 25.6218C64.3301 25.8458 63.8401 25.7105 63.1494 25.2158L63.0794 25.1738L60.6014 23.3958L58.0954 25.1878L58.0674 25.2158C57.3861 25.7012 56.8961 25.8365 56.5974 25.6218C56.2988 25.4072 56.2801 24.8985 56.5414 24.0958L56.5554 24.0818V24.0538L57.5074 21.1698L55.0294 19.4058L54.9734 19.3498C54.2921 18.8645 54.0074 18.4445 54.1194 18.0898Z" fill="#F3C903"/>
<path d="M70.8727 18.4263C70.7607 18.137 70.8353 17.9036 71.0967 17.7263C71.358 17.549 71.7827 17.465 72.3707 17.4743H75.7587L76.7947 14.3663V14.3523C76.9253 13.9323 77.0793 13.615 77.2567 13.4003C77.434 13.1856 77.6183 13.0783 77.8097 13.0783C78.001 13.0783 78.1853 13.1856 78.3627 13.4003C78.54 13.615 78.694 13.9323 78.8247 14.3523L78.8387 14.3663L79.8607 17.4743H83.2487C83.8367 17.4743 84.2613 17.5583 84.5227 17.7263C84.784 17.8943 84.8587 18.1276 84.7467 18.4263C84.6347 18.725 84.336 19.0423 83.8507 19.3783L83.7807 19.4343L81.1207 21.3243L82.1707 24.4603C82.348 25.0203 82.3993 25.445 82.3247 25.7343C82.25 26.0236 82.0633 26.173 81.7647 26.1823C81.4193 26.1823 81.0087 26.005 80.5327 25.6503L80.5047 25.6223L80.4627 25.6083L77.8167 23.7043L75.0867 25.6503C74.6013 26.0143 74.1907 26.1963 73.8547 26.1963C73.5653 26.1963 73.3787 26.047 73.2947 25.7483C73.2107 25.4496 73.262 25.0203 73.4487 24.4603L74.4987 21.3243L71.8387 19.4343L71.8107 19.3923L71.7687 19.3783C71.2927 19.033 70.994 18.7156 70.8727 18.4263ZM73.1827 18.7903L76.0247 20.8203L74.9327 24.1523L77.8167 22.0943L80.6867 24.1523L79.5947 20.8203L82.4367 18.7903H78.9227L78.6287 17.8803L77.8167 15.4303L76.6967 18.7903H73.1827Z" fill="#F3C903"/>
</svg>
