<svg width="51" height="51" viewBox="0 0 51 51" fill="none" xmlns="http://www.w3.org/2000/svg">
<path d="M48.6543 15.1299H40.4876C40.0432 15.1299 39.6821 15.2965 39.4043 15.6299C39.1265 15.9632 38.9876 16.2965 38.9876 16.6299V21.6299H37.1543V7.29655L39.821 5.46321C40.2654 5.12988 40.4876 4.68544 40.4876 4.12988V2.12988C40.4876 1.57433 40.2099 1.12988 39.6543 0.796547C39.0987 0.463215 38.5432 0.518768 37.9876 0.963215L5.82096 23.7965C5.70985 23.9077 5.62652 24.0743 5.57096 24.2965C5.51541 24.5188 5.54319 24.7132 5.6543 24.8799C5.76541 25.0465 5.93208 25.1577 6.1543 25.2132C6.37652 25.2688 6.59874 25.241 6.82096 25.1299L38.9876 2.12988V4.29655L1.6543 30.7965V28.6299L3.82096 27.1299C3.93207 27.0188 4.01541 26.8521 4.07096 26.6299C4.12652 26.4077 4.09874 26.2132 3.98763 26.0465C3.87652 25.8799 3.70985 25.7965 3.48763 25.7965C3.26541 25.7965 3.09874 25.8521 2.98763 25.9632L0.820964 27.4632C0.376519 27.7965 0.154297 28.241 0.154297 28.7965V30.7965C0.154297 31.3521 0.432075 31.7965 0.98763 32.1299C1.20985 32.241 1.45985 32.2965 1.73763 32.2965C2.01541 32.2965 2.32096 32.1854 2.6543 31.9632L13.1543 24.4632V34.6299H11.321C10.9876 34.6299 10.6543 34.7688 10.321 35.0465C9.98763 35.3243 9.82096 35.6854 9.82096 36.1299V41.1299H1.6543C1.20985 41.1299 0.848741 41.2688 0.570964 41.5465C0.293186 41.8243 0.154297 42.1854 0.154297 42.6299V48.2965C0.154297 48.9632 0.376519 49.5188 0.820964 49.9632C1.26541 50.4077 1.82096 50.6299 2.48763 50.6299H9.1543C9.37652 50.6299 9.54319 50.5465 9.6543 50.3799C9.76541 50.2132 9.82096 50.0465 9.82096 49.8799C9.82096 49.7132 9.76541 49.5465 9.6543 49.3799C9.54319 49.2132 9.37652 49.1299 9.1543 49.1299H2.48763C2.26541 49.1299 2.07096 49.0465 1.9043 48.8799C1.73763 48.7132 1.6543 48.5188 1.6543 48.2965V45.7965H9.82096C10.2654 45.7965 10.6265 45.6577 10.9043 45.3799C11.1821 45.1021 11.321 44.741 11.321 44.2965V39.2965H13.1543V40.9632C13.1543 41.4077 13.2932 41.7688 13.571 42.0465C13.8487 42.3243 14.2099 42.4632 14.6543 42.4632H16.321C16.6543 42.4632 16.9876 42.3243 17.321 42.0465C17.6543 41.7688 17.821 41.4077 17.821 40.9632V39.2965H19.4876C19.9321 39.2965 20.2932 39.1577 20.571 38.8799C20.8487 38.6021 20.9876 38.241 20.9876 37.7965V32.7965H29.1543C29.5987 32.7965 29.9876 32.6577 30.321 32.3799C30.6543 32.1021 30.821 31.741 30.821 31.2965V26.2965H32.4876V28.1299C32.4876 28.4632 32.6543 28.7965 32.9876 29.1299C33.321 29.4632 33.6543 29.6299 33.9876 29.6299H35.6543C36.0987 29.6299 36.4599 29.4632 36.7376 29.1299C37.0154 28.7965 37.1543 28.4632 37.1543 28.1299V26.2965H38.9876C39.321 26.2965 39.6543 26.1577 39.9876 25.8799C40.321 25.6021 40.4876 25.241 40.4876 24.7965V19.9632H48.6543V48.2965C48.6543 48.5188 48.571 48.7132 48.4043 48.8799C48.2376 49.0465 48.0432 49.1299 47.821 49.1299H45.321V36.9632C45.321 36.2965 45.0987 35.741 44.6543 35.2965C44.2099 34.8521 43.6543 34.6299 42.9876 34.6299H31.4876C30.9321 34.6299 30.4321 34.8521 29.9876 35.2965C29.5432 35.741 29.321 36.2965 29.321 36.9632V49.1299H11.9876C11.8765 49.1299 11.7376 49.2132 11.571 49.3799C11.4043 49.5465 11.321 49.7132 11.321 49.8799C11.321 50.0465 11.4043 50.2132 11.571 50.3799C11.7376 50.5465 11.8765 50.6299 11.9876 50.6299H47.821C48.4876 50.6299 49.0432 50.4077 49.4876 49.9632C49.9321 49.5188 50.1543 48.9632 50.1543 48.2965V16.6299C50.1543 16.2965 50.0154 15.9632 49.7376 15.6299C49.4599 15.2965 49.0987 15.1299 48.6543 15.1299ZM33.9876 49.1299V39.2965H40.6543V49.1299H33.9876ZM41.9876 49.1299V39.2965C41.9876 38.9632 41.8487 38.6299 41.571 38.2965C41.2932 37.9632 40.9321 37.7965 40.4876 37.7965H33.9876C33.5432 37.7965 33.1821 37.9632 32.9043 38.2965C32.6265 38.6299 32.4876 38.9632 32.4876 39.2965V49.1299H30.821V36.9632C30.821 36.741 30.8765 36.5465 30.9876 36.3799C31.0987 36.2132 31.2654 36.1299 31.4876 36.1299H42.9876C43.2099 36.1299 43.4043 36.2132 43.571 36.3799C43.7376 36.5465 43.821 36.741 43.821 36.9632V49.1299H41.9876ZM35.821 10.4632L33.9876 11.7965V9.62988L35.821 8.29655V10.4632ZM29.321 23.1299V25.6299V28.1299H21.1543C20.7099 28.1299 20.321 28.2688 19.9876 28.5465C19.6543 28.8243 19.4876 29.1854 19.4876 29.6299V34.6299H17.821V21.1299L32.4876 10.6299V21.6299H30.821C30.3765 21.6299 30.0154 21.7965 29.7376 22.1299C29.4599 22.4632 29.321 22.7965 29.321 23.1299ZM16.321 22.1299V24.2965L14.4876 25.6299V23.4632L16.321 22.1299ZM1.6543 44.2965V42.6299L9.82096 42.4632V44.2965H1.6543ZM11.321 37.7965V36.1299H13.1543V37.7965H11.321ZM16.321 40.9632C16.321 41.0743 16.321 41.1299 16.321 41.1299H14.6543C14.5432 41.1299 14.4876 41.0743 14.4876 40.9632V27.4632L16.321 26.1299V40.9632ZM19.4876 37.7965H17.821V36.1299H19.4876V37.7965ZM20.9876 31.2965V29.6299H29.321V31.2965C29.321 31.2965 29.2654 31.2965 29.1543 31.2965H20.9876ZM30.821 24.9632V23.1299H32.4876V24.9632H30.821ZM35.821 28.1299C35.821 28.1299 35.7654 28.1299 35.6543 28.1299H33.9876V13.6299L35.821 12.2965V28.1299ZM38.9876 24.7965C38.9876 24.9077 38.9876 24.9632 38.9876 24.9632H37.1543V23.1299H38.9876V24.7965ZM40.4876 18.4632V16.6299H48.6543V18.4632H40.4876ZM38.4876 43.4632H38.1543C37.9321 43.4632 37.7376 43.5465 37.571 43.7132C37.4043 43.8799 37.321 44.0465 37.321 44.2132C37.321 44.3799 37.4043 44.5465 37.571 44.7132C37.7376 44.8799 37.9321 44.9632 38.1543 44.9632H38.4876C38.7099 44.9632 38.8765 44.8799 38.9876 44.7132C39.0987 44.5465 39.1543 44.3799 39.1543 44.2132C39.1543 44.0465 39.0987 43.8799 38.9876 43.7132C38.8765 43.5465 38.7099 43.4632 38.4876 43.4632Z" fill="#374A75"/>
</svg>
