<svg width="51" height="51" viewBox="0 0 51 51" fill="none" xmlns="http://www.w3.org/2000/svg">
<path d="M48.6553 15.5H40.4886C40.0442 15.5 39.6831 15.6667 39.4053 16C39.1275 16.3333 38.9886 16.6667 38.9886 17V22H37.1553V7.66667L39.8219 5.83333C40.2664 5.5 40.4886 5.05555 40.4886 4.5V2.5C40.4886 1.94444 40.2108 1.5 39.6553 1.16667C39.0997 0.833332 38.5442 0.888887 37.9886 1.33333L5.82194 24.1667C5.71083 24.2778 5.6275 24.4444 5.57194 24.6667C5.51638 24.8889 5.54416 25.0833 5.65527 25.25C5.76638 25.4167 5.93305 25.5278 6.15527 25.5833C6.3775 25.6389 6.59972 25.6111 6.82194 25.5L38.9886 2.5V4.66667L1.65527 31.1667V29L3.82194 27.5C3.93305 27.3889 4.01638 27.2222 4.07194 27C4.1275 26.7778 4.09972 26.5833 3.98861 26.4167C3.8775 26.25 3.71083 26.1667 3.48861 26.1667C3.26638 26.1667 3.09972 26.2222 2.98861 26.3333L0.82194 27.8333C0.377496 28.1667 0.155273 28.6111 0.155273 29.1667V31.1667C0.155273 31.7222 0.433051 32.1667 0.988607 32.5C1.21083 32.6111 1.46083 32.6667 1.73861 32.6667C2.01638 32.6667 2.32194 32.5556 2.65527 32.3333L13.1553 24.8333V35H11.3219C10.9886 35 10.6553 35.1389 10.3219 35.4167C9.98861 35.6944 9.82194 36.0556 9.82194 36.5V41.5H1.65527C1.21083 41.5 0.849718 41.6389 0.57194 41.9167C0.294162 42.1944 0.155273 42.5556 0.155273 43V48.6667C0.155273 49.3333 0.377496 49.8889 0.82194 50.3333C1.26638 50.7778 1.82194 51 2.48861 51H9.15527C9.3775 51 9.54416 50.9167 9.65527 50.75C9.76638 50.5833 9.82194 50.4167 9.82194 50.25C9.82194 50.0833 9.76638 49.9167 9.65527 49.75C9.54416 49.5833 9.3775 49.5 9.15527 49.5H2.48861C2.26638 49.5 2.07194 49.4167 1.90527 49.25C1.73861 49.0833 1.65527 48.8889 1.65527 48.6667V46.1667H9.82194C10.2664 46.1667 10.6275 46.0278 10.9053 45.75C11.1831 45.4722 11.3219 45.1111 11.3219 44.6667V39.6667H13.1553V41.3333C13.1553 41.7778 13.2942 42.1389 13.5719 42.4167C13.8497 42.6944 14.2108 42.8333 14.6553 42.8333H16.3219C16.6553 42.8333 16.9886 42.6944 17.3219 42.4167C17.6553 42.1389 17.8219 41.7778 17.8219 41.3333V39.6667H19.4886C19.9331 39.6667 20.2942 39.5278 20.5719 39.25C20.8497 38.9722 20.9886 38.6111 20.9886 38.1667V33.1667H29.1553C29.5997 33.1667 29.9886 33.0278 30.3219 32.75C30.6553 32.4722 30.8219 32.1111 30.8219 31.6667V26.6667H32.4886V28.5C32.4886 28.8333 32.6553 29.1667 32.9886 29.5C33.3219 29.8333 33.6553 30 33.9886 30H35.6553C36.0997 30 36.4608 29.8333 36.7386 29.5C37.0164 29.1667 37.1553 28.8333 37.1553 28.5V26.6667H38.9886C39.3219 26.6667 39.6553 26.5278 39.9886 26.25C40.3219 25.9722 40.4886 25.6111 40.4886 25.1667V20.3333H48.6553V48.6667C48.6553 48.8889 48.5719 49.0833 48.4053 49.25C48.2386 49.4167 48.0442 49.5 47.8219 49.5H45.3219V37.3333C45.3219 36.6667 45.0997 36.1111 44.6553 35.6667C44.2108 35.2222 43.6553 35 42.9886 35H31.4886C30.9331 35 30.4331 35.2222 29.9886 35.6667C29.5442 36.1111 29.3219 36.6667 29.3219 37.3333V49.5H11.9886C11.8775 49.5 11.7386 49.5833 11.5719 49.75C11.4053 49.9167 11.3219 50.0833 11.3219 50.25C11.3219 50.4167 11.4053 50.5833 11.5719 50.75C11.7386 50.9167 11.8775 51 11.9886 51H47.8219C48.4886 51 49.0442 50.7778 49.4886 50.3333C49.9331 49.8889 50.1553 49.3333 50.1553 48.6667V17C50.1553 16.6667 50.0164 16.3333 49.7386 16C49.4608 15.6667 49.0997 15.5 48.6553 15.5ZM33.9886 49.5V39.6667H40.6553V49.5H33.9886ZM41.9886 49.5V39.6667C41.9886 39.3333 41.8497 39 41.5719 38.6667C41.2942 38.3333 40.9331 38.1667 40.4886 38.1667H33.9886C33.5442 38.1667 33.1831 38.3333 32.9053 38.6667C32.6275 39 32.4886 39.3333 32.4886 39.6667V49.5H30.8219V37.3333C30.8219 37.1111 30.8775 36.9167 30.9886 36.75C31.0997 36.5833 31.2664 36.5 31.4886 36.5H42.9886C43.2108 36.5 43.4053 36.5833 43.5719 36.75C43.7386 36.9167 43.8219 37.1111 43.8219 37.3333V49.5H41.9886ZM35.8219 10.8333L33.9886 12.1667V10L35.8219 8.66667V10.8333ZM29.3219 23.5V26V28.5H21.1553C20.7108 28.5 20.3219 28.6389 19.9886 28.9167C19.6553 29.1944 19.4886 29.5556 19.4886 30V35H17.8219V21.5L32.4886 11V22H30.8219C30.3775 22 30.0164 22.1667 29.7386 22.5C29.4608 22.8333 29.3219 23.1667 29.3219 23.5ZM16.3219 22.5V24.6667L14.4886 26V23.8333L16.3219 22.5ZM1.65527 44.6667V43L9.82194 42.8333V44.6667H1.65527ZM11.3219 38.1667V36.5H13.1553V38.1667H11.3219ZM16.3219 41.3333C16.3219 41.4444 16.3219 41.5 16.3219 41.5H14.6553C14.5442 41.5 14.4886 41.4444 14.4886 41.3333V27.8333L16.3219 26.5V41.3333ZM19.4886 38.1667H17.8219V36.5H19.4886V38.1667ZM20.9886 31.6667V30H29.3219V31.6667C29.3219 31.6667 29.2664 31.6667 29.1553 31.6667H20.9886ZM30.8219 25.3333V23.5H32.4886V25.3333H30.8219ZM35.8219 28.5C35.8219 28.5 35.7664 28.5 35.6553 28.5H33.9886V14L35.8219 12.6667V28.5ZM38.9886 25.1667C38.9886 25.2778 38.9886 25.3333 38.9886 25.3333H37.1553V23.5H38.9886V25.1667ZM40.4886 18.8333V17H48.6553V18.8333H40.4886ZM38.4886 43.8333H38.1553C37.9331 43.8333 37.7386 43.9167 37.5719 44.0833C37.4053 44.25 37.3219 44.4167 37.3219 44.5833C37.3219 44.75 37.4053 44.9167 37.5719 45.0833C37.7386 45.25 37.9331 45.3333 38.1553 45.3333H38.4886C38.7108 45.3333 38.8775 45.25 38.9886 45.0833C39.0997 44.9167 39.1553 44.75 39.1553 44.5833C39.1553 44.4167 39.0997 44.25 38.9886 44.0833C38.8775 43.9167 38.7108 43.8333 38.4886 43.8333Z" fill="white"/>
</svg>
