<svg width="51" height="50" viewBox="0 0 51 50" fill="none" xmlns="http://www.w3.org/2000/svg">
<path d="M44.6553 12.0003C44.4331 12.0003 44.2664 12.0837 44.1553 12.2503C44.0442 12.417 43.9886 12.5559 43.9886 12.667V46.8337C43.9886 47.0559 44.0442 47.2503 44.1553 47.417C44.2664 47.5837 44.4331 47.667 44.6553 47.667C44.8775 47.667 45.0719 47.5837 45.2386 47.417C45.4053 47.2503 45.4886 47.0559 45.4886 46.8337V12.667C45.4886 12.5559 45.4053 12.417 45.2386 12.2503C45.0719 12.0837 44.8775 12.0003 44.6553 12.0003ZM47.9886 5.50032L25.3219 1.50032L2.32194 5.50032C1.8775 5.61144 1.65527 5.83366 1.65527 6.16699V10.167C1.65527 10.3892 1.73861 10.5837 1.90527 10.7503C2.07194 10.917 2.26638 11.0003 2.48861 11.0003L4.82194 10.5003V46.8337C4.82194 47.0559 4.90527 47.2503 5.07194 47.417C5.23861 47.5837 5.43305 47.667 5.65527 47.667C5.8775 47.667 6.07194 47.5837 6.23861 47.417C6.40527 47.2503 6.48861 47.0559 6.48861 46.8337V27.3337H41.4886C41.7108 27.3337 41.9053 27.2503 42.0719 27.0837C42.2386 26.917 42.3219 26.7225 42.3219 26.5003V12.5003C42.3219 12.2781 42.2386 12.0837 42.0719 11.917C41.9053 11.7503 41.7108 11.667 41.4886 11.667H32.1553C31.9331 11.667 31.7386 11.7503 31.5719 11.917C31.4053 12.0837 31.3219 12.2781 31.3219 12.5003V23.5003C31.4331 23.7225 31.5442 23.8892 31.6553 24.0003C31.7664 24.1114 31.9331 24.167 32.1553 24.167C32.3775 24.167 32.5719 24.1114 32.7386 24.0003C32.9053 23.8892 32.9886 23.7225 32.9886 23.5003V13.3337H36.1553V18.667H35.3219C35.0997 18.667 34.9053 18.7503 34.7386 18.917C34.5719 19.0837 34.4886 19.2781 34.4886 19.5003C34.4886 19.7225 34.5719 19.917 34.7386 20.0837C34.9053 20.2503 35.0997 20.3337 35.3219 20.3337H36.1553V25.8337H27.4886V18.667C27.4886 18.5559 27.4053 18.417 27.2386 18.2503C27.0719 18.0837 26.8775 18.0003 26.6553 18.0003H18.9886C18.9886 17.3337 18.7942 16.7225 18.4053 16.167C18.0164 15.6114 17.5164 15.2225 16.9053 15.0003C16.2942 14.7781 15.6831 14.7503 15.0719 14.917C14.4608 15.0837 13.9331 15.4448 13.4886 16.0003V14.0003C13.4886 13.4448 13.2386 12.917 12.7386 12.417C12.2386 11.917 11.6831 11.667 11.0719 11.667C10.4608 11.667 9.93305 11.917 9.48861 12.417C9.04416 12.917 8.82194 13.4448 8.82194 14.0003V18.667C8.82194 18.8892 8.8775 19.0837 8.98861 19.2503C9.09972 19.417 9.26638 19.5003 9.48861 19.5003C9.71083 19.5003 9.90527 19.417 10.0719 19.2503C10.2386 19.0837 10.3219 18.8892 10.3219 18.667V14.0003C10.3219 13.7781 10.4053 13.6114 10.5719 13.5003C10.7386 13.3892 10.9331 13.3337 11.1553 13.3337C11.3775 13.3337 11.5442 13.3892 11.6553 13.5003C11.7664 13.6114 11.8219 13.7781 11.8219 14.0003V25.8337H10.3219V21.8337C10.3219 21.6114 10.2386 21.4448 10.0719 21.3337C9.90527 21.2225 9.71083 21.167 9.48861 21.167C9.26638 21.167 9.09972 21.2225 8.98861 21.3337C8.8775 21.4448 8.82194 21.6114 8.82194 21.8337V25.8337H6.48861V10.3337L25.1553 7.00032L30.4886 8.00032C30.8219 8.00032 31.0997 7.88921 31.3219 7.66699C31.5442 7.44477 31.5997 7.19477 31.4886 6.91699C31.3775 6.63921 31.1553 6.50032 30.8219 6.50032L24.9886 5.50032L3.32194 9.16699V6.83366L25.1553 3.16699L46.9886 6.83366V9.16699L33.9886 7.00032C33.7664 6.88921 33.5442 6.91699 33.3219 7.08366C33.0997 7.25032 32.9886 7.44477 32.9886 7.66699C32.9886 7.88921 33.0442 8.08366 33.1553 8.25032C33.2664 8.41699 33.4331 8.50032 33.6553 8.50032L47.6553 11.0003C47.8775 11.0003 48.0997 10.917 48.3219 10.7503C48.5442 10.5837 48.6553 10.3892 48.6553 10.167V6.16699C48.6553 5.83366 48.4331 5.61144 47.9886 5.50032ZM37.6553 20.3337H38.4886C38.7108 20.3337 38.8775 20.2503 38.9886 20.0837C39.0997 19.917 39.1553 19.7225 39.1553 19.5003C39.1553 19.2781 39.0997 19.0837 38.9886 18.917C38.8775 18.7503 38.7108 18.667 38.4886 18.667H37.6553V13.3337H40.8219V25.8337H37.6553V20.3337ZM24.3219 25.8337V24.167H25.9886V25.8337H24.3219ZM25.9886 19.5003V22.667H13.4886V19.5003H25.9886ZM15.8219 16.3337C16.2664 16.3337 16.6275 16.5003 16.9053 16.8337C17.1831 17.167 17.3219 17.5559 17.3219 18.0003H14.1553C14.1553 17.5559 14.3219 17.167 14.6553 16.8337C14.9886 16.5003 15.3775 16.3337 15.8219 16.3337ZM13.4886 24.167H22.8219V25.8337H13.4886V24.167ZM21.3219 9.33366C21.0997 9.33366 20.9053 9.41699 20.7386 9.58366C20.5719 9.75032 20.4886 9.94477 20.4886 10.167V14.8337C20.4886 15.0559 20.5719 15.2503 20.7386 15.417C20.9053 15.5837 21.0997 15.667 21.3219 15.667H28.9886C29.2108 15.667 29.4053 15.5837 29.5719 15.417C29.7386 15.2503 29.8219 15.0559 29.8219 14.8337V10.167C29.8219 9.94477 29.7386 9.75032 29.5719 9.58366C29.4053 9.41699 29.2108 9.33366 28.9886 9.33366H21.3219ZM21.9886 11.0003H24.3219V14.0003H21.9886V11.0003ZM28.3219 14.0003H25.9886V11.0003H28.3219V14.0003ZM23.6553 32.0003H18.9886C18.3219 32.0003 17.7386 32.2225 17.2386 32.667C16.7386 33.1114 16.4886 33.667 16.4886 34.3337V35.167C15.8219 35.3892 15.2108 35.7781 14.6553 36.3337C14.0997 36.8892 13.7108 37.5559 13.4886 38.3337V36.0003C13.4886 35.5559 13.3219 35.2781 12.9886 35.167L13.3219 33.8337C13.4331 33.6114 13.4331 33.417 13.3219 33.2503C13.2108 33.0837 13.0719 32.9448 12.9053 32.8337C12.7386 32.7225 12.5442 32.7225 12.3219 32.8337C12.0997 32.9448 11.9886 33.1114 11.9886 33.3337L11.3219 35.167H10.9886L10.3219 32.667C10.2108 32.3337 10.0164 32.1114 9.73861 32.0003C9.46083 31.8892 9.21083 31.9448 8.98861 32.167C8.76638 32.3892 8.71083 32.667 8.82194 33.0003L9.32194 35.167C8.98861 35.2781 8.82194 35.5559 8.82194 36.0003V39.0003C8.82194 39.2225 8.8775 39.417 8.98861 39.5837C9.09972 39.7503 9.26638 39.8337 9.48861 39.8337H24.3219V41.3337H9.48861C9.26638 41.3337 9.09972 41.417 8.98861 41.5837C8.8775 41.7503 8.82194 41.9448 8.82194 42.167C8.82194 42.3892 8.8775 42.5837 8.98861 42.7503C9.09972 42.917 9.26638 43.0003 9.48861 43.0003H10.4886L11.1553 47.0003C11.1553 47.4448 11.3775 47.667 11.8219 47.667H13.4886C13.9331 47.667 14.1553 47.4448 14.1553 47.0003L14.8219 43.0003H19.8219L20.4886 47.0003C20.5997 47.4448 20.8775 47.667 21.3219 47.667H22.8219C23.2664 47.667 23.5442 47.4448 23.6553 47.0003L24.3219 43.0003H25.1553C25.3775 43.0003 25.5719 42.917 25.7386 42.7503C25.9053 42.5837 25.9886 42.3892 25.9886 42.167V39.0003C25.9886 38.7781 25.8775 38.6114 25.6553 38.5003C25.8775 38.167 25.9886 37.8337 25.9886 37.5003V34.3337C25.9886 33.667 25.7386 33.1114 25.2386 32.667C24.7386 32.2225 24.2108 32.0003 23.6553 32.0003ZM12.8219 46.167H12.4886L11.9886 43.0003H13.3219L12.8219 46.167ZM22.1553 46.167H21.9886L21.3219 43.0003H22.6553L22.1553 46.167ZM16.4886 36.8337V38.3337H15.1553C15.3775 37.5559 15.8219 37.0559 16.4886 36.8337ZM10.3219 36.667H11.8219V38.3337H10.3219V36.667ZM18.1553 38.3337V34.3337C18.1553 34.1114 18.2386 33.9448 18.4053 33.8337C18.5719 33.7225 18.7108 33.667 18.8219 33.667H23.6553C23.8775 33.667 24.0442 33.7225 24.1553 33.8337C24.2664 33.9448 24.3219 34.1114 24.3219 34.3337V37.5003C24.3219 37.7225 24.2664 37.917 24.1553 38.0837C24.0442 38.2503 23.8775 38.3337 23.6553 38.3337H18.1553ZM20.4886 36.0003C20.4886 36.2225 20.5719 36.3892 20.7386 36.5003C20.9053 36.6114 21.0997 36.667 21.3219 36.667C21.5442 36.667 21.7108 36.6114 21.8219 36.5003C21.9331 36.3892 21.9886 36.2225 21.9886 36.0003C21.9886 35.7781 21.9331 35.5837 21.8219 35.417C21.7108 35.2503 21.5442 35.167 21.3219 35.167C21.0997 35.167 20.9053 35.2503 20.7386 35.417C20.5719 35.5837 20.4886 35.7781 20.4886 36.0003ZM40.8219 32.0003H30.6553C30.4331 32.0003 30.2386 32.0837 30.0719 32.2503C29.9053 32.417 29.8219 32.6114 29.8219 32.8337V46.8337C29.8219 47.0559 29.9053 47.2503 30.0719 47.417C30.2386 47.5837 30.4331 47.667 30.6553 47.667C30.8775 47.667 31.0719 47.5837 31.2386 47.417C31.4053 47.2503 31.4886 47.0559 31.4886 46.8337V33.667H39.9886V46.8337C39.9886 47.0559 40.0719 47.2503 40.2386 47.417C40.4053 47.5837 40.5997 47.667 40.8219 47.667C41.0442 47.667 41.2108 47.5837 41.3219 47.417C41.4331 47.2503 41.4886 47.0559 41.4886 46.8337V32.8337C41.4886 32.6114 41.4331 32.417 41.3219 32.2503C41.2108 32.0837 41.0442 32.0003 40.8219 32.0003ZM36.8219 39.0003C36.8219 39.2225 36.9053 39.417 37.0719 39.5837C37.2386 39.7503 37.4331 39.8337 37.6553 39.8337C37.8775 39.8337 38.0719 39.7503 38.2386 39.5837C38.4053 39.417 38.4886 39.2225 38.4886 39.0003C38.4886 38.7781 38.4053 38.6114 38.2386 38.5003C38.0719 38.3892 37.8775 38.3337 37.6553 38.3337C37.4331 38.3337 37.2386 38.3892 37.0719 38.5003C36.9053 38.6114 36.8219 38.7781 36.8219 39.0003Z" fill="white"/>
</svg>
