<svg width="51" height="51" viewBox="0 0 51 51" fill="none" xmlns="http://www.w3.org/2000/svg">
<path d="M44.6543 12.6302C44.4321 12.6302 44.2654 12.7135 44.1543 12.8802C44.0432 13.0469 43.9876 13.1858 43.9876 13.2969V47.4635C43.9876 47.6858 44.0432 47.8802 44.1543 48.0469C44.2654 48.2135 44.4321 48.2969 44.6543 48.2969C44.8765 48.2969 45.071 48.2135 45.2376 48.0469C45.4043 47.8802 45.4876 47.6858 45.4876 47.4635V13.2969C45.4876 13.1858 45.4043 13.0469 45.2376 12.8802C45.071 12.7135 44.8765 12.6302 44.6543 12.6302ZM47.9876 6.13021L25.321 2.13021L2.32096 6.13021C1.87652 6.24132 1.6543 6.46354 1.6543 6.79688V10.7969C1.6543 11.0191 1.73763 11.2135 1.9043 11.3802C2.07096 11.5469 2.26541 11.6302 2.48763 11.6302L4.82096 11.1302V47.4635C4.82096 47.6858 4.9043 47.8802 5.07096 48.0469C5.23763 48.2135 5.43207 48.2969 5.6543 48.2969C5.87652 48.2969 6.07096 48.2135 6.23763 48.0469C6.4043 47.8802 6.48763 47.6858 6.48763 47.4635V27.9635H41.4876C41.7099 27.9635 41.9043 27.8802 42.071 27.7135C42.2376 27.5469 42.321 27.3524 42.321 27.1302V13.1302C42.321 12.908 42.2376 12.7135 42.071 12.5469C41.9043 12.3802 41.7099 12.2969 41.4876 12.2969H32.1543C31.9321 12.2969 31.7376 12.3802 31.571 12.5469C31.4043 12.7135 31.321 12.908 31.321 13.1302V24.1302C31.4321 24.3524 31.5432 24.5191 31.6543 24.6302C31.7654 24.7413 31.9321 24.7969 32.1543 24.7969C32.3765 24.7969 32.571 24.7413 32.7376 24.6302C32.9043 24.5191 32.9876 24.3524 32.9876 24.1302V13.9635H36.1543V19.2969H35.321C35.0987 19.2969 34.9043 19.3802 34.7376 19.5469C34.571 19.7135 34.4876 19.908 34.4876 20.1302C34.4876 20.3524 34.571 20.5469 34.7376 20.7135C34.9043 20.8802 35.0987 20.9635 35.321 20.9635H36.1543V26.4635H27.4876V19.2969C27.4876 19.1858 27.4043 19.0469 27.2376 18.8802C27.071 18.7135 26.8765 18.6302 26.6543 18.6302H18.9876C18.9876 17.9635 18.7932 17.3524 18.4043 16.7969C18.0154 16.2413 17.5154 15.8524 16.9043 15.6302C16.2932 15.408 15.6821 15.3802 15.071 15.5469C14.4599 15.7135 13.9321 16.0747 13.4876 16.6302V14.6302C13.4876 14.0747 13.2376 13.5469 12.7376 13.0469C12.2376 12.5469 11.6821 12.2969 11.071 12.2969C10.4599 12.2969 9.93207 12.5469 9.48763 13.0469C9.04319 13.5469 8.82096 14.0747 8.82096 14.6302V19.2969C8.82096 19.5191 8.87652 19.7135 8.98763 19.8802C9.09874 20.0469 9.26541 20.1302 9.48763 20.1302C9.70985 20.1302 9.9043 20.0469 10.071 19.8802C10.2376 19.7135 10.321 19.5191 10.321 19.2969V14.6302C10.321 14.408 10.4043 14.2413 10.571 14.1302C10.7376 14.0191 10.9321 13.9635 11.1543 13.9635C11.3765 13.9635 11.5432 14.0191 11.6543 14.1302C11.7654 14.2413 11.821 14.408 11.821 14.6302V26.4635H10.321V22.4635C10.321 22.2413 10.2376 22.0747 10.071 21.9635C9.9043 21.8524 9.70985 21.7969 9.48763 21.7969C9.26541 21.7969 9.09874 21.8524 8.98763 21.9635C8.87652 22.0747 8.82096 22.2413 8.82096 22.4635V26.4635H6.48763V10.9635L25.1543 7.63021L30.4876 8.63021C30.821 8.63021 31.0987 8.5191 31.321 8.29688C31.5432 8.07465 31.5987 7.82465 31.4876 7.54688C31.3765 7.2691 31.1543 7.13021 30.821 7.13021L24.9876 6.13021L3.32096 9.79688V7.46354L25.1543 3.79688L46.9876 7.46354V9.79688L33.9876 7.63021C33.7654 7.5191 33.5432 7.54688 33.321 7.71354C33.0987 7.88021 32.9876 8.07465 32.9876 8.29688C32.9876 8.5191 33.0432 8.71354 33.1543 8.88021C33.2654 9.04688 33.4321 9.13021 33.6543 9.13021L47.6543 11.6302C47.8765 11.6302 48.0987 11.5469 48.321 11.3802C48.5432 11.2135 48.6543 11.0191 48.6543 10.7969V6.79688C48.6543 6.46354 48.4321 6.24132 47.9876 6.13021ZM37.6543 20.9635H38.4876C38.7099 20.9635 38.8765 20.8802 38.9876 20.7135C39.0987 20.5469 39.1543 20.3524 39.1543 20.1302C39.1543 19.908 39.0987 19.7135 38.9876 19.5469C38.8765 19.3802 38.7099 19.2969 38.4876 19.2969H37.6543V13.9635H40.821V26.4635H37.6543V20.9635ZM24.321 26.4635V24.7969H25.9876V26.4635H24.321ZM25.9876 20.1302V23.2969H13.4876V20.1302H25.9876ZM15.821 16.9635C16.2654 16.9635 16.6265 17.1302 16.9043 17.4635C17.1821 17.7969 17.321 18.1858 17.321 18.6302H14.1543C14.1543 18.1858 14.321 17.7969 14.6543 17.4635C14.9876 17.1302 15.3765 16.9635 15.821 16.9635ZM13.4876 24.7969H22.821V26.4635H13.4876V24.7969ZM21.321 9.96354C21.0987 9.96354 20.9043 10.0469 20.7376 10.2135C20.571 10.3802 20.4876 10.5746 20.4876 10.7969V15.4635C20.4876 15.6858 20.571 15.8802 20.7376 16.0469C20.9043 16.2135 21.0987 16.2969 21.321 16.2969H28.9876C29.2099 16.2969 29.4043 16.2135 29.571 16.0469C29.7376 15.8802 29.821 15.6858 29.821 15.4635V10.7969C29.821 10.5746 29.7376 10.3802 29.571 10.2135C29.4043 10.0469 29.2099 9.96354 28.9876 9.96354H21.321ZM21.9876 11.6302H24.321V14.6302H21.9876V11.6302ZM28.321 14.6302H25.9876V11.6302H28.321V14.6302ZM23.6543 32.6302H18.9876C18.321 32.6302 17.7376 32.8524 17.2376 33.2969C16.7376 33.7413 16.4876 34.2969 16.4876 34.9635V35.7969C15.821 36.0191 15.2099 36.408 14.6543 36.9635C14.0987 37.5191 13.7099 38.1858 13.4876 38.9635V36.6302C13.4876 36.1858 13.321 35.908 12.9876 35.7969L13.321 34.4635C13.4321 34.2413 13.4321 34.0469 13.321 33.8802C13.2099 33.7135 13.071 33.5747 12.9043 33.4635C12.7376 33.3524 12.5432 33.3524 12.321 33.4635C12.0987 33.5747 11.9876 33.7413 11.9876 33.9635L11.321 35.7969H10.9876L10.321 33.2969C10.2099 32.9635 10.0154 32.7413 9.73763 32.6302C9.45985 32.5191 9.20985 32.5747 8.98763 32.7969C8.76541 33.0191 8.70985 33.2969 8.82096 33.6302L9.32096 35.7969C8.98763 35.908 8.82096 36.1858 8.82096 36.6302V39.6302C8.82096 39.8524 8.87652 40.0469 8.98763 40.2135C9.09874 40.3802 9.26541 40.4635 9.48763 40.4635H24.321V41.9635H9.48763C9.26541 41.9635 9.09874 42.0469 8.98763 42.2135C8.87652 42.3802 8.82096 42.5747 8.82096 42.7969C8.82096 43.0191 8.87652 43.2135 8.98763 43.3802C9.09874 43.5469 9.26541 43.6302 9.48763 43.6302H10.4876L11.1543 47.6302C11.1543 48.0747 11.3765 48.2969 11.821 48.2969H13.4876C13.9321 48.2969 14.1543 48.0747 14.1543 47.6302L14.821 43.6302H19.821L20.4876 47.6302C20.5987 48.0747 20.8765 48.2969 21.321 48.2969H22.821C23.2654 48.2969 23.5432 48.0747 23.6543 47.6302L24.321 43.6302H25.1543C25.3765 43.6302 25.571 43.5469 25.7376 43.3802C25.9043 43.2135 25.9876 43.0191 25.9876 42.7969V39.6302C25.9876 39.408 25.8765 39.2413 25.6543 39.1302C25.8765 38.7969 25.9876 38.4635 25.9876 38.1302V34.9635C25.9876 34.2969 25.7376 33.7413 25.2376 33.2969C24.7376 32.8524 24.2099 32.6302 23.6543 32.6302ZM12.821 46.7969H12.4876L11.9876 43.6302H13.321L12.821 46.7969ZM22.1543 46.7969H21.9876L21.321 43.6302H22.6543L22.1543 46.7969ZM16.4876 37.4635V38.9635H15.1543C15.3765 38.1858 15.821 37.6858 16.4876 37.4635ZM10.321 37.2969H11.821V38.9635H10.321V37.2969ZM18.1543 38.9635V34.9635C18.1543 34.7413 18.2376 34.5747 18.4043 34.4635C18.571 34.3524 18.7099 34.2969 18.821 34.2969H23.6543C23.8765 34.2969 24.0432 34.3524 24.1543 34.4635C24.2654 34.5747 24.321 34.7413 24.321 34.9635V38.1302C24.321 38.3524 24.2654 38.5469 24.1543 38.7135C24.0432 38.8802 23.8765 38.9635 23.6543 38.9635H18.1543ZM20.4876 36.6302C20.4876 36.8524 20.571 37.0191 20.7376 37.1302C20.9043 37.2413 21.0987 37.2969 21.321 37.2969C21.5432 37.2969 21.7099 37.2413 21.821 37.1302C21.9321 37.0191 21.9876 36.8524 21.9876 36.6302C21.9876 36.408 21.9321 36.2135 21.821 36.0469C21.7099 35.8802 21.5432 35.7969 21.321 35.7969C21.0987 35.7969 20.9043 35.8802 20.7376 36.0469C20.571 36.2135 20.4876 36.408 20.4876 36.6302ZM40.821 32.6302H30.6543C30.4321 32.6302 30.2376 32.7135 30.071 32.8802C29.9043 33.0469 29.821 33.2413 29.821 33.4635V47.4635C29.821 47.6858 29.9043 47.8802 30.071 48.0469C30.2376 48.2135 30.4321 48.2969 30.6543 48.2969C30.8765 48.2969 31.071 48.2135 31.2376 48.0469C31.4043 47.8802 31.4876 47.6858 31.4876 47.4635V34.2969H39.9876V47.4635C39.9876 47.6858 40.071 47.8802 40.2376 48.0469C40.4043 48.2135 40.5987 48.2969 40.821 48.2969C41.0432 48.2969 41.2099 48.2135 41.321 48.0469C41.4321 47.8802 41.4876 47.6858 41.4876 47.4635V33.4635C41.4876 33.2413 41.4321 33.0469 41.321 32.8802C41.2099 32.7135 41.0432 32.6302 40.821 32.6302ZM36.821 39.6302C36.821 39.8524 36.9043 40.0469 37.071 40.2135C37.2376 40.3802 37.4321 40.4635 37.6543 40.4635C37.8765 40.4635 38.071 40.3802 38.2376 40.2135C38.4043 40.0469 38.4876 39.8524 38.4876 39.6302C38.4876 39.408 38.4043 39.2413 38.2376 39.1302C38.071 39.0191 37.8765 38.9635 37.6543 38.9635C37.4321 38.9635 37.2376 39.0191 37.071 39.1302C36.9043 39.2413 36.821 39.408 36.821 39.6302Z" fill="#374A75"/>
</svg>
