<svg width="24" height="20" viewBox="0 0 24 20" fill="none" xmlns="http://www.w3.org/2000/svg">
<path d="M4.08789 18.7803H7.54102L8.82617 16.7539C10.5561 14.0217 11.2921 12.8507 12.3086 11.2002L13.4658 9.31445C13.9523 8.52091 14.3916 7.79023 14.708 7.25293C14.8663 6.9842 14.9943 6.76395 15.0811 6.6084C15.1244 6.53073 15.1571 6.46952 15.1787 6.42676C15.1893 6.40578 15.1966 6.38979 15.2012 6.37891L15.1992 6.37305C15.1926 6.3606 15.1826 6.34329 15.1699 6.32129C15.1444 6.27706 15.1071 6.2149 15.0605 6.1377C14.9673 5.98312 14.8355 5.7677 14.6777 5.5127C14.3622 5.00282 13.9435 4.33337 13.5244 3.66699C13.1053 3.00051 12.6854 2.33674 12.3682 1.83984C12.2097 1.5916 12.0769 1.38496 11.9824 1.24023C11.9351 1.1678 11.8973 1.11086 11.8711 1.07227C11.8694 1.06971 11.8669 1.06781 11.8652 1.06543C11.8577 1.07576 11.8485 1.08795 11.8389 1.10156C11.7991 1.15787 11.744 1.2397 11.6768 1.34082L11.1641 2.13086L3.9707 13.4844C2.5374 15.7428 1.70563 17.0566 1.23242 17.8164C0.995759 18.1964 0.849188 18.4377 0.761719 18.5889C0.718058 18.6643 0.689263 18.7163 0.671875 18.752C0.671262 18.7532 0.670503 18.7547 0.669922 18.7559C0.671514 18.7559 0.673148 18.7558 0.674805 18.7559C0.720696 18.7579 0.788836 18.7598 0.876953 18.7617C1.05345 18.7655 1.30938 18.7688 1.625 18.7715C2.2564 18.7769 3.12811 18.7803 4.08789 18.7803Z" fill="#AE285D" stroke="#AE285D" stroke-width="0.1"/>
<path d="M11.9538 12.1962C11.9938 12.3008 13.1072 14.0916 14.7738 16.7193L16.1005 18.8301H19.6205H23.1472L23.0138 18.627C22.9405 18.5224 21.9938 17.0085 20.9005 15.2732L18.9205 12.1224H15.4205C12.6472 12.1224 11.9272 12.1408 11.9538 12.1962Z" fill="#AE285D"/>
</svg>
