<svg width="40" height="40" viewBox="0 0 40 40" fill="none" xmlns="http://www.w3.org/2000/svg">
<rect x="0.5" y="0.5" width="39" height="39" rx="19.5" stroke="#A9BFD3"/>
<path d="M19.9997 22.334L24.833 27.1673C25.1386 27.4729 25.5275 27.6257 25.9997 27.6257C26.4719 27.6257 26.8608 27.4729 27.1663 27.1673C27.4719 26.8618 27.6247 26.4729 27.6247 26.0007C27.6247 25.5284 27.4719 25.1395 27.1663 24.834L22.333 20.0007L27.1663 15.1673C27.4719 14.8618 27.6247 14.4729 27.6247 14.0007C27.6247 13.5284 27.4719 13.1395 27.1663 12.834C26.8608 12.5284 26.4719 12.3757 25.9997 12.3757C25.5275 12.3757 25.1386 12.5284 24.833 12.834L19.9997 17.6673L15.1663 12.834C14.8608 12.5284 14.4719 12.3757 13.9997 12.3757C13.5275 12.3757 13.1386 12.5284 12.833 12.834C12.5275 13.1395 12.3747 13.5284 12.3747 14.0007C12.3747 14.4729 12.5275 14.8618 12.833 15.1673L17.6663 20.0007L12.833 24.834C12.5275 25.1395 12.3747 25.5284 12.3747 26.0007C12.3747 26.4729 12.5275 26.8618 12.833 27.1673C13.1386 27.4729 13.5275 27.6257 13.9997 27.6257C14.4719 27.6257 14.8608 27.4729 15.1663 27.1673L19.9997 22.334ZM19.9997 36.6673C17.6941 36.6673 15.5275 36.2295 13.4997 35.354C11.4719 34.4784 9.70801 33.2912 8.20801 31.7923C6.70801 30.2934 5.52079 28.5295 4.64634 26.5007C3.7719 24.4718 3.33412 22.3051 3.33301 20.0007C3.3319 17.6962 3.76968 15.5295 4.64634 13.5007C5.52301 11.4718 6.71023 9.70787 8.20801 8.20898C9.70579 6.7101 11.4697 5.52287 13.4997 4.64732C15.5297 3.77176 17.6963 3.33398 19.9997 3.33398C22.303 3.33398 24.4697 3.77176 26.4997 4.64732C28.5297 5.52287 30.2936 6.7101 31.7913 8.20898C33.2891 9.70787 34.4769 11.4718 35.3547 13.5007C36.2325 15.5295 36.6697 17.6962 36.6663 20.0007C36.663 22.3051 36.2252 24.4718 35.353 26.5007C34.4808 28.5295 33.2936 30.2934 31.7913 31.7923C30.2891 33.2912 28.5252 34.479 26.4997 35.3557C24.4741 36.2323 22.3075 36.6695 19.9997 36.6673Z" fill="#E5E5E5"/>
</svg>
