<svg width="102" height="67" viewBox="0 0 102 67" fill="none" xmlns="http://www.w3.org/2000/svg">
<path d="M59 64.5V21.5L93 37.4438V41.7921H68V64.5H59Z" fill="#CDA174"/>
<path d="M1.5 31L34.5 13.4957M59 0.5L34.5 13.4957M34.5 13.4957V3.5M34.5 13.4957V66.5M34.5 66.5H58.5M34.5 66.5H13V39H1M58.5 15L101.5 36.5H93.5V43M58.5 15V66.5M58.5 15V10.5M58.5 66.5H70.5M70.5 66.5V43H83.5M70.5 66.5H83.5M93.5 43V66.5H83.5M93.5 43H83.5M83.5 43V16M83.5 43V66.5M1 36.5L58.5 6V10.5M58.5 10.5L88.5 24.5" stroke="#374A75"/>
</svg>
