<svg width="80" height="70" viewBox="0 0 80 70" fill="none" xmlns="http://www.w3.org/2000/svg">
<path d="M7.75 34.25V68.75L72.25 68.25V28.75M72.25 28.75L78.75 30.25M72.25 28.75L40.25 19.25M40.25 19.25L7.75 28.4167M40.25 19.25V28.25V36.25V38.25M1.25 30.25L7.75 28.4167M7.75 28.4167V1.25H72.25V23.25M15.25 43.75V52.75M15.25 63.25V52.75M15.25 52.75H24.75V63.25M32.25 63.25V48.25H26.75H47.25M53.25 48.25H47.25M47.25 48.25V63.25M55.25 63.25V52.75H64.25V43.75V63.25" stroke="#374A75" stroke-linecap="round" stroke-linejoin="round"/>
<path d="M40.25 30.25C43.5635 30.2502 46.25 32.9364 46.25 36.25C46.25 39.2619 44.0301 38.0409 41.1377 37.793C41.2084 37.9301 41.25 38.0851 41.25 38.25C41.25 38.8022 40.8021 39.2498 40.25 39.25C39.6977 39.25 39.25 38.8023 39.25 38.25C39.25 38.0853 39.2898 37.93 39.3604 37.793C36.4685 38.0412 34.25 39.2615 34.25 36.25C34.25 32.9363 36.9363 30.25 40.25 30.25Z" fill="#CDA174"/>
</svg>
