<svg width="19" height="18" viewBox="0 0 19 18" fill="none" xmlns="http://www.w3.org/2000/svg">
<path d="M3.3252 5.64551C3.3252 4.94849 3.32988 4.29898 3.33691 3.81348C3.34043 3.57094 3.34423 3.36914 3.34863 3.22266C3.35083 3.14966 3.35314 3.08994 3.35547 3.0459L3.36328 2.95508L3.36426 2.95312L3.40137 2.81348L3.41211 2.77637H8.6377V0.204102H0.799805V8.05859H1.20605C1.32843 8.05859 1.53856 8.0618 1.77734 8.06738L2.52051 8.08984L3.3252 8.12109V5.64551Z" fill="#FF0100" stroke="#FF0100" stroke-width="0.1"/>
<path d="M10.375 1.48955V2.82592H12.9875H15.6063L15.6375 3.72955C15.6563 4.23228 15.6625 5.41592 15.65 6.3641L15.625 8.09501L16.1063 8.12683C16.375 8.14592 16.9813 8.16501 17.4563 8.16501L18.3125 8.17773V4.16228V0.153189H14.3438H10.375V1.48955Z" fill="#FF0100"/>
<path d="M6.3125 8.96057V12.1615L6.76875 12.1933C7.0125 12.206 8.45625 12.2188 9.96875 12.2188L12.7188 12.2124L12.7375 8.97966L12.75 5.7533H9.53125H6.3125V8.96057Z" fill="#013399"/>
<path d="M0.75 13.8347V17.8438H4.71875H8.6875V16.5074V15.171L6.05 15.1583L3.40625 15.1392L3.3875 12.4792L3.375 9.82557H2.0625H0.75V13.8347Z" fill="#FF0100"/>
<path d="M15.6625 9.96557C15.6438 10.0483 15.6438 10.9965 15.6625 12.0847C15.6813 13.1665 15.675 14.3056 15.65 14.6174L15.6125 15.171H13.3813C12.1563 15.171 10.9813 15.171 10.7688 15.171H10.375V16.5074V17.8438H14.3438H18.3125V13.8347V9.82557H17.0063C15.7063 9.82557 15.7 9.82557 15.6625 9.96557Z" fill="#FF0100"/>
</svg>
