<svg width="46" height="46" viewBox="0 0 46 46" fill="none" xmlns="http://www.w3.org/2000/svg">
<path d="M16.8047 36.5301C17.0047 36.4301 17.0797 36.2801 17.0297 36.0801C16.9797 35.8801 16.9047 35.7301 16.8047 35.6301C16.2047 34.9301 15.5547 34.4301 14.8547 34.1301C14.6547 33.9301 14.4297 33.8801 14.1797 33.9801C13.9297 34.0801 13.8047 34.2801 13.8047 34.5801C13.8047 35.2801 13.8547 36.0301 13.9547 36.8301C14.1547 38.2301 14.5047 39.3801 15.0047 40.2801C14.7047 40.2801 14.5047 40.4301 14.4047 40.7301C14.3047 41.0301 14.2547 41.4801 14.2547 42.0801C14.2547 43.1801 14.5547 44.2301 15.1547 45.2301C15.4547 45.6301 15.8547 45.8301 16.3547 45.8301H22.0547C22.5547 45.8301 22.9047 45.6301 23.1047 45.2301C23.8047 44.2301 24.1047 43.1801 24.0047 42.0801C24.0047 41.4801 23.9547 41.0301 23.8547 40.7301C23.7547 40.4301 23.6047 40.2801 23.4047 40.2801C23.9047 39.4801 24.2547 38.3301 24.4547 36.8301C24.5547 36.0301 24.6047 35.2801 24.6047 34.5801C24.6047 34.2801 24.4797 34.0801 24.2297 33.9801C23.9797 33.8801 23.7547 33.9301 23.5547 34.1301C22.5547 34.7301 21.6547 35.4801 20.8547 36.3801C20.6547 35.3801 20.3047 34.4301 19.8047 33.5301C19.6047 33.3301 19.3797 33.2301 19.1297 33.2301C18.8797 33.2301 18.6547 33.3301 18.4547 33.5301C18.0547 34.2301 17.7547 35.0301 17.5547 35.9301C16.9547 37.4301 16.8547 38.7301 17.2547 39.8301L17.4047 40.1301C17.0047 40.1301 16.7047 40.0301 16.5047 39.8301C15.8047 39.1301 15.4047 37.8801 15.3047 36.0801L15.9047 36.6801C16.0047 36.7801 16.1547 36.8301 16.3547 36.8301C16.5547 36.8301 16.7047 36.7301 16.8047 36.5301ZM22.0547 44.4801H16.3547C15.7547 43.5801 15.5047 42.6301 15.6047 41.6301H22.6547C22.7547 42.6301 22.5547 43.5801 22.0547 44.4801ZM23.1047 36.0801C23.0047 37.8801 22.6047 39.1301 21.9047 39.8301C21.7047 40.0301 21.4047 40.1301 21.0047 40.1301V39.9801V39.8301C21.2047 39.3301 21.3047 38.8301 21.3047 38.3301C21.6047 37.6301 22.2047 36.8801 23.1047 36.0801ZM19.2047 35.4801C19.8047 37.1801 19.9547 38.4801 19.6547 39.3801C19.5547 39.6801 19.4047 39.9301 19.2047 40.1301C18.9047 39.9301 18.7047 39.6801 18.6047 39.3801C18.3047 38.4801 18.5047 37.1801 19.2047 35.4801ZM44.4047 38.0301H43.0547C42.8547 38.0301 42.6797 38.1051 42.5297 38.2551C42.3797 38.4051 42.3047 38.5801 42.3047 38.7801C42.3047 38.9801 42.3797 39.1551 42.5297 39.3051C42.6797 39.4551 42.8547 39.5301 43.0547 39.5301H43.8047V40.8801H33.1547V39.5301H40.9547C41.1547 39.5301 41.3297 39.4551 41.4797 39.3051C41.6297 39.1551 41.7047 38.9801 41.7047 38.7801C41.7047 38.5801 41.6297 38.4051 41.4797 38.2551C41.3297 38.1051 41.1547 38.0301 40.9547 38.0301H36.7547V37.4301H38.8547C39.0547 37.4301 39.2297 37.3551 39.3797 37.2051C39.5297 37.0551 39.6047 36.8801 39.6047 36.6801V33.8301C39.6047 33.6301 39.5297 33.4801 39.3797 33.3801C39.2297 33.2801 39.0547 33.2301 38.8547 33.2301V21.2301C38.8547 21.0301 38.7547 20.8301 38.5547 20.6301L15.9047 0.830078H0.904688C0.704688 0.830078 0.529688 0.905077 0.379688 1.05508C0.229688 1.20508 0.154688 1.38008 0.154688 1.58008C0.154688 1.78008 0.229688 1.93008 0.379688 2.03008C0.529688 2.13008 0.704688 2.18008 0.904688 2.18008V13.4301C0.704688 13.4301 0.529688 13.5051 0.379688 13.6551C0.229688 13.8051 0.154688 13.9801 0.154688 14.1801V17.0301C0.154688 17.2301 0.229688 17.4051 0.379688 17.5551C0.529688 17.7051 0.704688 17.7801 0.904688 17.7801H16.3547C16.5547 17.6801 16.7047 17.5801 16.8047 17.4801C16.9047 17.3801 16.9547 17.2301 16.9547 17.0301V16.2801L19.3547 18.3801H18.4547C18.2547 18.3801 18.0797 18.4551 17.9297 18.6051C17.7797 18.7551 17.7047 18.9301 17.7047 19.1301C17.7047 19.3301 17.7797 19.5051 17.9297 19.6551C18.0797 19.8051 18.2547 19.8801 18.4547 19.8801H21.3047V21.2301H15.6047V19.8801H16.3547C16.5547 19.8801 16.7047 19.8051 16.8047 19.6551C16.9047 19.5051 16.9797 19.3301 17.0297 19.1301C17.0797 18.9301 17.0297 18.7551 16.8797 18.6051C16.7297 18.4551 16.5547 18.3801 16.3547 18.3801H14.8547C14.6547 18.3801 14.5047 18.4551 14.4047 18.6051C14.3047 18.7551 14.2547 18.9301 14.2547 19.1301V21.9801C14.2547 22.1801 14.3047 22.3301 14.4047 22.4301C14.5047 22.5301 14.6547 22.5801 14.8547 22.5801H17.1047V23.3301C17.1047 23.5301 17.1547 23.7051 17.2547 23.8551C17.3547 24.0051 17.5047 24.0801 17.7047 24.0801H19.2047C19.4047 24.0801 19.5547 24.0051 19.6547 23.8551C19.7547 23.7051 19.8047 23.5301 19.8047 23.3301V22.5801H21.9047C22.1047 22.5801 22.2797 22.5301 22.4297 22.4301C22.5797 22.3301 22.6547 22.1801 22.6547 21.9801V21.2301L25.0547 23.3301H20.5547C20.3547 23.3301 20.1797 23.4051 20.0297 23.5551C19.8797 23.7051 19.8047 23.8801 19.8047 24.0801V26.7801C19.8047 26.9801 19.8797 27.1551 20.0297 27.3051C20.1797 27.4551 20.3547 27.5301 20.5547 27.5301H22.6547V28.2801C22.6547 28.4801 22.7297 28.6301 22.8797 28.7301C23.0297 28.8301 23.2047 28.8801 23.4047 28.8801H24.7547C24.9547 28.8801 25.1297 28.8301 25.2797 28.7301C25.4297 28.6301 25.5047 28.4801 25.5047 28.2801V27.5301H27.6047C27.8047 27.5301 27.9797 27.4551 28.1297 27.3051C28.2797 27.1551 28.3547 26.9801 28.3547 26.7801V26.1801L30.6047 28.2801H26.1047C25.9047 28.2801 25.7547 28.3551 25.6547 28.5051C25.5547 28.6551 25.5047 28.8301 25.5047 29.0301V31.7301C25.5047 31.9301 25.5547 32.1051 25.6547 32.2551C25.7547 32.4051 25.9047 32.4801 26.1047 32.4801H28.3547V33.2301C28.2547 33.4301 28.2797 33.5801 28.4297 33.6801C28.5797 33.7801 28.7547 33.8301 28.9547 33.8301H30.4547C30.6547 33.8301 30.8047 33.7801 30.9047 33.6801C31.0047 33.5801 31.0547 33.4301 31.0547 33.2301V32.4801H33.1547C33.3547 32.4801 33.5297 32.4051 33.6797 32.2551C33.8297 32.1051 33.9047 31.9301 33.9047 31.7301V31.1301L36.3047 33.2301H31.8047C31.6047 33.2301 31.4297 33.2801 31.2797 33.3801C31.1297 33.4801 31.0547 33.6301 31.0547 33.8301V36.6801C31.0547 36.8801 31.1297 37.0551 31.2797 37.2051C31.4297 37.3551 31.6047 37.4301 31.8047 37.4301H33.9047V38.0301H32.5547C32.3547 38.0301 32.1797 38.1051 32.0297 38.2551C31.8797 38.4051 31.8047 38.5801 31.8047 38.7801V40.8801H28.9547C28.7547 40.8801 28.5797 40.9551 28.4297 41.1051C28.2797 41.2551 28.2047 41.4301 28.2047 41.6301V45.0801C28.3047 45.2801 28.4047 45.4551 28.5047 45.6051C28.6047 45.7551 28.7547 45.8301 28.9547 45.8301H44.4047C44.6047 45.8301 44.7797 45.7551 44.9297 45.6051C45.0797 45.4551 45.1547 45.2801 45.1547 45.0801V38.7801C45.1547 38.5801 45.0797 38.4051 44.9297 38.2551C44.7797 38.1051 44.6047 38.0301 44.4047 38.0301ZM14.8547 2.18008V13.4301H4.20469L12.6047 6.23008C12.7047 6.13008 12.7797 5.98008 12.8297 5.78008C12.8797 5.58008 12.8297 5.40508 12.6797 5.25508C12.5297 5.10508 12.3547 5.03008 12.1547 5.03008C11.9547 5.03008 11.8047 5.08008 11.7047 5.18008L2.25469 13.2801V11.0301L7.65469 6.53008C7.75469 6.43008 7.82969 6.28008 7.87969 6.08008C7.92969 5.88008 7.87969 5.70508 7.72969 5.55508C7.57969 5.40508 7.40469 5.33008 7.20469 5.33008C7.00469 5.33008 6.85469 5.38008 6.75469 5.48008L2.25469 9.23008V2.18008H14.8547ZM15.6047 16.2801H1.50469V14.9301H15.6047V16.2801ZM26.8547 26.1801H21.3047V24.6801H26.8547V26.1801ZM27.6047 23.3301V14.1801C27.6047 13.9801 27.5297 13.8051 27.3797 13.6551C27.2297 13.5051 27.0547 13.4301 26.8547 13.4301C26.6547 13.4301 26.4797 13.5051 26.3297 13.6551C26.1797 13.8051 26.1047 13.9801 26.1047 14.1801V22.4301L22.6547 19.4301V19.1301C22.6547 18.9301 22.5797 18.7551 22.4297 18.6051C22.2797 18.4551 22.1047 18.3801 21.9047 18.3801H21.4547L18.1547 15.5301L21.0047 13.1301C21.1047 13.0301 21.1797 12.8801 21.2297 12.6801C21.2797 12.4801 21.2297 12.3051 21.0797 12.1551C20.9297 12.0051 20.7547 11.9301 20.5547 11.9301C20.3547 11.9301 20.2047 11.9801 20.1047 12.0801L17.1047 14.6301V14.4801V14.1801C17.1047 13.9801 17.0297 13.8051 16.8797 13.6551C16.7297 13.5051 16.5547 13.4301 16.3547 13.4301V3.08008L23.4047 9.23008L22.2047 10.2801C22.0047 10.3801 21.9047 10.5301 21.9047 10.7301C21.9047 10.9301 21.9797 11.1051 22.1297 11.2551C22.2797 11.4051 22.4547 11.4801 22.6547 11.4801C22.8547 11.4801 23.0047 11.4301 23.1047 11.3301L24.4547 10.1301L35.4047 19.7301L29.1047 25.1301L28.3547 24.3801V24.0801C28.3547 23.8801 28.2797 23.7051 28.1297 23.5551C27.9797 23.4051 27.8047 23.3301 27.6047 23.3301ZM32.5547 31.1301H26.8547V29.6301H32.5547V31.1301ZM33.1547 28.2801H32.7047L30.1547 26.0301L36.4547 20.6301L37.3547 21.5301V22.5801L35.5547 24.0801C35.4547 24.1801 35.3797 24.3301 35.3297 24.5301C35.2797 24.7301 35.3297 24.9051 35.4797 25.0551C35.6297 25.2051 35.8047 25.2801 36.0047 25.2801C36.2047 25.2801 36.3547 25.2301 36.4547 25.1301L37.3547 24.3801V32.3301L33.9047 29.1801V28.8801C33.9047 28.7801 33.8297 28.6551 33.6797 28.5051C33.5297 28.3551 33.3547 28.2801 33.1547 28.2801ZM32.5547 34.5801H38.1047V35.9301H32.5547V34.5801ZM43.8047 44.4801H29.7047V42.3801H43.8047V44.4801ZM0.454688 27.2301C0.154687 27.4301 0.0546875 27.6801 0.154688 27.9801C0.354688 28.7801 0.604688 29.5801 0.904688 30.3801C1.50469 31.8801 2.20469 33.0301 3.00469 33.8301H1.50469C1.40469 33.8301 1.27969 33.9051 1.12969 34.0551C0.979688 34.2051 0.904688 34.3301 0.904688 34.4301C0.804688 35.5301 0.754688 36.7301 0.754688 38.0301C0.754688 40.5301 1.10469 42.4801 1.80469 43.8801C2.00469 44.4801 2.40469 44.9551 3.00469 45.3051C3.60469 45.6551 4.25469 45.8301 4.95469 45.8301H8.10469C8.70469 45.8301 9.30469 45.6551 9.90469 45.3051C10.5047 44.9551 10.9547 44.4801 11.2547 43.8801C11.8547 42.4801 12.2047 40.5301 12.3047 38.0301C12.3047 36.7301 12.2547 35.5301 12.1547 34.4301C12.0547 34.3301 11.9547 34.2051 11.8547 34.0551C11.7547 33.9051 11.6047 33.8301 11.4047 33.8301H9.45469C10.5547 32.7301 11.6547 31.0301 12.7547 28.7301C13.3547 27.4301 13.8547 26.1801 14.2547 24.9801C14.3547 24.6801 14.2297 24.4301 13.8797 24.2301C13.5297 24.0301 13.2547 24.0801 13.0547 24.3801C11.9547 25.4801 10.9047 26.6801 9.90469 27.9801C9.90469 27.0801 9.85469 26.3301 9.75469 25.7301C9.75469 25.5301 9.67969 25.3801 9.52969 25.2801C9.37969 25.1801 9.20469 25.1301 9.00469 25.1301C8.80469 25.1301 8.65469 25.2051 8.55469 25.3551C8.45469 25.5051 8.40469 25.6801 8.40469 25.8801C8.50469 27.1801 8.50469 28.5301 8.40469 29.9301C8.30469 31.2301 8.10469 32.2301 7.80469 32.9301L7.95469 31.2801C8.25469 28.9801 8.20469 26.3801 7.80469 23.4801C7.60469 21.9801 7.40469 20.6801 7.20469 19.5801C7.10469 19.2801 6.87969 19.1051 6.52969 19.0551C6.17969 19.0051 5.95469 19.1801 5.85469 19.5801C5.35469 21.0801 5.05469 23.0801 4.95469 25.5801C4.45469 24.5801 4.00469 23.7301 3.60469 23.0301C3.40469 22.7301 3.12969 22.6301 2.77969 22.7301C2.42969 22.8301 2.25469 23.0801 2.25469 23.4801C2.35469 25.1801 2.60469 26.9301 3.00469 28.7301C2.40469 28.1301 1.85469 27.6301 1.35469 27.2301C1.05469 27.0301 0.754688 27.0301 0.454688 27.2301ZM9.90469 43.2801C9.80469 43.5801 9.57969 43.8551 9.22969 44.1051C8.87969 44.3551 8.50469 44.4801 8.10469 44.4801H4.95469C4.55469 44.4801 4.17969 44.3551 3.82969 44.1051C3.47969 43.8551 3.20469 43.5801 3.00469 43.2801C2.20469 41.5801 1.95469 38.9301 2.25469 35.3301H10.8047C11.0047 38.9301 10.7047 41.5801 9.90469 43.2801ZM9.60469 31.4301C9.70469 31.1301 9.75469 30.7801 9.75469 30.3801L11.2547 28.4301C10.7547 29.6301 10.2047 30.6301 9.60469 31.4301ZM6.45469 23.9301C6.65469 26.0301 6.70469 28.0301 6.60469 29.9301L6.30469 28.7301C6.20469 27.1301 6.25469 25.5301 6.45469 23.9301ZM4.95469 29.1801C5.45469 30.6801 5.75469 31.9301 5.85469 32.9301V32.7801C5.65469 32.3801 5.45469 31.9801 5.25469 31.5801C4.85469 30.4801 4.50469 29.0301 4.20469 27.2301L4.95469 29.1801ZM4.05469 32.1801C4.15469 32.5801 4.30469 32.9801 4.50469 33.3801L4.65469 33.5301C3.85469 33.0301 3.10469 31.8801 2.40469 30.0801C3.00469 30.7801 3.55469 31.4801 4.05469 32.1801ZM36.0047 0.830078C35.8047 0.830078 35.6297 0.905077 35.4797 1.05508C35.3297 1.20508 35.2547 1.38008 35.2547 1.58008V3.83008C34.8547 3.93008 34.5297 4.15508 34.2797 4.50508C34.0297 4.85508 33.9047 5.28008 33.9047 5.78008V7.88008C33.9047 8.28008 34.0297 8.60508 34.2797 8.85508C34.5297 9.10508 34.8547 9.23008 35.2547 9.23008H36.7547C37.1547 9.23008 37.4797 9.10508 37.7297 8.85508C37.9797 8.60508 38.1047 8.28008 38.1047 7.88008V5.78008C38.1047 5.28008 37.9797 4.85508 37.7297 4.50508C37.4797 4.15508 37.1547 3.93008 36.7547 3.83008V1.58008C36.7547 1.38008 36.6797 1.20508 36.5297 1.05508C36.3797 0.905077 36.2047 0.830078 36.0047 0.830078ZM35.2547 7.88008V5.78008C35.2547 5.58008 35.3297 5.40508 35.4797 5.25508C35.6297 5.10508 35.8047 5.03008 36.0047 5.03008C36.2047 5.03008 36.3797 5.10508 36.5297 5.25508C36.6797 5.40508 36.7547 5.58008 36.7547 5.78008V7.88008H35.2547ZM39.6047 0.830078C39.4047 0.830078 39.2297 0.905077 39.0797 1.05508C38.9297 1.20508 38.8547 1.38008 38.8547 1.58008V10.7301C38.4547 10.9301 38.1047 11.2051 37.8047 11.5551C37.5047 11.9051 37.3547 12.3301 37.3547 12.8301V14.9301C37.3547 15.3301 37.5047 15.6551 37.8047 15.9051C38.1047 16.1551 38.4547 16.2801 38.8547 16.2801H40.2047C40.6047 16.2801 40.9547 16.1551 41.2547 15.9051C41.5547 15.6551 41.7047 15.3301 41.7047 14.9301V12.8301C41.7047 12.3301 41.5547 11.9051 41.2547 11.5551C40.9547 11.2051 40.6047 10.9301 40.2047 10.7301V1.58008C40.2047 1.38008 40.1297 1.20508 39.9797 1.05508C39.8297 0.905077 39.7047 0.830078 39.6047 0.830078ZM38.8547 14.9301V12.8301C38.8547 12.6301 38.9297 12.4551 39.0797 12.3051C39.2297 12.1551 39.3797 12.0801 39.5297 12.0801C39.6797 12.0801 39.8297 12.1551 39.9797 12.3051C40.1297 12.4551 40.2047 12.6301 40.2047 12.8301V14.9301H38.8547ZM43.8047 5.18008V1.58008C43.8047 1.38008 43.7297 1.20508 43.5797 1.05508C43.4297 0.905077 43.2547 0.830078 43.0547 0.830078C42.8547 0.830078 42.6797 0.905077 42.5297 1.05508C42.3797 1.20508 42.3047 1.38008 42.3047 1.58008V5.18008C41.9047 5.28008 41.5797 5.53008 41.3297 5.93008C41.0797 6.33008 40.9547 6.73008 40.9547 7.13008V9.23008C40.9547 9.63008 41.0797 9.98008 41.3297 10.2801C41.5797 10.5801 41.9047 10.7301 42.3047 10.7301H43.8047C44.2047 10.7301 44.5297 10.5801 44.7797 10.2801C45.0297 9.98008 45.1547 9.63008 45.1547 9.23008V7.13008C45.1547 6.73008 45.0297 6.33008 44.7797 5.93008C44.5297 5.53008 44.2047 5.28008 43.8047 5.18008ZM42.3047 9.23008V7.13008C42.3047 6.93008 42.3797 6.75508 42.5297 6.60508C42.6797 6.45508 42.8547 6.38008 43.0547 6.38008C43.2547 6.38008 43.4297 6.45508 43.5797 6.60508C43.7297 6.75508 43.8047 6.93008 43.8047 7.13008V9.23008H42.3047ZM9.15469 5.03008C9.35469 5.03008 9.50469 4.98008 9.60469 4.88008L10.5047 4.13008C10.6047 4.03008 10.6547 3.88008 10.6547 3.68008C10.6547 3.48008 10.6047 3.30508 10.5047 3.15508C10.4047 3.00508 10.2547 2.93008 10.0547 2.93008C9.85469 2.93008 9.70469 2.98008 9.60469 3.08008L8.70469 3.83008C8.60469 3.93008 8.52969 4.08008 8.47969 4.28008C8.42969 4.48008 8.47969 4.65508 8.62969 4.80508C8.77969 4.95508 8.95469 5.03008 9.15469 5.03008ZM35.1047 25.4301C35.0047 25.2301 34.8547 25.1301 34.6547 25.1301C34.4547 25.1301 34.3047 25.1801 34.2047 25.2801L32.7047 26.4801C32.6047 26.5801 32.5297 26.7301 32.4797 26.9301C32.4297 27.1301 32.4797 27.3051 32.6297 27.4551C32.7797 27.6051 32.9547 27.6801 33.1547 27.6801C33.3547 27.6801 33.5047 27.6301 33.6047 27.5301L35.1047 26.3301C35.2047 26.2301 35.2797 26.0801 35.3297 25.8801C35.3797 25.6801 35.3047 25.5301 35.1047 25.4301Z" fill="black"/>
</svg>
