<svg width="51" height="51" viewBox="0 0 51 51" fill="none" xmlns="http://www.w3.org/2000/svg">
<path d="M18.5417 40.0368C18.7639 39.9257 18.8472 39.759 18.7917 39.5368C18.7361 39.3146 18.6528 39.1479 18.5417 39.0368C17.875 38.259 17.1528 37.7035 16.375 37.3701C16.1528 37.1479 15.9028 37.0923 15.625 37.2035C15.3472 37.3146 15.2083 37.5368 15.2083 37.8701C15.2083 38.6479 15.2639 39.4812 15.375 40.3701C15.5972 41.9257 15.9861 43.2035 16.5417 44.2035C16.2083 44.2035 15.9861 44.3701 15.875 44.7035C15.7639 45.0368 15.7083 45.5368 15.7083 46.2035C15.7083 47.4257 16.0417 48.5923 16.7083 49.7035C17.0417 50.1479 17.4861 50.3701 18.0417 50.3701H24.375C24.9306 50.3701 25.3194 50.1479 25.5417 49.7035C26.3194 48.5923 26.6528 47.4257 26.5417 46.2035C26.5417 45.5368 26.4861 45.0368 26.375 44.7035C26.2639 44.3701 26.0972 44.2035 25.875 44.2035C26.4306 43.3146 26.8194 42.0368 27.0417 40.3701C27.1528 39.4812 27.2083 38.6479 27.2083 37.8701C27.2083 37.5368 27.0694 37.3146 26.7917 37.2035C26.5139 37.0923 26.2639 37.1479 26.0417 37.3701C24.9306 38.0368 23.9306 38.8701 23.0417 39.8701C22.8194 38.759 22.4306 37.7035 21.875 36.7035C21.6528 36.4812 21.4028 36.3701 21.125 36.3701C20.8472 36.3701 20.5972 36.4812 20.375 36.7035C19.9306 37.4812 19.5972 38.3701 19.375 39.3701C18.7083 41.0368 18.5972 42.4812 19.0417 43.7035L19.2083 44.0368C18.7639 44.0368 18.4306 43.9257 18.2083 43.7035C17.4306 42.9257 16.9861 41.5368 16.875 39.5368L17.5417 40.2035C17.6528 40.3146 17.8194 40.3701 18.0417 40.3701C18.2639 40.3701 18.4306 40.259 18.5417 40.0368ZM24.375 48.8701H18.0417C17.375 47.8701 17.0972 46.8146 17.2083 45.7035H25.0417C25.1528 46.8146 24.9306 47.8701 24.375 48.8701ZM25.5417 39.5368C25.4306 41.5368 24.9861 42.9257 24.2083 43.7035C23.9861 43.9257 23.6528 44.0368 23.2083 44.0368V43.8701V43.7035C23.4306 43.1479 23.5417 42.5923 23.5417 42.0368C23.875 41.259 24.5417 40.4257 25.5417 39.5368ZM21.2083 38.8701C21.875 40.759 22.0417 42.2035 21.7083 43.2035C21.5972 43.5368 21.4306 43.8146 21.2083 44.0368C20.875 43.8146 20.6528 43.5368 20.5417 43.2035C20.2083 42.2035 20.4306 40.759 21.2083 38.8701ZM49.2083 41.7035H47.7083C47.4861 41.7035 47.2917 41.7868 47.125 41.9535C46.9583 42.1201 46.875 42.3146 46.875 42.5368C46.875 42.759 46.9583 42.9535 47.125 43.1201C47.2917 43.2868 47.4861 43.3701 47.7083 43.3701H48.5417V44.8701H36.7083V43.3701H45.375C45.5972 43.3701 45.7917 43.2868 45.9583 43.1201C46.125 42.9535 46.2083 42.759 46.2083 42.5368C46.2083 42.3146 46.125 42.1201 45.9583 41.9535C45.7917 41.7868 45.5972 41.7035 45.375 41.7035H40.7083V41.0368H43.0417C43.2639 41.0368 43.4583 40.9534 43.625 40.7868C43.7917 40.6201 43.875 40.4257 43.875 40.2035V37.0368C43.875 36.8146 43.7917 36.6479 43.625 36.5368C43.4583 36.4257 43.2639 36.3701 43.0417 36.3701V23.0368C43.0417 22.8146 42.9306 22.5923 42.7083 22.3701L17.5417 0.370117H0.875C0.652778 0.370117 0.458333 0.453451 0.291667 0.620117C0.125 0.786784 0.0416667 0.981227 0.0416667 1.20345C0.0416667 1.42567 0.125 1.59234 0.291667 1.70345C0.458333 1.81456 0.652778 1.87012 0.875 1.87012V14.3701C0.652778 14.3701 0.458333 14.4535 0.291667 14.6201C0.125 14.7868 0.0416667 14.9812 0.0416667 15.2034V18.3701C0.0416667 18.5923 0.125 18.7868 0.291667 18.9534C0.458333 19.1201 0.652778 19.2034 0.875 19.2034H18.0417C18.2639 19.0923 18.4306 18.9812 18.5417 18.8701C18.6528 18.759 18.7083 18.5923 18.7083 18.3701V17.5368L21.375 19.8701H20.375C20.1528 19.8701 19.9583 19.9535 19.7917 20.1201C19.625 20.2868 19.5417 20.4812 19.5417 20.7034C19.5417 20.9257 19.625 21.1201 19.7917 21.2868C19.9583 21.4534 20.1528 21.5368 20.375 21.5368H23.5417V23.0368H17.2083V21.5368H18.0417C18.2639 21.5368 18.4306 21.4534 18.5417 21.2868C18.6528 21.1201 18.7361 20.9257 18.7917 20.7034C18.8472 20.4812 18.7917 20.2868 18.625 20.1201C18.4583 19.9535 18.2639 19.8701 18.0417 19.8701H16.375C16.1528 19.8701 15.9861 19.9535 15.875 20.1201C15.7639 20.2868 15.7083 20.4812 15.7083 20.7034V23.8701C15.7083 24.0923 15.7639 24.259 15.875 24.3701C15.9861 24.4812 16.1528 24.5368 16.375 24.5368H18.875V25.3701C18.875 25.5923 18.9306 25.7868 19.0417 25.9534C19.1528 26.1201 19.3194 26.2034 19.5417 26.2034H21.2083C21.4306 26.2034 21.5972 26.1201 21.7083 25.9534C21.8194 25.7868 21.875 25.5923 21.875 25.3701V24.5368H24.2083C24.4306 24.5368 24.625 24.4812 24.7917 24.3701C24.9583 24.259 25.0417 24.0923 25.0417 23.8701V23.0368L27.7083 25.3701H22.7083C22.4861 25.3701 22.2917 25.4535 22.125 25.6201C21.9583 25.7868 21.875 25.9812 21.875 26.2034V29.2034C21.875 29.4257 21.9583 29.6201 22.125 29.7868C22.2917 29.9534 22.4861 30.0368 22.7083 30.0368H25.0417V30.8701C25.0417 31.0923 25.125 31.259 25.2917 31.3701C25.4583 31.4812 25.6528 31.5368 25.875 31.5368H27.375C27.5972 31.5368 27.7917 31.4812 27.9583 31.3701C28.125 31.259 28.2083 31.0923 28.2083 30.8701V30.0368H30.5417C30.7639 30.0368 30.9583 29.9534 31.125 29.7868C31.2917 29.6201 31.375 29.4257 31.375 29.2034V28.5368L33.875 30.8701H28.875C28.6528 30.8701 28.4861 30.9535 28.375 31.1201C28.2639 31.2868 28.2083 31.4812 28.2083 31.7034V34.7035C28.2083 34.9257 28.2639 35.1201 28.375 35.2868C28.4861 35.4534 28.6528 35.5368 28.875 35.5368H31.375V36.3701C31.2639 36.5923 31.2917 36.759 31.4583 36.8701C31.625 36.9812 31.8194 37.0368 32.0417 37.0368H33.7083C33.9306 37.0368 34.0972 36.9812 34.2083 36.8701C34.3194 36.759 34.375 36.5923 34.375 36.3701V35.5368H36.7083C36.9306 35.5368 37.125 35.4534 37.2917 35.2868C37.4583 35.1201 37.5417 34.9257 37.5417 34.7035V34.0368L40.2083 36.3701H35.2083C34.9861 36.3701 34.7917 36.4257 34.625 36.5368C34.4583 36.6479 34.375 36.8146 34.375 37.0368V40.2035C34.375 40.4257 34.4583 40.6201 34.625 40.7868C34.7917 40.9534 34.9861 41.0368 35.2083 41.0368H37.5417V41.7035H36.0417C35.8194 41.7035 35.625 41.7868 35.4583 41.9535C35.2917 42.1201 35.2083 42.3146 35.2083 42.5368V44.8701H32.0417C31.8194 44.8701 31.625 44.9535 31.4583 45.1201C31.2917 45.2868 31.2083 45.4812 31.2083 45.7035V49.5368C31.3194 49.759 31.4306 49.9535 31.5417 50.1201C31.6528 50.2868 31.8194 50.3701 32.0417 50.3701H49.2083C49.4306 50.3701 49.625 50.2868 49.7917 50.1201C49.9583 49.9535 50.0417 49.759 50.0417 49.5368V42.5368C50.0417 42.3146 49.9583 42.1201 49.7917 41.9535C49.625 41.7868 49.4306 41.7035 49.2083 41.7035ZM16.375 1.87012V14.3701H4.54167L13.875 6.37012C13.9861 6.25901 14.0694 6.09234 14.125 5.87012C14.1806 5.64789 14.125 5.45345 13.9583 5.28678C13.7917 5.12011 13.5972 5.03678 13.375 5.03678C13.1528 5.03678 12.9861 5.09234 12.875 5.20345L2.375 14.2034V11.7034L8.375 6.70345C8.48611 6.59234 8.56944 6.42567 8.625 6.20345C8.68056 5.98123 8.625 5.78678 8.45833 5.62012C8.29167 5.45345 8.09722 5.37012 7.875 5.37012C7.65278 5.37012 7.48611 5.42567 7.375 5.53678L2.375 9.70345V1.87012H16.375ZM17.2083 17.5368H1.54167V16.0368H17.2083V17.5368ZM29.7083 28.5368H23.5417V26.8701H29.7083V28.5368ZM30.5417 25.3701V15.2034C30.5417 14.9812 30.4583 14.7868 30.2917 14.6201C30.125 14.4535 29.9306 14.3701 29.7083 14.3701C29.4861 14.3701 29.2917 14.4535 29.125 14.6201C28.9583 14.7868 28.875 14.9812 28.875 15.2034V24.3701L25.0417 21.0368V20.7034C25.0417 20.4812 24.9583 20.2868 24.7917 20.1201C24.625 19.9535 24.4306 19.8701 24.2083 19.8701H23.7083L20.0417 16.7034L23.2083 14.0368C23.3194 13.9257 23.4028 13.759 23.4583 13.5368C23.5139 13.3146 23.4583 13.1201 23.2917 12.9534C23.125 12.7868 22.9306 12.7034 22.7083 12.7034C22.4861 12.7034 22.3194 12.759 22.2083 12.8701L18.875 15.7034V15.5368V15.2034C18.875 14.9812 18.7917 14.7868 18.625 14.6201C18.4583 14.4535 18.2639 14.3701 18.0417 14.3701V2.87012L25.875 9.70345L24.5417 10.8701C24.3194 10.9812 24.2083 11.1479 24.2083 11.3701C24.2083 11.5923 24.2917 11.7868 24.4583 11.9534C24.625 12.1201 24.8194 12.2034 25.0417 12.2034C25.2639 12.2034 25.4306 12.1479 25.5417 12.0368L27.0417 10.7034L39.2083 21.3701L32.2083 27.3701L31.375 26.5368V26.2034C31.375 25.9812 31.2917 25.7868 31.125 25.6201C30.9583 25.4535 30.7639 25.3701 30.5417 25.3701ZM36.0417 34.0368H29.7083V32.3701H36.0417V34.0368ZM36.7083 30.8701H36.2083L33.375 28.3701L40.375 22.3701L41.375 23.3701V24.5368L39.375 26.2034C39.2639 26.3146 39.1806 26.4812 39.125 26.7034C39.0694 26.9257 39.125 27.1201 39.2917 27.2868C39.4583 27.4534 39.6528 27.5368 39.875 27.5368C40.0972 27.5368 40.2639 27.4812 40.375 27.3701L41.375 26.5368V35.3701L37.5417 31.8701V31.5368C37.5417 31.4257 37.4583 31.2868 37.2917 31.1201C37.125 30.9535 36.9306 30.8701 36.7083 30.8701ZM36.0417 37.8701H42.2083V39.3701H36.0417V37.8701ZM48.5417 48.8701H32.875V46.5368H48.5417V48.8701ZM0.375 29.7034C0.0416667 29.9257 -0.0694445 30.2034 0.0416667 30.5368C0.263889 31.4257 0.541667 32.3146 0.875 33.2034C1.54167 34.8701 2.31944 36.1479 3.20833 37.0368H1.54167C1.43056 37.0368 1.29167 37.1201 1.125 37.2868C0.958333 37.4534 0.875 37.5923 0.875 37.7035C0.763889 38.9257 0.708333 40.259 0.708333 41.7035C0.708333 44.4812 1.09722 46.6479 1.875 48.2035C2.09722 48.8701 2.54167 49.3979 3.20833 49.7868C3.875 50.1757 4.59722 50.3701 5.375 50.3701H8.875C9.54167 50.3701 10.2083 50.1757 10.875 49.7868C11.5417 49.3979 12.0417 48.8701 12.375 48.2035C13.0417 46.6479 13.4306 44.4812 13.5417 41.7035C13.5417 40.259 13.4861 38.9257 13.375 37.7035C13.2639 37.5923 13.1528 37.4534 13.0417 37.2868C12.9306 37.1201 12.7639 37.0368 12.5417 37.0368H10.375C11.5972 35.8146 12.8194 33.9257 14.0417 31.3701C14.7083 29.9257 15.2639 28.5368 15.7083 27.2034C15.8194 26.8701 15.6806 26.5923 15.2917 26.3701C14.9028 26.1479 14.5972 26.2034 14.375 26.5368C13.1528 27.759 11.9861 29.0923 10.875 30.5368C10.875 29.5368 10.8194 28.7034 10.7083 28.0368C10.7083 27.8146 10.625 27.6479 10.4583 27.5368C10.2917 27.4257 10.0972 27.3701 9.875 27.3701C9.65278 27.3701 9.48611 27.4535 9.375 27.6201C9.26389 27.7868 9.20833 27.9812 9.20833 28.2034C9.31945 29.6479 9.31945 31.1479 9.20833 32.7034C9.09722 34.1479 8.875 35.259 8.54167 36.0368L8.70833 34.2034C9.04167 31.6479 8.98611 28.759 8.54167 25.5368C8.31944 23.8701 8.09722 22.4257 7.875 21.2034C7.76389 20.8701 7.51389 20.6757 7.125 20.6201C6.73611 20.5646 6.48611 20.759 6.375 21.2034C5.81944 22.8701 5.48611 25.0923 5.375 27.8701C4.81944 26.759 4.31944 25.8146 3.875 25.0368C3.65278 24.7034 3.34722 24.5923 2.95833 24.7034C2.56944 24.8146 2.375 25.0923 2.375 25.5368C2.48611 27.4257 2.76389 29.3701 3.20833 31.3701C2.54167 30.7035 1.93056 30.1479 1.375 29.7034C1.04167 29.4812 0.708333 29.4812 0.375 29.7034ZM10.875 47.5368C10.7639 47.8701 10.5139 48.1757 10.125 48.4535C9.73611 48.7312 9.31944 48.8701 8.875 48.8701H5.375C4.93056 48.8701 4.51389 48.7312 4.125 48.4535C3.73611 48.1757 3.43056 47.8701 3.20833 47.5368C2.31944 45.6479 2.04167 42.7035 2.375 38.7035H11.875C12.0972 42.7035 11.7639 45.6479 10.875 47.5368ZM10.5417 34.3701C10.6528 34.0368 10.7083 33.6479 10.7083 33.2034L12.375 31.0368C11.8194 32.3701 11.2083 33.4812 10.5417 34.3701ZM7.04167 26.0368C7.26389 28.3701 7.31944 30.5923 7.20833 32.7034L6.875 31.3701C6.76389 29.5923 6.81944 27.8146 7.04167 26.0368ZM5.375 31.8701C5.93056 33.5368 6.26389 34.9257 6.375 36.0368V35.8701C6.15278 35.4257 5.93056 34.9812 5.70833 34.5368C5.26389 33.3146 4.875 31.7034 4.54167 29.7034L5.375 31.8701ZM4.375 35.2035C4.48611 35.6479 4.65278 36.0923 4.875 36.5368L5.04167 36.7035C4.15278 36.1479 3.31944 34.8701 2.54167 32.8701C3.20833 33.6479 3.81944 34.4257 4.375 35.2035ZM39.875 0.370117C39.6528 0.370117 39.4583 0.453451 39.2917 0.620117C39.125 0.786784 39.0417 0.981227 39.0417 1.20345V3.70345C38.5972 3.81456 38.2361 4.06456 37.9583 4.45345C37.6806 4.84234 37.5417 5.31456 37.5417 5.87012V8.20345C37.5417 8.64789 37.6806 9.009 37.9583 9.28678C38.2361 9.56456 38.5972 9.70345 39.0417 9.70345H40.7083C41.1528 9.70345 41.5139 9.56456 41.7917 9.28678C42.0694 9.009 42.2083 8.64789 42.2083 8.20345V5.87012C42.2083 5.31456 42.0694 4.84234 41.7917 4.45345C41.5139 4.06456 41.1528 3.81456 40.7083 3.70345V1.20345C40.7083 0.981227 40.625 0.786784 40.4583 0.620117C40.2917 0.453451 40.0972 0.370117 39.875 0.370117ZM39.0417 8.20345V5.87012C39.0417 5.64789 39.125 5.45345 39.2917 5.28678C39.4583 5.12011 39.6528 5.03678 39.875 5.03678C40.0972 5.03678 40.2917 5.12011 40.4583 5.28678C40.625 5.45345 40.7083 5.64789 40.7083 5.87012V8.20345H39.0417ZM43.875 0.370117C43.6528 0.370117 43.4583 0.453451 43.2917 0.620117C43.125 0.786784 43.0417 0.981227 43.0417 1.20345V11.3701C42.5972 11.5923 42.2083 11.8979 41.875 12.2868C41.5417 12.6757 41.375 13.1479 41.375 13.7034V16.0368C41.375 16.4812 41.5417 16.8423 41.875 17.1201C42.2083 17.3979 42.5972 17.5368 43.0417 17.5368H44.5417C44.9861 17.5368 45.375 17.3979 45.7083 17.1201C46.0417 16.8423 46.2083 16.4812 46.2083 16.0368V13.7034C46.2083 13.1479 46.0417 12.6757 45.7083 12.2868C45.375 11.8979 44.9861 11.5923 44.5417 11.3701V1.20345C44.5417 0.981227 44.4583 0.786784 44.2917 0.620117C44.125 0.453451 43.9861 0.370117 43.875 0.370117ZM43.0417 16.0368V13.7034C43.0417 13.4812 43.125 13.2868 43.2917 13.1201C43.4583 12.9535 43.625 12.8701 43.7917 12.8701C43.9583 12.8701 44.125 12.9535 44.2917 13.1201C44.4583 13.2868 44.5417 13.4812 44.5417 13.7034V16.0368H43.0417ZM48.5417 5.20345V1.20345C48.5417 0.981227 48.4583 0.786784 48.2917 0.620117C48.125 0.453451 47.9306 0.370117 47.7083 0.370117C47.4861 0.370117 47.2917 0.453451 47.125 0.620117C46.9583 0.786784 46.875 0.981227 46.875 1.20345V5.20345C46.4306 5.31456 46.0694 5.59234 45.7917 6.03678C45.5139 6.48123 45.375 6.92567 45.375 7.37012V9.70345C45.375 10.1479 45.5139 10.5368 45.7917 10.8701C46.0694 11.2035 46.4306 11.3701 46.875 11.3701H48.5417C48.9861 11.3701 49.3472 11.2035 49.625 10.8701C49.9028 10.5368 50.0417 10.1479 50.0417 9.70345V7.37012C50.0417 6.92567 49.9028 6.48123 49.625 6.03678C49.3472 5.59234 48.9861 5.31456 48.5417 5.20345ZM46.875 9.70345V7.37012C46.875 7.14789 46.9583 6.95345 47.125 6.78678C47.2917 6.62011 47.4861 6.53678 47.7083 6.53678C47.9306 6.53678 48.125 6.62011 48.2917 6.78678C48.4583 6.95345 48.5417 7.14789 48.5417 7.37012V9.70345H46.875ZM10.0417 5.03678C10.2639 5.03678 10.4306 4.98123 10.5417 4.87012L11.5417 4.03678C11.6528 3.92567 11.7083 3.759 11.7083 3.53678C11.7083 3.31456 11.6528 3.12012 11.5417 2.95345C11.4306 2.78678 11.2639 2.70345 11.0417 2.70345C10.8194 2.70345 10.6528 2.75901 10.5417 2.87012L9.54167 3.70345C9.43056 3.81456 9.34722 3.98123 9.29167 4.20345C9.23611 4.42567 9.29167 4.62011 9.45833 4.78678C9.625 4.95345 9.81944 5.03678 10.0417 5.03678ZM38.875 27.7034C38.7639 27.4812 38.5972 27.3701 38.375 27.3701C38.1528 27.3701 37.9861 27.4257 37.875 27.5368L36.2083 28.8701C36.0972 28.9812 36.0139 29.1479 35.9583 29.3701C35.9028 29.5923 35.9583 29.7868 36.125 29.9534C36.2917 30.1201 36.4861 30.2034 36.7083 30.2034C36.9306 30.2034 37.0972 30.1479 37.2083 30.0368L38.875 28.7034C38.9861 28.5923 39.0694 28.4257 39.125 28.2034C39.1806 27.9812 39.0972 27.8146 38.875 27.7034Z" fill="#374A75"/>
</svg>
