<svg width="51" height="51" viewBox="0 0 51 51" fill="none" xmlns="http://www.w3.org/2000/svg">
<path d="M18.6549 40.2965C18.8772 40.1854 18.9605 40.0188 18.9049 39.7965C18.8494 39.5743 18.7661 39.4077 18.6549 39.2965C17.9883 38.5188 17.2661 37.9632 16.4883 37.6299C16.2661 37.4077 16.0161 37.3521 15.7383 37.4632C15.4605 37.5743 15.3216 37.7965 15.3216 38.1299C15.3216 38.9077 15.3772 39.741 15.4883 40.6299C15.7105 42.1854 16.0994 43.4632 16.6549 44.4632C16.3216 44.4632 16.0994 44.6299 15.9883 44.9632C15.8772 45.2965 15.8216 45.7965 15.8216 46.4632C15.8216 47.6854 16.1549 48.8521 16.8216 49.9632C17.1549 50.4077 17.5994 50.6299 18.1549 50.6299H24.4883C25.0438 50.6299 25.4327 50.4077 25.6549 49.9632C26.4327 48.8521 26.7661 47.6854 26.6549 46.4632C26.6549 45.7965 26.5994 45.2965 26.4883 44.9632C26.3772 44.6299 26.2105 44.4632 25.9883 44.4632C26.5438 43.5743 26.9327 42.2965 27.1549 40.6299C27.2661 39.741 27.3216 38.9077 27.3216 38.1299C27.3216 37.7965 27.1827 37.5743 26.9049 37.4632C26.6272 37.3521 26.3772 37.4077 26.1549 37.6299C25.0438 38.2965 24.0438 39.1299 23.1549 40.1299C22.9327 39.0188 22.5438 37.9632 21.9883 36.9632C21.7661 36.741 21.5161 36.6299 21.2383 36.6299C20.9605 36.6299 20.7105 36.741 20.4883 36.9632C20.0438 37.741 19.7105 38.6299 19.4883 39.6299C18.8216 41.2965 18.7105 42.741 19.1549 43.9632L19.3216 44.2965C18.8772 44.2965 18.5438 44.1854 18.3216 43.9632C17.5438 43.1854 17.0994 41.7965 16.9883 39.7965L17.6549 40.4632C17.7661 40.5743 17.9327 40.6299 18.1549 40.6299C18.3772 40.6299 18.5438 40.5188 18.6549 40.2965ZM24.4883 49.1299H18.1549C17.4883 48.1299 17.2105 47.0743 17.3216 45.9632H25.1549C25.2661 47.0743 25.0438 48.1299 24.4883 49.1299ZM25.6549 39.7965C25.5438 41.7965 25.0994 43.1854 24.3216 43.9632C24.0994 44.1854 23.7661 44.2965 23.3216 44.2965V44.1299V43.9632C23.5438 43.4077 23.6549 42.8521 23.6549 42.2965C23.9883 41.5188 24.6549 40.6854 25.6549 39.7965ZM21.3216 39.1299C21.9883 41.0188 22.1549 42.4632 21.8216 43.4632C21.7105 43.7965 21.5438 44.0743 21.3216 44.2965C20.9883 44.0743 20.7661 43.7965 20.6549 43.4632C20.3216 42.4632 20.5438 41.0188 21.3216 39.1299ZM49.3216 41.9632H47.8216C47.5994 41.9632 47.4049 42.0465 47.2383 42.2132C47.0716 42.3799 46.9883 42.5743 46.9883 42.7965C46.9883 43.0188 47.0716 43.2132 47.2383 43.3799C47.4049 43.5465 47.5994 43.6299 47.8216 43.6299H48.6549V45.1299H36.8216V43.6299H45.4883C45.7105 43.6299 45.9049 43.5465 46.0716 43.3799C46.2383 43.2132 46.3216 43.0188 46.3216 42.7965C46.3216 42.5743 46.2383 42.3799 46.0716 42.2132C45.9049 42.0465 45.7105 41.9632 45.4883 41.9632H40.8216V41.2965H43.1549C43.3772 41.2965 43.5716 41.2132 43.7383 41.0465C43.9049 40.8799 43.9883 40.6854 43.9883 40.4632V37.2965C43.9883 37.0743 43.9049 36.9077 43.7383 36.7965C43.5716 36.6854 43.3772 36.6299 43.1549 36.6299V23.2965C43.1549 23.0743 43.0438 22.8521 42.8216 22.6299L17.6549 0.629883H0.988281C0.766059 0.629883 0.571615 0.713215 0.404948 0.879883C0.238281 1.04655 0.154948 1.24099 0.154948 1.46321C0.154948 1.68544 0.238281 1.8521 0.404948 1.96321C0.571615 2.07433 0.766059 2.12988 0.988281 2.12988V14.6299C0.766059 14.6299 0.571615 14.7132 0.404948 14.8799C0.238281 15.0465 0.154948 15.241 0.154948 15.4632V18.6299C0.154948 18.8521 0.238281 19.0465 0.404948 19.2132C0.571615 19.3799 0.766059 19.4632 0.988281 19.4632H18.1549C18.3772 19.3521 18.5438 19.241 18.6549 19.1299C18.7661 19.0188 18.8216 18.8521 18.8216 18.6299V17.7965L21.4883 20.1299H20.4883C20.2661 20.1299 20.0716 20.2132 19.9049 20.3799C19.7383 20.5465 19.6549 20.741 19.6549 20.9632C19.6549 21.1854 19.7383 21.3799 19.9049 21.5465C20.0716 21.7132 20.2661 21.7965 20.4883 21.7965H23.6549V23.2965H17.3216V21.7965H18.1549C18.3772 21.7965 18.5438 21.7132 18.6549 21.5465C18.7661 21.3799 18.8494 21.1854 18.9049 20.9632C18.9605 20.741 18.9049 20.5465 18.7383 20.3799C18.5716 20.2132 18.3772 20.1299 18.1549 20.1299H16.4883C16.2661 20.1299 16.0994 20.2132 15.9883 20.3799C15.8772 20.5465 15.8216 20.741 15.8216 20.9632V24.1299C15.8216 24.3521 15.8772 24.5188 15.9883 24.6299C16.0994 24.741 16.2661 24.7965 16.4883 24.7965H18.9883V25.6299C18.9883 25.8521 19.0438 26.0465 19.1549 26.2132C19.2661 26.3799 19.4327 26.4632 19.6549 26.4632H21.3216C21.5438 26.4632 21.7105 26.3799 21.8216 26.2132C21.9327 26.0465 21.9883 25.8521 21.9883 25.6299V24.7965H24.3216C24.5438 24.7965 24.7383 24.741 24.9049 24.6299C25.0716 24.5188 25.1549 24.3521 25.1549 24.1299V23.2965L27.8216 25.6299H22.8216C22.5994 25.6299 22.4049 25.7132 22.2383 25.8799C22.0716 26.0465 21.9883 26.241 21.9883 26.4632V29.4632C21.9883 29.6854 22.0716 29.8799 22.2383 30.0465C22.4049 30.2132 22.5994 30.2965 22.8216 30.2965H25.1549V31.1299C25.1549 31.3521 25.2383 31.5188 25.4049 31.6299C25.5716 31.741 25.7661 31.7965 25.9883 31.7965H27.4883C27.7105 31.7965 27.9049 31.741 28.0716 31.6299C28.2383 31.5188 28.3216 31.3521 28.3216 31.1299V30.2965H30.6549C30.8772 30.2965 31.0716 30.2132 31.2383 30.0465C31.4049 29.8799 31.4883 29.6854 31.4883 29.4632V28.7965L33.9883 31.1299H28.9883C28.7661 31.1299 28.5994 31.2132 28.4883 31.3799C28.3772 31.5465 28.3216 31.741 28.3216 31.9632V34.9632C28.3216 35.1854 28.3772 35.3799 28.4883 35.5465C28.5994 35.7132 28.7661 35.7965 28.9883 35.7965H31.4883V36.6299C31.3772 36.8521 31.4049 37.0188 31.5716 37.1299C31.7383 37.241 31.9327 37.2965 32.1549 37.2965H33.8216C34.0438 37.2965 34.2105 37.241 34.3216 37.1299C34.4327 37.0188 34.4883 36.8521 34.4883 36.6299V35.7965H36.8216C37.0438 35.7965 37.2383 35.7132 37.4049 35.5465C37.5716 35.3799 37.6549 35.1854 37.6549 34.9632V34.2965L40.3216 36.6299H35.3216C35.0994 36.6299 34.9049 36.6854 34.7383 36.7965C34.5716 36.9077 34.4883 37.0743 34.4883 37.2965V40.4632C34.4883 40.6854 34.5716 40.8799 34.7383 41.0465C34.9049 41.2132 35.0994 41.2965 35.3216 41.2965H37.6549V41.9632H36.1549C35.9327 41.9632 35.7383 42.0465 35.5716 42.2132C35.4049 42.3799 35.3216 42.5743 35.3216 42.7965V45.1299H32.1549C31.9327 45.1299 31.7383 45.2132 31.5716 45.3799C31.4049 45.5465 31.3216 45.741 31.3216 45.9632V49.7965C31.4327 50.0188 31.5438 50.2132 31.6549 50.3799C31.7661 50.5465 31.9327 50.6299 32.1549 50.6299H49.3216C49.5438 50.6299 49.7383 50.5465 49.9049 50.3799C50.0716 50.2132 50.1549 50.0188 50.1549 49.7965V42.7965C50.1549 42.5743 50.0716 42.3799 49.9049 42.2132C49.7383 42.0465 49.5438 41.9632 49.3216 41.9632ZM16.4883 2.12988V14.6299H4.65495L13.9883 6.62988C14.0994 6.51877 14.1827 6.3521 14.2383 6.12988C14.2938 5.90766 14.2383 5.71321 14.0716 5.54655C13.9049 5.37988 13.7105 5.29655 13.4883 5.29655C13.2661 5.29655 13.0994 5.3521 12.9883 5.46321L2.48828 14.4632V11.9632L8.48828 6.96321C8.59939 6.8521 8.68273 6.68544 8.73828 6.46321C8.79384 6.24099 8.73828 6.04655 8.57162 5.87988C8.40495 5.71321 8.2105 5.62988 7.98828 5.62988C7.76606 5.62988 7.59939 5.68544 7.48828 5.79655L2.48828 9.96321V2.12988H16.4883ZM17.3216 17.7965H1.65495V16.2965H17.3216V17.7965ZM29.8216 28.7965H23.6549V27.1299H29.8216V28.7965ZM30.6549 25.6299V15.4632C30.6549 15.241 30.5716 15.0465 30.4049 14.8799C30.2383 14.7132 30.0438 14.6299 29.8216 14.6299C29.5994 14.6299 29.4049 14.7132 29.2383 14.8799C29.0716 15.0465 28.9883 15.241 28.9883 15.4632V24.6299L25.1549 21.2965V20.9632C25.1549 20.741 25.0716 20.5465 24.9049 20.3799C24.7383 20.2132 24.5438 20.1299 24.3216 20.1299H23.8216L20.1549 16.9632L23.3216 14.2965C23.4327 14.1854 23.5161 14.0188 23.5716 13.7965C23.6272 13.5743 23.5716 13.3799 23.4049 13.2132C23.2383 13.0465 23.0438 12.9632 22.8216 12.9632C22.5994 12.9632 22.4327 13.0188 22.3216 13.1299L18.9883 15.9632V15.7965V15.4632C18.9883 15.241 18.9049 15.0465 18.7383 14.8799C18.5716 14.7132 18.3772 14.6299 18.1549 14.6299V3.12988L25.9883 9.96321L24.6549 11.1299C24.4327 11.241 24.3216 11.4077 24.3216 11.6299C24.3216 11.8521 24.4049 12.0465 24.5716 12.2132C24.7383 12.3799 24.9327 12.4632 25.1549 12.4632C25.3772 12.4632 25.5438 12.4077 25.6549 12.2965L27.1549 10.9632L39.3216 21.6299L32.3216 27.6299L31.4883 26.7965V26.4632C31.4883 26.241 31.4049 26.0465 31.2383 25.8799C31.0716 25.7132 30.8772 25.6299 30.6549 25.6299ZM36.1549 34.2965H29.8216V32.6299H36.1549V34.2965ZM36.8216 31.1299H36.3216L33.4883 28.6299L40.4883 22.6299L41.4883 23.6299V24.7965L39.4883 26.4632C39.3772 26.5743 39.2938 26.741 39.2383 26.9632C39.1827 27.1854 39.2383 27.3799 39.4049 27.5465C39.5716 27.7132 39.7661 27.7965 39.9883 27.7965C40.2105 27.7965 40.3772 27.741 40.4883 27.6299L41.4883 26.7965V35.6299L37.6549 32.1299V31.7965C37.6549 31.6854 37.5716 31.5465 37.4049 31.3799C37.2383 31.2132 37.0438 31.1299 36.8216 31.1299ZM36.1549 38.1299H42.3216V39.6299H36.1549V38.1299ZM48.6549 49.1299H32.9883V46.7965H48.6549V49.1299ZM0.488281 29.9632C0.154948 30.1854 0.0438368 30.4632 0.154948 30.7965C0.37717 31.6854 0.654948 32.5743 0.988281 33.4632C1.65495 35.1299 2.43273 36.4077 3.32161 37.2965H1.65495C1.54384 37.2965 1.40495 37.3799 1.23828 37.5465C1.07161 37.7132 0.988281 37.8521 0.988281 37.9632C0.87717 39.1854 0.821615 40.5188 0.821615 41.9632C0.821615 44.741 1.2105 46.9077 1.98828 48.4632C2.2105 49.1299 2.65495 49.6577 3.32161 50.0465C3.98828 50.4354 4.7105 50.6299 5.48828 50.6299H8.98828C9.65495 50.6299 10.3216 50.4354 10.9883 50.0465C11.6549 49.6577 12.1549 49.1299 12.4883 48.4632C13.1549 46.9077 13.5438 44.741 13.6549 41.9632C13.6549 40.5188 13.5994 39.1854 13.4883 37.9632C13.3772 37.8521 13.2661 37.7132 13.1549 37.5465C13.0438 37.3799 12.8772 37.2965 12.6549 37.2965H10.4883C11.7105 36.0743 12.9327 34.1854 14.1549 31.6299C14.8216 30.1854 15.3772 28.7965 15.8216 27.4632C15.9327 27.1299 15.7938 26.8521 15.4049 26.6299C15.0161 26.4077 14.7105 26.4632 14.4883 26.7965C13.2661 28.0188 12.0994 29.3521 10.9883 30.7965C10.9883 29.7965 10.9327 28.9632 10.8216 28.2965C10.8216 28.0743 10.7383 27.9077 10.5716 27.7965C10.4049 27.6854 10.2105 27.6299 9.98828 27.6299C9.76606 27.6299 9.59939 27.7132 9.48828 27.8799C9.37717 28.0465 9.32162 28.241 9.32162 28.4632C9.43273 29.9077 9.43273 31.4077 9.32162 32.9632C9.2105 34.4077 8.98828 35.5188 8.65495 36.2965L8.82162 34.4632C9.15495 31.9077 9.09939 29.0188 8.65495 25.7965C8.43273 24.1299 8.2105 22.6854 7.98828 21.4632C7.87717 21.1299 7.62717 20.9354 7.23828 20.8799C6.84939 20.8243 6.59939 21.0188 6.48828 21.4632C5.93273 23.1299 5.59939 25.3521 5.48828 28.1299C4.93273 27.0188 4.43273 26.0743 3.98828 25.2965C3.76606 24.9632 3.4605 24.8521 3.07161 24.9632C2.68273 25.0743 2.48828 25.3521 2.48828 25.7965C2.59939 27.6854 2.87717 29.6299 3.32161 31.6299C2.65495 30.9632 2.04384 30.4077 1.48828 29.9632C1.15495 29.741 0.821615 29.741 0.488281 29.9632ZM10.9883 47.7965C10.8772 48.1299 10.6272 48.4354 10.2383 48.7132C9.84939 48.991 9.43273 49.1299 8.98828 49.1299H5.48828C5.04384 49.1299 4.62717 48.991 4.23828 48.7132C3.84939 48.4354 3.54384 48.1299 3.32161 47.7965C2.43273 45.9077 2.15495 42.9632 2.48828 38.9632H11.9883C12.2105 42.9632 11.8772 45.9077 10.9883 47.7965ZM10.6549 34.6299C10.7661 34.2965 10.8216 33.9077 10.8216 33.4632L12.4883 31.2965C11.9327 32.6299 11.3216 33.741 10.6549 34.6299ZM7.15495 26.2965C7.37717 28.6299 7.43273 30.8521 7.32161 32.9632L6.98828 31.6299C6.87717 29.8521 6.93273 28.0743 7.15495 26.2965ZM5.48828 32.1299C6.04384 33.7965 6.37717 35.1854 6.48828 36.2965V36.1299C6.26606 35.6854 6.04384 35.241 5.82161 34.7965C5.37717 33.5743 4.98828 31.9632 4.65495 29.9632L5.48828 32.1299ZM4.48828 35.4632C4.59939 35.9077 4.76606 36.3521 4.98828 36.7965L5.15495 36.9632C4.26606 36.4077 3.43273 35.1299 2.65495 33.1299C3.32161 33.9077 3.93273 34.6854 4.48828 35.4632ZM39.9883 0.629883C39.7661 0.629883 39.5716 0.713215 39.4049 0.879883C39.2383 1.04655 39.1549 1.24099 39.1549 1.46321V3.96321C38.7105 4.07433 38.3494 4.32433 38.0716 4.71321C37.7938 5.1021 37.6549 5.57433 37.6549 6.12988V8.46321C37.6549 8.90766 37.7938 9.26877 38.0716 9.54655C38.3494 9.82433 38.7105 9.96321 39.1549 9.96321H40.8216C41.2661 9.96321 41.6272 9.82433 41.9049 9.54655C42.1827 9.26877 42.3216 8.90766 42.3216 8.46321V6.12988C42.3216 5.57433 42.1827 5.1021 41.9049 4.71321C41.6272 4.32433 41.2661 4.07433 40.8216 3.96321V1.46321C40.8216 1.24099 40.7383 1.04655 40.5716 0.879883C40.4049 0.713215 40.2105 0.629883 39.9883 0.629883ZM39.1549 8.46321V6.12988C39.1549 5.90766 39.2383 5.71321 39.4049 5.54655C39.5716 5.37988 39.7661 5.29655 39.9883 5.29655C40.2105 5.29655 40.4049 5.37988 40.5716 5.54655C40.7383 5.71321 40.8216 5.90766 40.8216 6.12988V8.46321H39.1549ZM43.9883 0.629883C43.7661 0.629883 43.5716 0.713215 43.4049 0.879883C43.2383 1.04655 43.1549 1.24099 43.1549 1.46321V11.6299C42.7105 11.8521 42.3216 12.1577 41.9883 12.5465C41.6549 12.9354 41.4883 13.4077 41.4883 13.9632V16.2965C41.4883 16.741 41.6549 17.1021 41.9883 17.3799C42.3216 17.6577 42.7105 17.7965 43.1549 17.7965H44.6549C45.0994 17.7965 45.4883 17.6577 45.8216 17.3799C46.1549 17.1021 46.3216 16.741 46.3216 16.2965V13.9632C46.3216 13.4077 46.1549 12.9354 45.8216 12.5465C45.4883 12.1577 45.0994 11.8521 44.6549 11.6299V1.46321C44.6549 1.24099 44.5716 1.04655 44.4049 0.879883C44.2383 0.713215 44.0994 0.629883 43.9883 0.629883ZM43.1549 16.2965V13.9632C43.1549 13.741 43.2383 13.5465 43.4049 13.3799C43.5716 13.2132 43.7383 13.1299 43.9049 13.1299C44.0716 13.1299 44.2383 13.2132 44.4049 13.3799C44.5716 13.5465 44.6549 13.741 44.6549 13.9632V16.2965H43.1549ZM48.6549 5.46321V1.46321C48.6549 1.24099 48.5716 1.04655 48.4049 0.879883C48.2383 0.713215 48.0438 0.629883 47.8216 0.629883C47.5994 0.629883 47.4049 0.713215 47.2383 0.879883C47.0716 1.04655 46.9883 1.24099 46.9883 1.46321V5.46321C46.5438 5.57433 46.1827 5.8521 45.9049 6.29655C45.6272 6.74099 45.4883 7.18544 45.4883 7.62988V9.96321C45.4883 10.4077 45.6272 10.7965 45.9049 11.1299C46.1827 11.4632 46.5438 11.6299 46.9883 11.6299H48.6549C49.0994 11.6299 49.4605 11.4632 49.7383 11.1299C50.0161 10.7965 50.1549 10.4077 50.1549 9.96321V7.62988C50.1549 7.18544 50.0161 6.74099 49.7383 6.29655C49.4605 5.8521 49.0994 5.57433 48.6549 5.46321ZM46.9883 9.96321V7.62988C46.9883 7.40766 47.0716 7.21321 47.2383 7.04655C47.4049 6.87988 47.5994 6.79655 47.8216 6.79655C48.0438 6.79655 48.2383 6.87988 48.4049 7.04655C48.5716 7.21321 48.6549 7.40766 48.6549 7.62988V9.96321H46.9883ZM10.1549 5.29655C10.3772 5.29655 10.5438 5.24099 10.6549 5.12988L11.6549 4.29655C11.7661 4.18544 11.8216 4.01877 11.8216 3.79655C11.8216 3.57433 11.7661 3.37988 11.6549 3.21321C11.5438 3.04655 11.3772 2.96321 11.1549 2.96321C10.9327 2.96321 10.7661 3.01877 10.6549 3.12988L9.65495 3.96321C9.54384 4.07433 9.4605 4.24099 9.40495 4.46321C9.34939 4.68544 9.40495 4.87988 9.57162 5.04655C9.73828 5.21321 9.93273 5.29655 10.1549 5.29655ZM38.9883 27.9632C38.8772 27.741 38.7105 27.6299 38.4883 27.6299C38.2661 27.6299 38.0994 27.6854 37.9883 27.7965L36.3216 29.1299C36.2105 29.241 36.1272 29.4077 36.0716 29.6299C36.0161 29.8521 36.0716 30.0465 36.2383 30.2132C36.4049 30.3799 36.5994 30.4632 36.8216 30.4632C37.0438 30.4632 37.2105 30.4077 37.3216 30.2965L38.9883 28.9632C39.0994 28.8521 39.1827 28.6854 39.2383 28.4632C39.2938 28.241 39.2105 28.0743 38.9883 27.9632Z" fill="white"/>
</svg>
