<svg width="45" height="45" viewBox="0 0 45 45" fill="none" xmlns="http://www.w3.org/2000/svg">
<path d="M43.0547 12.1301L25.5047 1.33008C24.6047 0.830078 23.6547 0.580078 22.6547 0.580078C21.6547 0.580078 20.7047 0.830078 19.8047 1.33008L2.25469 12.1301C1.55469 12.6301 1.10469 13.2551 0.904688 14.0051C0.704687 14.7551 0.804688 15.4301 1.20469 16.0301C1.80469 16.9301 2.60469 17.3801 3.60469 17.3801V44.0801H41.7047V17.3801C42.7047 17.3801 43.5047 16.9301 44.1047 16.0301C44.5047 15.4301 44.6047 14.7551 44.4047 14.0051C44.2047 13.2551 43.7547 12.6301 43.0547 12.1301ZM9.30469 34.3301H12.7547C12.9547 34.3301 13.1297 34.3801 13.2797 34.4801C13.4297 34.5801 13.5047 34.7301 13.5047 34.9301V35.6801H9.30469V34.3301ZM9.30469 37.0301H21.9047V38.5301H9.30469V37.0301ZM9.30469 39.8801H21.9047V42.7301H9.30469V39.8801ZM14.8547 35.6801V34.9301C14.8547 34.4301 14.6547 33.9551 14.2547 33.5051C13.8547 33.0551 13.3547 32.8301 12.7547 32.8301H12.1547V28.6301H15.0047L14.1047 23.0801H8.70469L7.80469 28.6301H10.6547V32.8301H9.15469C9.05469 32.4301 8.80469 32.1051 8.40469 31.8551C8.00469 31.6051 7.60469 31.4801 7.20469 31.4801H5.10469V21.5801H24.7547V42.7301H23.4047V35.6801H14.8547ZM9.45469 27.2801L9.90469 24.4301H12.9047L13.3547 27.2801H9.45469ZM5.10469 17.3801H6.45469V20.2301H5.10469V17.3801ZM33.1547 39.8801H26.1047V38.5301H33.1547V39.8801ZM33.1547 37.0301H26.1047V34.3301H33.1547V37.0301ZM33.1547 32.8301H26.1047V31.4801H33.1547V32.8301ZM33.1547 30.1301H26.1047V27.2801H33.1547V30.1301ZM33.1547 25.7801H26.1047V24.4301H33.1547V25.7801ZM24.7547 20.2301V17.3801H34.6547V20.2301H24.7547ZM23.4047 20.2301H21.9047V17.3801H23.4047V20.2301ZM20.5547 20.2301H17.7047V17.3801H20.5547V20.2301ZM16.3547 20.2301H14.8547V17.3801H16.3547V20.2301ZM13.5047 20.2301H10.6547V17.3801H13.5047V20.2301ZM9.30469 20.2301H7.95469V17.3801H9.30469V20.2301ZM26.1047 41.3801H33.1547V42.7301H26.1047V41.3801ZM33.1547 23.0801H26.1047V21.5801H33.1547V23.0801ZM36.0047 17.3801H37.3547V20.2301H36.0047V17.3801ZM38.8547 17.3801H40.2047V20.2301H38.8547V17.3801ZM6.75469 16.0301L22.6547 6.28008L38.5547 16.0301H6.75469ZM5.10469 32.8301H7.20469C7.40469 32.8301 7.57969 32.9051 7.72969 33.0551C7.87969 33.2051 7.95469 33.3801 7.95469 33.5801V42.7301H5.10469V32.8301ZM34.6547 42.7301V21.5801H40.2047V42.7301H34.6547ZM42.9047 15.2801C42.7047 15.6801 42.4047 15.9051 42.0047 15.9551C41.6047 16.0051 41.2547 15.9301 40.9547 15.7301L22.9547 4.78008H22.3547L4.35469 15.7301C4.05469 15.9301 3.70469 16.0051 3.30469 15.9551C2.90469 15.9051 2.60469 15.7051 2.40469 15.3551C2.20469 15.0051 2.15469 14.6301 2.25469 14.2301C2.35469 13.8301 2.60469 13.5301 3.00469 13.3301L20.5547 2.53008C21.2547 2.13008 21.9547 1.93008 22.6547 1.93008C23.3547 1.93008 24.0547 2.13008 24.7547 2.53008L42.3047 13.3301C42.7047 13.5301 42.9547 13.8301 43.0547 14.2301C43.1547 14.6301 43.1047 14.9801 42.9047 15.2801ZM19.8047 11.0801C19.8047 11.8801 20.0797 12.5551 20.6297 13.1051C21.1797 13.6551 21.8547 13.9301 22.6547 13.9301C23.4547 13.9301 24.1297 13.6551 24.6797 13.1051C25.2297 12.5551 25.5047 11.8801 25.5047 11.0801C25.5047 10.2801 25.2297 9.60508 24.6797 9.05508C24.1297 8.50508 23.4547 8.23008 22.6547 8.23008C21.8547 8.23008 21.1797 8.50508 20.6297 9.05508C20.0797 9.60508 19.8047 10.2801 19.8047 11.0801ZM24.0047 11.0801C24.0047 11.4801 23.8797 11.8051 23.6297 12.0551C23.3797 12.3051 23.0547 12.4301 22.6547 12.4301C22.2547 12.4301 21.9297 12.3051 21.6797 12.0551C21.4297 11.8051 21.3047 11.4801 21.3047 11.0801C21.3047 10.6801 21.4297 10.3551 21.6797 10.1051C21.9297 9.85508 22.2547 9.73008 22.6547 9.73008C23.0547 9.73008 23.3797 9.85508 23.6297 10.1051C23.8797 10.3551 24.0047 10.6801 24.0047 11.0801Z" fill="black"/>
</svg>
