<svg width="94" height="69" viewBox="0 0 94 69" fill="none" xmlns="http://www.w3.org/2000/svg">
<path d="M51 50V47H54V50H51Z" fill="#CDA274"/>
<path d="M46 50V47H49V50H46Z" fill="#CDA274"/>
<path d="M46 55V52H49V55H46Z" fill="#CDA274"/>
<path d="M51 55V52H54V55H51Z" fill="#CDA274"/>
<path d="M58 69V37H62V69H58Z" fill="black"/>
<path d="M22.659 32.1319L5.55 49V68.5H22.3619L22.659 32.1319Z" fill="#CDA274"/>
<path d="M61 32L51.5 23L37.5 9V17.5V32H61Z" fill="#CDA274"/>
<path d="M0 68.5H5.55M93.5 68.5H87.5M87.5 68.5V41.5M87.5 68.5H61.5M87.5 41.5L92 45.5M87.5 41.5L59.5 13.5M47 1L59.5 13.5M59.5 13.5L51.5 23M51.5 23L61 32H37.5V17.5M51.5 23L37.5 9V17.5M37.5 17.5L22.659 32.1319M2 52.5L5.55 49M5.55 49V68.5M5.55 49V10L5.5 38M5.55 49L22.659 32.1319M5.55 68.5H22.3619M5.5 38L1.5 42M5.5 38L22.75 21M40 4L22.75 21M22.75 21V1M22.75 21L22.659 32.1319M22.3619 68.5H37.5M22.3619 68.5L22.659 32.1319M37.5 68.5H61.5M37.5 68.5V64M61.5 68.5V37H37.5V39M37.5 69V64M37.5 64H25.5V39H37.5M37.5 64V39" stroke="#374A75"/>
</svg>
