<svg width="51" height="50" viewBox="0 0 51 50" fill="none" xmlns="http://www.w3.org/2000/svg">
<path d="M18.9886 20.3333H20.4886V21.8333H18.9886V20.3333ZM12.6553 20.3333H14.1553V21.8333H12.6553V20.3333ZM28.9886 30.5H30.6553V32H28.9886V30.5ZM35.3219 30.5H36.8219V32H35.3219V30.5ZM38.4886 37.5V36H39.9886C40.2108 36 40.4053 35.9167 40.5719 35.75C40.7386 35.5833 40.8219 35.3889 40.8219 35.1667V24.1667C40.8219 23.9444 40.7386 23.7778 40.5719 23.6667C40.4053 23.5556 40.2108 23.5 39.9886 23.5H36.3219L36.8219 20.5C36.9331 20.2778 36.9053 20.0556 36.7386 19.8333C36.5719 19.6111 36.3775 19.5 36.1553 19.5H35.4886L36.1553 16.5L34.4886 16.3333L33.8219 19.5H31.9886L31.3219 16.3333L29.8219 16.5L30.4886 19.5H29.8219C29.5997 19.5 29.4053 19.6111 29.2386 19.8333C29.0719 20.0556 29.0442 20.2778 29.1553 20.5L29.6553 23.5H26.6553V7C26.6553 6.77778 26.5997 6.58333 26.4886 6.41667C26.3775 6.25 26.2108 6.16667 25.9886 6.16667H7.15527C6.93305 6.16667 6.76638 6.25 6.65527 6.41667C6.54416 6.58333 6.48861 6.77778 6.48861 7V35.1667C6.48861 35.3889 6.54416 35.5833 6.65527 35.75C6.76638 35.9167 6.93305 36 7.15527 36H9.48861V37.5H11.1553V36H21.9886V37.5H23.6553V36H28.3219V37.5H29.8219V36H36.8219V37.5H38.4886ZM7.98861 7.83333H15.8219V34.3333H7.98861V7.83333ZM25.1553 34.3333H17.3219V7.83333H25.1553V34.3333ZM33.8219 34.3333V28.1667H39.1553V34.3333H33.8219ZM32.1553 34.3333H26.6553V28.1667H32.1553V34.3333ZM30.8219 21.1667H35.1553L34.6553 23.5H31.3219L30.8219 21.1667ZM39.1553 25V26.5H26.6553V25H39.1553ZM40.8219 7C40.8219 6.77778 40.7386 6.58333 40.5719 6.41667C40.4053 6.25 40.2108 6.16667 39.9886 6.16667H29.8219C29.5997 6.16667 29.4053 6.25 29.2386 6.41667C29.0719 6.58333 28.9886 6.77778 28.9886 7V13.3333C28.9886 13.5556 29.0719 13.7222 29.2386 13.8333C29.4053 13.9444 29.5997 14 29.8219 14H39.9886C40.2108 14 40.4053 13.9444 40.5719 13.8333C40.7386 13.7222 40.8219 13.5556 40.8219 13.3333V7ZM39.1553 12.5H30.6553V7.83333H39.1553V12.5ZM43.9886 46.8333H10.3219V40.6667C10.3219 40.4444 10.2386 40.25 10.0719 40.0833C9.90527 39.9167 9.71083 39.8333 9.48861 39.8333H3.32194V3.16667H43.9886V36.6667H45.4886V2.33333C45.4886 2.11111 45.4053 1.91667 45.2386 1.75C45.0719 1.58333 44.8775 1.5 44.6553 1.5H2.48861C2.26638 1.5 2.07194 1.58333 1.90527 1.75C1.73861 1.91667 1.65527 2.11111 1.65527 2.33333V40.6667C1.65527 40.8889 1.76638 41.0556 1.98861 41.1667L8.98861 48.1667C9.09972 48.3889 9.26638 48.5 9.48861 48.5H44.6553C44.8775 48.5 45.0719 48.4167 45.2386 48.25C45.4053 48.0833 45.4886 47.8889 45.4886 47.6667V44.5H43.9886V46.8333ZM8.82194 45.8333L4.32194 41.3333H8.82194V45.8333ZM48.4886 40.5C48.4886 39.8333 48.2664 39.2778 47.8219 38.8333C47.3775 38.3889 46.8219 38.2222 46.1553 38.3333L14.8219 39.8333C14.7108 39.8333 14.5442 39.9444 14.3219 40.1667L12.8219 41.8333C12.7108 41.9444 12.6553 42.1111 12.6553 42.3333C12.6553 42.5556 12.7664 42.7222 12.9886 42.8333L14.6553 44.3333C14.7664 44.4444 14.9331 44.5 15.1553 44.5L46.3219 43C46.9886 42.8889 47.5442 42.6111 47.9886 42.1667C48.4331 41.7222 48.5997 41.1667 48.4886 40.5ZM14.4886 42.1667L15.3219 41.3333H17.3219V42.8333L15.3219 43L14.4886 42.1667ZM46.8219 41.1667C46.7108 41.2778 46.5442 41.3333 46.3219 41.3333L18.9886 42.8333L18.8219 41.1667L46.1553 39.8333C46.4886 39.8333 46.7386 40 46.9053 40.3333C47.0719 40.6667 47.0442 40.9444 46.8219 41.1667Z" fill="white"/>
</svg>
