<svg width="48" height="48" viewBox="0 0 48 48" fill="none" xmlns="http://www.w3.org/2000/svg">
<path d="M17.9876 18.9632H19.4876V20.4632H17.9876V18.9632ZM11.6543 18.9632H13.1543V20.4632H11.6543V18.9632ZM27.9876 29.1299H29.6543V30.6299H27.9876V29.1299ZM34.321 29.1299H35.821V30.6299H34.321V29.1299ZM37.4876 36.1299V34.6299H38.9876C39.2099 34.6299 39.4043 34.5465 39.571 34.3799C39.7376 34.2132 39.821 34.0188 39.821 33.7965V22.7965C39.821 22.5743 39.7376 22.4077 39.571 22.2965C39.4043 22.1854 39.2099 22.1299 38.9876 22.1299H35.321L35.821 19.1299C35.9321 18.9077 35.9043 18.6854 35.7376 18.4632C35.571 18.241 35.3765 18.1299 35.1543 18.1299H34.4876L35.1543 15.1299L33.4876 14.9632L32.821 18.1299H30.9876L30.321 14.9632L28.821 15.1299L29.4876 18.1299H28.821C28.5987 18.1299 28.4043 18.241 28.2376 18.4632C28.071 18.6854 28.0432 18.9077 28.1543 19.1299L28.6543 22.1299H25.6543V5.62988C25.6543 5.40766 25.5987 5.21321 25.4876 5.04655C25.3765 4.87988 25.2099 4.79655 24.9876 4.79655H6.1543C5.93208 4.79655 5.76541 4.87988 5.6543 5.04655C5.54319 5.21321 5.48763 5.40766 5.48763 5.62988V33.7965C5.48763 34.0188 5.54319 34.2132 5.6543 34.3799C5.76541 34.5465 5.93208 34.6299 6.1543 34.6299H8.48763V36.1299H10.1543V34.6299H20.9876V36.1299H22.6543V34.6299H27.321V36.1299H28.821V34.6299H35.821V36.1299H37.4876ZM6.98763 6.46321H14.821V32.9632H6.98763V6.46321ZM24.1543 32.9632H16.321V6.46321H24.1543V32.9632ZM32.821 32.9632V26.7965H38.1543V32.9632H32.821ZM31.1543 32.9632H25.6543V26.7965H31.1543V32.9632ZM29.821 19.7965H34.1543L33.6543 22.1299H30.321L29.821 19.7965ZM38.1543 23.6299V25.1299H25.6543V23.6299H38.1543ZM39.821 5.62988C39.821 5.40766 39.7376 5.21321 39.571 5.04655C39.4043 4.87988 39.2099 4.79655 38.9876 4.79655H28.821C28.5987 4.79655 28.4043 4.87988 28.2376 5.04655C28.071 5.21321 27.9876 5.40766 27.9876 5.62988V11.9632C27.9876 12.1854 28.071 12.3521 28.2376 12.4632C28.4043 12.5743 28.5987 12.6299 28.821 12.6299H38.9876C39.2099 12.6299 39.4043 12.5743 39.571 12.4632C39.7376 12.3521 39.821 12.1854 39.821 11.9632V5.62988ZM38.1543 11.1299H29.6543V6.46321H38.1543V11.1299ZM42.9876 45.4632H9.32096V39.2965C9.32096 39.0743 9.23763 38.8799 9.07096 38.7132C8.9043 38.5465 8.70985 38.4632 8.48763 38.4632H2.32096V1.79655H42.9876V35.2965H44.4876V0.963215C44.4876 0.740993 44.4043 0.546547 44.2376 0.379883C44.071 0.213215 43.8765 0.129883 43.6543 0.129883H1.48763C1.26541 0.129883 1.07096 0.213215 0.904297 0.379883C0.73763 0.546547 0.654297 0.740993 0.654297 0.963215V39.2965C0.654297 39.5188 0.765408 39.6854 0.98763 39.7965L7.98763 46.7965C8.09874 47.0188 8.26541 47.1299 8.48763 47.1299H43.6543C43.8765 47.1299 44.071 47.0465 44.2376 46.8799C44.4043 46.7132 44.4876 46.5188 44.4876 46.2965V43.1299H42.9876V45.4632ZM7.82096 44.4632L3.32096 39.9632H7.82096V44.4632ZM47.4876 39.1299C47.4876 38.4632 47.2654 37.9077 46.821 37.4632C46.3765 37.0188 45.821 36.8521 45.1543 36.9632L13.821 38.4632C13.7099 38.4632 13.5432 38.5743 13.321 38.7965L11.821 40.4632C11.7099 40.5743 11.6543 40.741 11.6543 40.9632C11.6543 41.1854 11.7654 41.3521 11.9876 41.4632L13.6543 42.9632C13.7654 43.0743 13.9321 43.1299 14.1543 43.1299L45.321 41.6299C45.9876 41.5188 46.5432 41.241 46.9876 40.7965C47.4321 40.3521 47.5987 39.7965 47.4876 39.1299ZM13.4876 40.7965L14.321 39.9632H16.321V41.4632L14.321 41.6299L13.4876 40.7965ZM45.821 39.7965C45.7099 39.9077 45.5432 39.9632 45.321 39.9632L17.9876 41.4632L17.821 39.7965L45.1543 38.4632C45.4876 38.4632 45.7376 38.6299 45.9043 38.9632C46.071 39.2965 46.0432 39.5743 45.821 39.7965Z" fill="#374A75"/>
</svg>
