<svg width="20" height="7" viewBox="0 0 20 7" fill="none" xmlns="http://www.w3.org/2000/svg">
<path d="M17.4629 6.02539C17.6736 5.8212 17.9587 5.54099 18.2617 5.24121C18.5649 4.9412 18.8857 4.62164 19.167 4.33887L19.8359 3.65723L19.9414 3.54395L19.2803 2.09668C19.0929 1.69045 18.9214 1.31994 18.7959 1.0498C18.7332 0.914909 18.6817 0.805259 18.6455 0.728516C18.6415 0.720016 18.6374 0.711766 18.6338 0.704102L18.6201 0.749023L18.6191 0.750977L18.4434 1.40332H18.4443L18.3271 1.87305L18.6953 2.68945C18.7971 2.9167 18.8917 3.12569 18.96 3.27832C18.994 3.35439 19.0217 3.4168 19.041 3.46094C19.0507 3.483 19.0582 3.50104 19.0635 3.51367C19.066 3.51974 19.0678 3.52515 19.0693 3.5293C19.0701 3.53134 19.0716 3.53391 19.0723 3.53613C19.0726 3.53721 19.0728 3.53913 19.0732 3.54102C19.0735 3.54221 19.0752 3.54746 19.0752 3.55371C19.0752 3.56158 19.0732 3.56767 19.0723 3.57031C19.0713 3.57312 19.0701 3.57569 19.0693 3.57715C19.0679 3.57994 19.0663 3.58271 19.0654 3.58398C19.0637 3.58656 19.0612 3.58881 19.0596 3.59082C19.056 3.59513 19.0514 3.6013 19.0459 3.60742C19.0347 3.61981 19.0184 3.63681 18.998 3.6582C18.9572 3.7012 18.8984 3.76195 18.8262 3.83594L18.2646 4.40625L18.2637 4.40723L17.4727 5.19434L17.3232 5.7793C17.2818 5.94215 17.2476 6.09386 17.2246 6.20605C17.2203 6.22709 17.2163 6.24666 17.2129 6.26465C17.2734 6.20786 17.3593 6.12581 17.4629 6.02539Z" fill="#156B40" stroke="#EC6B40" stroke-width="0.1"/>
<path d="M17.6742 1.17772C17.5736 1.56381 17.2288 2.91249 16.9031 4.17654C16.5774 5.4406 16.3188 6.48781 16.3284 6.49838C16.3571 6.53012 16.8073 6.09114 17.3533 5.49349C17.6311 5.19731 18.1244 4.67899 18.4549 4.34579C18.7854 4.01258 19.0919 3.70054 19.1398 3.64765C19.226 3.56303 19.2164 3.526 18.8716 2.74324C18.6752 2.29368 18.3783 1.61141 18.2106 1.22532C18.043 0.833936 17.8945 0.511311 17.8754 0.500733C17.861 0.490155 17.77 0.796913 17.6742 1.17772Z" fill="#EC6B40"/>
<path d="M9.01354 0.536062L8.25951 0.55111L8.10507 1.11793L7.94609 1.67973L10.6124 1.70481L13.2743 1.72989L13.1107 2.30674L12.9427 2.88359L10.3127 2.90867L7.67809 2.93375L7.35104 4.23793C7.16935 4.95523 6.96948 5.73774 6.91043 5.97851L6.79688 6.41992H7.33287H7.86887L8.0551 5.62738C8.15958 5.196 8.28222 4.66931 8.32765 4.46365L8.41395 4.08745L10.885 4.06236C13.6331 4.03227 13.5014 4.05233 13.7785 3.68114C13.8829 3.54571 13.9556 3.31999 14.1055 2.71806C14.5416 0.937348 14.5234 1.04269 14.4689 0.842042C14.378 0.495933 14.4235 0.500949 11.9615 0.510981C10.7533 0.515997 9.42689 0.531045 9.01354 0.536062Z" fill="#6B6B6B"/>
<path d="M14.5019 3.29868C14.1067 4.8336 13.7751 6.1428 13.757 6.20299C13.7342 6.31836 13.7342 6.31836 14.2975 6.31836H14.8608L15.0788 5.45058C15.1969 4.97907 15.4876 3.83038 15.7193 2.90743C15.9555 1.98447 16.1871 1.06151 16.2371 0.860866L16.3279 0.499708H15.7738H15.2196L14.5019 3.29868Z" fill="#6B6B6B"/>
<path d="M1.29585 0.57495C1.29585 0.589998 0.996059 1.77881 0.632672 3.21341C0.155726 5.09945 -0.0168836 5.86691 0.0012858 5.97225C0.0194552 6.05251 0.083048 6.16286 0.146641 6.21804C0.260199 6.31836 0.328335 6.31836 3.11733 6.31836H5.96993L6.08803 6.20299C6.21521 6.0826 6.15616 6.30331 7.12823 2.45598C7.37351 1.50292 7.57792 0.685304 7.59154 0.635143C7.61426 0.554885 7.57792 0.549869 7.06009 0.559902L6.50592 0.57495L5.97447 2.73186C5.68376 3.91566 5.42939 4.95399 5.41122 5.02923L5.37942 5.17469L3.36262 5.15463C2.25429 5.1446 1.33674 5.12453 1.32311 5.10948C1.30494 5.08942 1.55023 4.07116 1.86365 2.8372C2.17707 1.60325 2.43144 0.584982 2.43144 0.57495C2.43144 0.559902 2.17707 0.549869 1.86365 0.549869C1.55023 0.549869 1.29585 0.559902 1.29585 0.57495Z" fill="#6B6B6B"/>
</svg>
