<svg width="58" height="57" viewBox="0 0 58 57" fill="none" xmlns="http://www.w3.org/2000/svg">
<path d="M51.0747 13.6798C50.8214 13.6798 50.6314 13.7748 50.5047 13.9648C50.378 14.1548 50.3147 14.3132 50.3147 14.4398V53.3898C50.3147 53.6432 50.378 53.8648 50.5047 54.0548C50.6314 54.2448 50.8214 54.3398 51.0747 54.3398C51.328 54.3398 51.5497 54.2448 51.7397 54.0548C51.9297 53.8648 52.0247 53.6432 52.0247 53.3898V14.4398C52.0247 14.3132 51.9297 14.1548 51.7397 13.9648C51.5497 13.7748 51.328 13.6798 51.0747 13.6798ZM54.8747 6.26984L29.0347 1.70984L2.81469 6.26984C2.30802 6.39651 2.05469 6.64985 2.05469 7.02985V11.5898C2.05469 11.8432 2.14969 12.0648 2.33969 12.2548C2.52969 12.4448 2.75135 12.5398 3.00469 12.5398L5.66469 11.9698V53.3898C5.66469 53.6432 5.75969 53.8648 5.94969 54.0548C6.13969 54.2448 6.36135 54.3398 6.61469 54.3398C6.86802 54.3398 7.08969 54.2448 7.27969 54.0548C7.46969 53.8648 7.56469 53.6432 7.56469 53.3898V31.1598H47.4647C47.718 31.1598 47.9397 31.0648 48.1297 30.8748C48.3197 30.6848 48.4147 30.4632 48.4147 30.2098V14.2498C48.4147 13.9965 48.3197 13.7748 48.1297 13.5848C47.9397 13.3948 47.718 13.2998 47.4647 13.2998H36.8247C36.5714 13.2998 36.3497 13.3948 36.1597 13.5848C35.9697 13.7748 35.8747 13.9965 35.8747 14.2498V26.7898C36.0014 27.0432 36.128 27.2332 36.2547 27.3598C36.3814 27.4865 36.5714 27.5498 36.8247 27.5498C37.078 27.5498 37.2997 27.4865 37.4897 27.3598C37.6797 27.2332 37.7747 27.0432 37.7747 26.7898V15.1998H41.3847V21.2798H40.4347C40.1814 21.2798 39.9597 21.3748 39.7697 21.5648C39.5797 21.7548 39.4847 21.9765 39.4847 22.2298C39.4847 22.4832 39.5797 22.7048 39.7697 22.8948C39.9597 23.0848 40.1814 23.1798 40.4347 23.1798H41.3847V29.4498H31.5047V21.2798C31.5047 21.1532 31.4097 20.9948 31.2197 20.8048C31.0297 20.6148 30.808 20.5198 30.5547 20.5198H21.8147C21.8147 19.7598 21.593 19.0632 21.1497 18.4298C20.7064 17.7965 20.1364 17.3532 19.4397 17.0998C18.743 16.8465 18.0464 16.8148 17.3497 17.0048C16.653 17.1948 16.0514 17.6065 15.5447 18.2398V15.9598C15.5447 15.3265 15.2597 14.7248 14.6897 14.1548C14.1197 13.5848 13.4864 13.2998 12.7897 13.2998C12.093 13.2998 11.4914 13.5848 10.9847 14.1548C10.478 14.7248 10.2247 15.3265 10.2247 15.9598V21.2798C10.2247 21.5332 10.288 21.7548 10.4147 21.9448C10.5414 22.1348 10.7314 22.2298 10.9847 22.2298C11.238 22.2298 11.4597 22.1348 11.6497 21.9448C11.8397 21.7548 11.9347 21.5332 11.9347 21.2798V15.9598C11.9347 15.7065 12.0297 15.5165 12.2197 15.3898C12.4097 15.2632 12.6314 15.1998 12.8847 15.1998C13.138 15.1998 13.328 15.2632 13.4547 15.3898C13.5814 15.5165 13.6447 15.7065 13.6447 15.9598V29.4498H11.9347V24.8898C11.9347 24.6365 11.8397 24.4465 11.6497 24.3198C11.4597 24.1932 11.238 24.1298 10.9847 24.1298C10.7314 24.1298 10.5414 24.1932 10.4147 24.3198C10.288 24.4465 10.2247 24.6365 10.2247 24.8898V29.4498H7.56469V11.7798L28.8447 7.97984L34.9247 9.11984C35.3047 9.11984 35.6214 8.99318 35.8747 8.73985C36.128 8.48651 36.1914 8.20151 36.0647 7.88485C35.938 7.56818 35.6847 7.40984 35.3047 7.40984L28.6547 6.26984L3.95469 10.4498V7.78984L28.8447 3.60984L53.7347 7.78984V10.4498L38.9147 7.97984C38.6614 7.85318 38.408 7.88485 38.1547 8.07484C37.9014 8.26484 37.7747 8.48651 37.7747 8.73985C37.7747 8.99318 37.838 9.21484 37.9647 9.40485C38.0914 9.59484 38.2814 9.68985 38.5347 9.68985L54.4947 12.5398C54.748 12.5398 55.0014 12.4448 55.2547 12.2548C55.508 12.0648 55.6347 11.8432 55.6347 11.5898V7.02985C55.6347 6.64985 55.3814 6.39651 54.8747 6.26984ZM43.0947 23.1798H44.0447C44.298 23.1798 44.488 23.0848 44.6147 22.8948C44.7414 22.7048 44.8047 22.4832 44.8047 22.2298C44.8047 21.9765 44.7414 21.7548 44.6147 21.5648C44.488 21.3748 44.298 21.2798 44.0447 21.2798H43.0947V15.1998H46.7047V29.4498H43.0947V23.1798ZM27.8947 29.4498V27.5498H29.7947V29.4498H27.8947ZM29.7947 22.2298V25.8398H15.5447V22.2298H29.7947ZM18.2047 18.6198C18.7114 18.6198 19.123 18.8098 19.4397 19.1898C19.7564 19.5698 19.9147 20.0132 19.9147 20.5198H16.3047C16.3047 20.0132 16.4947 19.5698 16.8747 19.1898C17.2547 18.8098 17.698 18.6198 18.2047 18.6198ZM15.5447 27.5498H26.1847V29.4498H15.5447V27.5498ZM24.4747 10.6398C24.2214 10.6398 23.9997 10.7348 23.8097 10.9248C23.6197 11.1148 23.5247 11.3365 23.5247 11.5898V16.9098C23.5247 17.1632 23.6197 17.3848 23.8097 17.5748C23.9997 17.7648 24.2214 17.8598 24.4747 17.8598H33.2147C33.468 17.8598 33.6897 17.7648 33.8797 17.5748C34.0697 17.3848 34.1647 17.1632 34.1647 16.9098V11.5898C34.1647 11.3365 34.0697 11.1148 33.8797 10.9248C33.6897 10.7348 33.468 10.6398 33.2147 10.6398H24.4747ZM25.2347 12.5398H27.8947V15.9598H25.2347V12.5398ZM32.4547 15.9598H29.7947V12.5398H32.4547V15.9598ZM27.1347 36.4798H21.8147C21.0547 36.4798 20.3897 36.7332 19.8197 37.2398C19.2497 37.7465 18.9647 38.3798 18.9647 39.1398V40.0898C18.2047 40.3432 17.508 40.7865 16.8747 41.4198C16.2414 42.0532 15.798 42.8132 15.5447 43.6998V41.0398C15.5447 40.5332 15.3547 40.2165 14.9747 40.0898L15.3547 38.5698C15.4814 38.3165 15.4814 38.0948 15.3547 37.9048C15.228 37.7148 15.0697 37.5565 14.8797 37.4298C14.6897 37.3032 14.468 37.3032 14.2147 37.4298C13.9614 37.5565 13.8347 37.7465 13.8347 37.9998L13.0747 40.0898H12.6947L11.9347 37.2398C11.808 36.8598 11.5864 36.6065 11.2697 36.4798C10.953 36.3532 10.668 36.4165 10.4147 36.6698C10.1614 36.9232 10.098 37.2398 10.2247 37.6198L10.7947 40.0898C10.4147 40.2165 10.2247 40.5332 10.2247 41.0398V44.4598C10.2247 44.7132 10.288 44.9348 10.4147 45.1248C10.5414 45.3148 10.7314 45.4098 10.9847 45.4098H27.8947V47.1198H10.9847C10.7314 47.1198 10.5414 47.2148 10.4147 47.4048C10.288 47.5948 10.2247 47.8165 10.2247 48.0698C10.2247 48.3232 10.288 48.5448 10.4147 48.7348C10.5414 48.9248 10.7314 49.0198 10.9847 49.0198H12.1247L12.8847 53.5798C12.8847 54.0865 13.138 54.3398 13.6447 54.3398H15.5447C16.0514 54.3398 16.3047 54.0865 16.3047 53.5798L17.0647 49.0198H22.7647L23.5247 53.5798C23.6514 54.0865 23.968 54.3398 24.4747 54.3398H26.1847C26.6914 54.3398 27.008 54.0865 27.1347 53.5798L27.8947 49.0198H28.8447C29.098 49.0198 29.3197 48.9248 29.5097 48.7348C29.6997 48.5448 29.7947 48.3232 29.7947 48.0698V44.4598C29.7947 44.2065 29.668 44.0165 29.4147 43.8898C29.668 43.5098 29.7947 43.1298 29.7947 42.7498V39.1398C29.7947 38.3798 29.5097 37.7465 28.9397 37.2398C28.3697 36.7332 27.768 36.4798 27.1347 36.4798ZM14.7847 52.6298H14.4047L13.8347 49.0198H15.3547L14.7847 52.6298ZM25.4247 52.6298H25.2347L24.4747 49.0198H25.9947L25.4247 52.6298ZM18.9647 41.9898V43.6998H17.4447C17.698 42.8132 18.2047 42.2432 18.9647 41.9898ZM11.9347 41.7998H13.6447V43.6998H11.9347V41.7998ZM20.8647 43.6998V39.1398C20.8647 38.8865 20.9597 38.6965 21.1497 38.5698C21.3397 38.4432 21.498 38.3798 21.6247 38.3798H27.1347C27.388 38.3798 27.578 38.4432 27.7047 38.5698C27.8314 38.6965 27.8947 38.8865 27.8947 39.1398V42.7498C27.8947 43.0032 27.8314 43.2248 27.7047 43.4148C27.578 43.6048 27.388 43.6998 27.1347 43.6998H20.8647ZM23.5247 41.0398C23.5247 41.2932 23.6197 41.4832 23.8097 41.6098C23.9997 41.7365 24.2214 41.7998 24.4747 41.7998C24.728 41.7998 24.918 41.7365 25.0447 41.6098C25.1714 41.4832 25.2347 41.2932 25.2347 41.0398C25.2347 40.7865 25.1714 40.5648 25.0447 40.3748C24.918 40.1848 24.728 40.0898 24.4747 40.0898C24.2214 40.0898 23.9997 40.1848 23.8097 40.3748C23.6197 40.5648 23.5247 40.7865 23.5247 41.0398ZM46.7047 36.4798H35.1147C34.8614 36.4798 34.6397 36.5748 34.4497 36.7648C34.2597 36.9548 34.1647 37.1765 34.1647 37.4298V53.3898C34.1647 53.6432 34.2597 53.8648 34.4497 54.0548C34.6397 54.2448 34.8614 54.3398 35.1147 54.3398C35.368 54.3398 35.5897 54.2448 35.7797 54.0548C35.9697 53.8648 36.0647 53.6432 36.0647 53.3898V38.3798H45.7547V53.3898C45.7547 53.6432 45.8497 53.8648 46.0397 54.0548C46.2297 54.2448 46.4514 54.3398 46.7047 54.3398C46.958 54.3398 47.148 54.2448 47.2747 54.0548C47.4014 53.8648 47.4647 53.6432 47.4647 53.3898V37.4298C47.4647 37.1765 47.4014 36.9548 47.2747 36.7648C47.148 36.5748 46.958 36.4798 46.7047 36.4798ZM42.1447 44.4598C42.1447 44.7132 42.2397 44.9348 42.4297 45.1248C42.6197 45.3148 42.8414 45.4098 43.0947 45.4098C43.348 45.4098 43.5697 45.3148 43.7597 45.1248C43.9497 44.9348 44.0447 44.7132 44.0447 44.4598C44.0447 44.2065 43.9497 44.0165 43.7597 43.8898C43.5697 43.7632 43.348 43.6998 43.0947 43.6998C42.8414 43.6998 42.6197 43.7632 42.4297 43.8898C42.2397 44.0165 42.1447 44.2065 42.1447 44.4598Z" fill="#304778"/>
</svg>
