<svg width="21" height="20" viewBox="0 0 21 20" fill="none" xmlns="http://www.w3.org/2000/svg">
<path d="M4.91309 3H9.91309C10.0228 3.00006 10.0916 3.03203 10.1533 3.09375C10.215 3.15543 10.2463 3.22351 10.2461 3.33203C10.2458 3.44199 10.2139 3.5122 10.1514 3.5752C10.0909 3.63613 10.0236 3.6675 9.91504 3.66699H4.41309V16.333H9.91309C10.0228 16.3331 10.0916 16.3651 10.1533 16.4268C10.215 16.4884 10.2463 16.5567 10.2461 16.665C10.2458 16.7749 10.2138 16.8452 10.1514 16.9082C10.0909 16.9691 10.0236 17.0005 9.91504 17H4.91309C4.58832 17 4.32283 16.8902 4.08984 16.6572C3.85689 16.4243 3.74655 16.1586 3.74609 15.833V4.16699C3.74609 3.84256 3.85553 3.57677 4.08887 3.34375C4.2937 3.13927 4.52338 3.02929 4.79492 3.00488L4.91309 3ZM14.0947 6.69727C14.1926 6.69427 14.2602 6.72105 14.3291 6.79004L17.3096 9.77051C17.3885 9.84959 17.4131 9.91917 17.4131 10C17.4131 10.0808 17.3885 10.1504 17.3096 10.2295L14.3301 13.209C14.2575 13.2815 14.1913 13.3053 14.1045 13.3027C14.0105 13.2999 13.9344 13.2698 13.8564 13.1943C13.7991 13.1282 13.7743 13.0596 13.7773 12.9639C13.7809 12.8533 13.8137 12.7843 13.8711 12.7266L15.4121 11.1865L16.2656 10.333H9.0791C8.96938 10.3329 8.90078 10.3014 8.83984 10.2402C8.77808 10.1781 8.74639 10.1087 8.74609 9.99902C8.74584 9.89097 8.77683 9.82258 8.83887 9.76074C8.90187 9.69796 8.97117 9.66706 9.0791 9.66699H16.2656L13.8496 7.25098C13.7936 7.19498 13.7667 7.13565 13.7666 7.04199C13.7666 6.94728 13.7944 6.87211 13.8643 6.7959C13.9215 6.7335 13.9866 6.70057 14.0947 6.69727Z" fill="black" stroke="black"/>
</svg>
