<svg width="19" height="18" viewBox="0 0 19 18" fill="none" xmlns="http://www.w3.org/2000/svg">
<path d="M5.62109 5.625C5.62109 5.82391 5.70011 6.01468 5.84076 6.15533C5.98142 6.29598 6.17218 6.375 6.37109 6.375C6.57001 6.375 6.76077 6.29598 6.90142 6.15533C7.04208 6.01468 7.12109 5.82391 7.12109 5.625C7.12109 5.42609 7.04208 5.23532 6.90142 5.09467C6.76077 4.95402 6.57001 4.875 6.37109 4.875C6.17218 4.875 5.98142 4.95402 5.84076 5.09467C5.70011 5.23532 5.62109 5.42609 5.62109 5.625Z" stroke="black" stroke-width="2" stroke-linecap="round" stroke-linejoin="round"/>
<path d="M2.99609 4.5V8.379C2.99618 8.77679 3.15427 9.15826 3.43559 9.4395L9.21809 15.222C9.55706 15.5609 10.0168 15.7513 10.4961 15.7513C10.9754 15.7513 11.4351 15.5609 11.7741 15.222L15.9681 11.028C16.307 10.689 16.4974 10.2293 16.4974 9.75C16.4974 9.27067 16.307 8.81096 15.9681 8.472L10.1856 2.6895C9.90435 2.40818 9.52289 2.25008 9.12509 2.25H5.24609C4.64936 2.25 4.07706 2.48705 3.6551 2.90901C3.23315 3.33097 2.99609 3.90326 2.99609 4.5Z" stroke="black" stroke-width="2" stroke-linecap="round" stroke-linejoin="round"/>
</svg>
