<svg width="42" height="42" viewBox="0 0 42 42" fill="none" xmlns="http://www.w3.org/2000/svg">
<path d="M20.2617 6.625H25.2402C26.9282 6.625 28.2221 6.62554 29.252 6.71094H29.2529C30.2985 6.79596 31.109 6.96738 31.8262 7.33301V7.33398C33.0489 7.95711 34.0429 8.95109 34.666 10.1738H34.667C35.0328 10.8914 35.2061 11.7022 35.291 12.7451C35.3748 13.7791 35.375 15.0705 35.375 16.7617V21.7402C35.375 23.4282 35.3745 24.7221 35.2891 25.752V25.7529C35.204 26.7985 35.0326 27.609 34.667 28.3262H34.666C34.0429 29.5489 33.0489 30.5429 31.8262 31.166V31.167C31.1986 31.487 30.4993 31.6579 29.6348 31.7539L29.2539 31.791C28.2218 31.8747 26.9294 31.875 25.2402 31.875H20.2617C18.572 31.875 17.2797 31.8745 16.248 31.7891H16.2471C15.2015 31.704 14.391 31.5326 13.6738 31.167V31.166C12.4511 30.5429 11.4571 29.5489 10.834 28.3262H10.833C10.513 27.6986 10.3421 26.9993 10.2461 26.1348L10.209 25.7539C10.1253 24.7218 10.125 23.4275 10.125 21.7383V16.7617C10.125 15.0703 10.1255 13.7796 10.2109 12.7461V12.7451C10.296 11.7013 10.4678 10.8897 10.833 10.1748L10.834 10.1738C11.4571 8.95109 12.4511 7.95711 13.6738 7.33398V7.33301C14.3911 6.96731 15.2018 6.79575 16.248 6.70898L16.2471 6.70801C17.2793 6.62427 18.5722 6.625 20.2617 6.625ZM20.2998 7.375C18.7948 7.375 17.6341 7.37445 16.6963 7.42969L16.3076 7.45703C15.3093 7.53829 14.608 7.69926 14.0146 8.00195C12.9328 8.55322 12.0532 9.43276 11.502 10.5146C11.237 11.0339 11.0805 11.6358 10.9912 12.4473L10.957 12.8076C10.8745 13.8094 10.875 15.0797 10.875 16.7998V21.7002C10.875 23.2052 10.8744 24.3659 10.9297 25.3037L10.957 25.6924C11.0383 26.6907 11.1993 27.392 11.502 27.9854C12.0532 29.0672 12.9328 29.9468 14.0146 30.498C14.5339 30.763 15.1358 30.9195 15.9473 31.0088L16.3076 31.043C17.3094 31.1255 18.5797 31.125 20.2998 31.125H25.2002C26.7052 31.125 27.8659 31.1256 28.8037 31.0703L29.1924 31.043C30.1907 30.9617 30.892 30.8007 31.4854 30.498C32.5672 29.9468 33.4468 29.0672 33.998 27.9854C34.263 27.4661 34.4195 26.8642 34.5088 26.0527L34.543 25.6924C34.6255 24.6906 34.625 23.4203 34.625 21.7002V16.7998C34.625 15.2948 34.6256 14.1341 34.5703 13.1963L34.543 12.8076C34.4617 11.8093 34.3007 11.108 33.998 10.5146C33.4468 9.43276 32.5672 8.55322 31.4854 8.00195C30.9661 7.73705 30.3642 7.58052 29.5527 7.49121L29.1924 7.45703C28.1906 7.37446 26.9203 7.375 25.2002 7.375H20.2998Z" fill="black" stroke="black"/>
<path d="M20.125 13.125C19.6609 13.125 19.2158 13.3094 18.8876 13.6376C18.5594 13.9658 18.375 14.4109 18.375 14.875C18.375 15.3391 18.5594 15.7842 18.8876 16.1124C19.2158 16.4406 19.6609 16.625 20.125 16.625C20.5891 16.625 21.0342 16.4406 21.3624 16.1124C21.6906 15.7842 21.875 15.3391 21.875 14.875C21.875 14.4109 21.6906 13.9658 21.3624 13.6376C21.0342 13.3094 20.5891 13.125 20.125 13.125ZM16.625 14.875C16.625 13.9467 16.9937 13.0565 17.6501 12.4001C18.3065 11.7437 19.1967 11.375 20.125 11.375C21.0533 11.375 21.9435 11.7437 22.5999 12.4001C23.2563 13.0565 23.625 13.9467 23.625 14.875C23.625 15.8033 23.2563 16.6935 22.5999 17.3499C21.9435 18.0063 21.0533 18.375 20.125 18.375C19.1967 18.375 18.3065 18.0063 17.6501 17.3499C16.9937 16.6935 16.625 15.8033 16.625 14.875Z" fill="black"/>
<path d="M11.7583 10.5872C11.7993 10.6947 11.8188 10.8093 11.8155 10.9244C11.8122 11.0395 11.7862 11.1528 11.7391 11.2578C11.692 11.3628 11.6246 11.4575 11.5408 11.5364C11.457 11.6153 11.3584 11.6769 11.2508 11.7177C10.2572 12.0974 9.4025 12.7699 8.79968 13.6462C8.19686 14.5224 7.8744 15.5611 7.875 16.6247V22.7497C7.875 26.0747 7.8855 27.5307 8.26 28.6822C8.64398 29.8646 9.30242 30.9392 10.1815 31.8183C11.0605 32.6973 12.1351 33.3557 13.3175 33.7397C14.469 34.1142 15.925 34.1247 19.25 34.1247H25.375C26.4275 34.125 27.4558 33.809 28.3264 33.2177C29.197 32.6263 29.8698 31.7869 30.2575 30.8085C30.2999 30.7016 30.3629 30.6041 30.443 30.5216C30.5231 30.4391 30.6186 30.3732 30.7241 30.3276C30.8297 30.282 30.9432 30.2577 31.0581 30.256C31.1731 30.2542 31.2873 30.2752 31.3941 30.3176C31.501 30.36 31.5985 30.423 31.681 30.5031C31.7635 30.5832 31.8294 30.6787 31.875 30.7842C31.9205 30.8898 31.9449 31.0033 31.9466 31.1182C31.9483 31.2332 31.9274 31.3473 31.885 31.4542C31.3679 32.7586 30.4708 33.8776 29.3099 34.6658C28.1491 35.454 26.7782 35.8752 25.375 35.8747H19.0453C15.9828 35.8747 14.2275 35.8747 12.775 35.4022C11.331 34.9328 10.0186 34.1284 8.94499 33.0547C7.87136 31.9811 7.06695 30.6687 6.5975 29.2247C6.125 27.7722 6.125 26.017 6.125 22.9545V16.6247C6.12457 15.2066 6.55489 13.8218 7.35896 12.6536C8.16303 11.4855 9.30294 10.5891 10.6278 10.0832C10.7352 10.0421 10.8497 10.0226 10.9646 10.0257C11.0796 10.0289 11.1929 10.0547 11.2979 10.1017C11.4029 10.1486 11.4976 10.2159 11.5766 10.2995C11.6556 10.3831 11.7173 10.4797 11.7583 10.5872Z" fill="black"/>
<path d="M27.5173 16.8161C28.32 16.5613 29.182 16.5613 29.9848 16.8161C30.4958 16.9789 30.9298 17.2659 31.3708 17.6351C31.796 17.9904 32.2808 18.4681 32.8723 19.0561L34.925 21.0844L34.9723 21.1299C35.1823 21.3364 35.38 21.5324 35.527 21.7686C35.6565 21.9751 35.7528 22.2044 35.8105 22.4424C35.877 22.7154 35.8753 22.9919 35.8735 23.2754V23.3384C35.863 25.7796 35.8053 27.3984 35.1035 28.7144C34.4147 29.9925 33.339 31.0198 32.0305 31.6491C31.2343 32.0359 30.3523 32.2091 29.2778 32.2931C28.2208 32.3754 26.903 32.3754 25.216 32.3754H20.2285C18.5433 32.3754 17.2255 32.3754 16.1685 32.2931C15.094 32.2091 14.212 32.0359 13.4158 31.6491C12.1073 31.0198 11.0317 29.9925 10.3428 28.7144C9.91753 27.9146 9.73553 27.0291 9.64978 25.9494L9.64628 25.8969C9.61625 25.6398 9.61801 25.38 9.65153 25.1234C9.69003 24.8906 9.77403 24.6421 9.88253 24.4321C10.012 24.1871 10.1888 23.9824 10.3725 23.7724L10.4128 23.7269L10.5353 23.5869C11.16 22.8711 11.6675 22.2919 12.1155 21.8596C12.5775 21.4169 13.0395 21.0669 13.5995 20.8709C14.4682 20.5683 15.4136 20.5683 16.2823 20.8709C16.8423 21.0669 17.3043 21.4169 17.7645 21.8596C18.2143 22.2919 18.72 22.8711 19.3465 23.5869L19.3728 23.6184C19.4123 23.6606 19.4598 23.6945 19.5124 23.7182C19.5651 23.7419 19.622 23.755 19.6798 23.7566C19.7375 23.7582 19.795 23.7484 19.849 23.7277C19.9029 23.707 19.9522 23.6758 19.994 23.6359L24.6315 19.0561C25.2248 18.4681 25.7078 17.9904 26.133 17.6351C26.5723 17.2676 27.008 16.9789 27.5173 16.8161ZM29.4563 18.4839C28.998 18.3384 28.5058 18.3384 28.0475 18.4839C27.8428 18.5486 27.61 18.6799 27.2565 18.9774C26.8925 19.2801 26.4603 19.7071 25.8338 20.3249L21.2243 24.8819C21.0123 25.0897 20.7603 25.2522 20.4835 25.3595C20.2067 25.4668 19.911 25.5167 19.6144 25.506C19.3177 25.4954 19.0263 25.4245 18.7579 25.2976C18.4896 25.1708 18.2498 24.9906 18.0533 24.7681C17.3953 24.0156 16.9385 23.4941 16.5518 23.1214C16.172 22.7556 15.9218 22.5999 15.7065 22.5246C15.2107 22.3519 14.6711 22.3519 14.1753 22.5246C13.9583 22.5999 13.7098 22.7556 13.3283 23.1214C12.9433 23.4941 12.4848 24.0139 11.8268 24.7681L11.7323 24.8784C11.4838 25.1636 11.454 25.2039 11.4348 25.2459C11.4095 25.2976 11.3907 25.3523 11.3788 25.4086C11.3718 25.4489 11.3683 25.4839 11.3945 25.8111C11.4715 26.7824 11.622 27.3949 11.888 27.8901C12.3868 28.8246 13.1865 29.5911 14.1805 30.0759C14.6968 30.3261 15.332 30.4731 16.3033 30.5484C17.285 30.6254 18.5345 30.6254 20.267 30.6254H25.1793C26.9118 30.6254 28.1595 30.6254 29.1413 30.5484C30.1143 30.4731 30.7495 30.3261 31.2658 30.0759C32.2417 29.607 33.0442 28.8413 33.5583 27.8884C34.0185 27.0291 34.113 25.8829 34.1235 23.3314C34.1235 22.9429 34.1183 22.8939 34.1095 22.8554C34.0961 22.7977 34.0731 22.7426 34.0413 22.6926C34.0168 22.6541 33.98 22.6104 33.6948 22.3286L31.67 20.3266C31.2128 19.8593 30.7382 19.4093 30.2473 18.9774C29.892 18.6799 29.661 18.5486 29.4563 18.4839Z" fill="black"/>
</svg>
