<svg width="19" height="18" viewBox="0 0 19 18" fill="none" xmlns="http://www.w3.org/2000/svg">
<path d="M3.74609 13.5C3.74609 12.7044 4.06216 11.9413 4.62477 11.3787C5.18738 10.8161 5.95044 10.5 6.74609 10.5H12.7461C13.5417 10.5 14.3048 10.8161 14.8674 11.3787C15.43 11.9413 15.7461 12.7044 15.7461 13.5C15.7461 13.8978 15.5881 14.2794 15.3068 14.5607C15.0254 14.842 14.6439 15 14.2461 15H5.24609C4.84827 15 4.46674 14.842 4.18543 14.5607C3.90413 14.2794 3.74609 13.8978 3.74609 13.5Z" fill="#304778" stroke="#304778" stroke-width="1.5" stroke-linejoin="round"/>
<path d="M9.74609 7.5C10.9887 7.5 11.9961 6.49264 11.9961 5.25C11.9961 4.00736 10.9887 3 9.74609 3C8.50345 3 7.49609 4.00736 7.49609 5.25C7.49609 6.49264 8.50345 7.5 9.74609 7.5Z" fill="#304778" stroke="#304778" stroke-width="1.5"/>
</svg>
