<svg width="19" height="20" viewBox="0 0 19 20" fill="none" xmlns="http://www.w3.org/2000/svg">
<g clip-path="url(#clip0_4200_18141)">
<path d="M15.9761 9.99609V18.3715H3.67578V9.99609" stroke="black" stroke-width="1.5"/>
<path d="M17.3124 5.79297H2.3125V9.95959H17.3124V5.79297Z" stroke="#171717" stroke-width="1.5"/>
<path d="M9.8125 18.2928V5.79297" stroke="#171717" stroke-width="1.5"/>
<path d="M9.81245 5.79358H6.43748C5.9402 5.79358 5.4633 5.57409 5.11167 5.18339C4.76004 4.79269 4.5625 4.26279 4.5625 3.71027C4.5625 3.15774 4.76004 2.62784 5.11167 2.23714C5.4633 1.84644 5.9402 1.62695 6.43748 1.62695C9.06245 1.62695 9.81245 5.79358 9.81245 5.79358Z" stroke="#171717" stroke-width="1.5"/>
<path d="M9.8125 5.79358H13.1875C13.6847 5.79358 14.1617 5.57409 14.5133 5.18339C14.8649 4.79269 15.0624 4.26279 15.0624 3.71027C15.0624 3.15774 14.8649 2.62784 14.5133 2.23714C14.1617 1.84644 13.6847 1.62695 13.1875 1.62695C10.5625 1.62695 9.8125 5.79358 9.8125 5.79358Z" stroke="#171717" stroke-width="1.5"/>
</g>
<defs>
<clipPath id="clip0_4200_18141">
<rect width="18" height="20" fill="white" transform="translate(0.746094)"/>
</clipPath>
</defs>
</svg>
