<svg width="19" height="18" viewBox="0 0 19 18" fill="none" xmlns="http://www.w3.org/2000/svg">
<path d="M17.2341 7.5C17.2063 6.51675 17.1133 5.88975 16.7983 5.355C16.3498 4.59375 15.5428 4.17 13.9296 3.324L12.4296 2.5365C11.1126 1.84575 10.4541 1.5 9.74609 1.5C9.03809 1.5 8.37959 1.845 7.06259 2.5365L5.56259 3.324C3.94934 4.17 3.14234 4.59375 2.69384 5.355C2.24609 6.1155 2.24609 7.06275 2.24609 8.9565V9.04425C2.24609 10.9372 2.24609 11.8845 2.69384 12.645C3.14234 13.4063 3.94934 13.83 5.56259 14.6768L7.06259 15.4635C8.37959 16.1543 9.03809 16.5 9.74609 16.5C10.4541 16.5 11.1126 16.155 12.4296 15.4635L13.9296 14.676C15.5428 13.8293 16.3498 13.4063 16.7983 12.645C17.1133 12.1103 17.2063 11.4832 17.2341 10.5M16.4961 5.625L13.4961 7.125M13.4961 7.125L13.1211 7.3125L9.74609 9M13.4961 7.125V9.75M13.4961 7.125L6.37109 3.375M9.74609 9L2.99609 5.625M9.74609 9V16.125" stroke="#304778" stroke-width="1.5" stroke-linecap="round"/>
</svg>
