<svg width="19" height="18" viewBox="0 0 19 18" fill="none" xmlns="http://www.w3.org/2000/svg">
<path d="M15.0485 9.85585L10.8058 14.0993C10.5245 14.3806 10.143 14.5385 9.74527 14.5385C9.34752 14.5385 8.96606 14.3806 8.68477 14.0993L4.44202 9.8566C4.0913 9.50893 3.8127 9.09542 3.62222 8.63979C3.43173 8.18417 3.33312 7.69541 3.33204 7.20157C3.33096 6.70773 3.42743 6.21854 3.61591 5.76209C3.8044 5.30564 4.08118 4.89091 4.43038 4.54171C4.77958 4.19251 5.19431 3.91573 5.65076 3.72724C6.10722 3.53876 6.59641 3.44229 7.09024 3.44337C7.58408 3.44445 8.07284 3.54306 8.52847 3.73354C8.98409 3.92402 9.39761 4.20262 9.74527 4.55335C10.4514 3.86475 11.4005 3.4821 12.3868 3.48828C13.3731 3.49446 14.3173 3.88897 15.0148 4.58636C15.7122 5.28376 16.1069 6.22787 16.1132 7.21418C16.1195 8.20049 15.737 9.14958 15.0485 9.85585Z" stroke="black" stroke-width="1.5" stroke-linecap="round" stroke-linejoin="round"/>
</svg>
